<?xml version="1.0" encoding="utf-8" standalone="no"?>
<!DOCTYPE svg PUBLIC "-//W3C//DTD SVG 1.1//EN"
  "http://www.w3.org/Graphics/SVG/1.1/DTD/svg11.dtd">
<!-- Created with matplotlib (http://matplotlib.org/) -->
<svg height="576pt" version="1.1" viewBox="0 0 936 576" width="936pt" xmlns="http://www.w3.org/2000/svg" xmlns:xlink="http://www.w3.org/1999/xlink">
 <defs>
  <style type="text/css">
*{stroke-linecap:butt;stroke-linejoin:round;stroke-miterlimit:100000;}
  </style>
 </defs>
 <g id="figure_1">
  <g id="patch_1">
   <path d="M 0 576 
L 936 576 
L 936 0 
L 0 0 
z
" style="fill:#ffffff;"/>
  </g>
  <g id="axes_1">
   <g id="patch_2">
    <path d="M 117 504 
L 842.4 504 
L 842.4 57.6 
L 117 57.6 
z
" style="fill:#ffffff;"/>
   </g>
   <g id="line2d_1">
    <defs>
     <path d="M 0 3 
C 0.795609 3 1.55874 2.683901 2.12132 2.12132 
C 2.683901 1.55874 3 0.795609 3 0 
C 3 -0.795609 2.683901 -1.55874 2.12132 -2.12132 
C 1.55874 -2.683901 0.795609 -3 0 -3 
C -0.795609 -3 -1.55874 -2.683901 -2.12132 -2.12132 
C -2.683901 -1.55874 -3 -0.795609 -3 0 
C -3 0.795609 -2.683901 1.55874 -2.12132 2.12132 
C -1.55874 2.683901 -0.795609 3 0 3 
z
" id="m294c2829ad"/>
    </defs>
    <g clip-path="url(#p0204cf861f)">
     <use style="fill:#0000ff;" x="674.521714286" xlink:href="#m294c2829ad" y="251.666448"/>
     <use style="fill:#0000ff;" x="543.949714286" xlink:href="#m294c2829ad" y="189.054756"/>
     <use style="fill:#0000ff;" x="496.280571429" xlink:href="#m294c2829ad" y="415.3128192"/>
     <use style="fill:#0000ff;" x="494.208" xlink:href="#m294c2829ad" y="329.16"/>
     <use style="fill:#0000ff;" x="479.7" xlink:href="#m294c2829ad" y="432.7420608"/>
     <use style="fill:#0000ff;" x="461.046857143" xlink:href="#m294c2829ad" y="189.054756"/>
     <use style="fill:#0000ff;" x="432.030857143" xlink:href="#m294c2829ad" y="109.083312"/>
     <use style="fill:#0000ff;" x="411.305142857" xlink:href="#m294c2829ad" y="174.90276"/>
     <use style="fill:#0000ff;" x="400.942285714" xlink:href="#m294c2829ad" y="159.077508"/>
     <use style="fill:#0000ff;" x="382.289142857" xlink:href="#m294c2829ad" y="289.99549776"/>
     <use style="fill:#0000ff;" x="380.216571429" xlink:href="#m294c2829ad" y="248.86993056"/>
     <use style="fill:#0000ff;" x="365.708571429" xlink:href="#m294c2829ad" y="350.51976384"/>
     <use style="fill:#0000ff;" x="330.474857143" xlink:href="#m294c2829ad" y="307.29756"/>
     <use style="fill:#0000ff;" x="330.474857143" xlink:href="#m294c2829ad" y="420.25536"/>
     <use style="fill:#0000ff;" x="326.329714286" xlink:href="#m294c2829ad" y="469.05010896"/>
     <use style="fill:#0000ff;" x="324.257142857" xlink:href="#m294c2829ad" y="483.78552"/>
     <use style="fill:#0000ff;" x="324.257142857" xlink:href="#m294c2829ad" y="457.96107168"/>
     <use style="fill:#0000ff;" x="309.749142857" xlink:href="#m294c2829ad" y="266.75098848"/>
     <use style="fill:#0000ff;" x="305.604" xlink:href="#m294c2829ad" y="469.3514736"/>
     <use style="fill:#0000ff;" x="305.604" xlink:href="#m294c2829ad" y="472.43523456"/>
     <use style="fill:#0000ff;" x="303.531428571" xlink:href="#m294c2829ad" y="432.22451952"/>
     <use style="fill:#0000ff;" x="297.313714286" xlink:href="#m294c2829ad" y="424.86350256"/>
     <use style="fill:#0000ff;" x="295.241142857" xlink:href="#m294c2829ad" y="408.861"/>
     <use style="fill:#0000ff;" x="295.241142857" xlink:href="#m294c2829ad" y="460.87776"/>
     <use style="fill:#0000ff;" x="286.950857143" xlink:href="#m294c2829ad" y="475.4107584"/>
     <use style="fill:#0000ff;" x="282.805714286" xlink:href="#m294c2829ad" y="457.26910704"/>
     <use style="fill:#0000ff;" x="280.733142857" xlink:href="#m294c2829ad" y="478.55938128"/>
     <use style="fill:#0000ff;" x="278.660571429" xlink:href="#m294c2829ad" y="275.8831272"/>
     <use style="fill:#0000ff;" x="266.225142857" xlink:href="#m294c2829ad" y="319.2648"/>
     <use style="fill:#0000ff;" x="264.152571429" xlink:href="#m294c2829ad" y="489.41118672"/>
     <use style="fill:#0000ff;" x="262.08" xlink:href="#m294c2829ad" y="393.888"/>
     <use style="fill:#0000ff;" x="262.08" xlink:href="#m294c2829ad" y="451.1587392"/>
     <use style="fill:#0000ff;" x="257.934857143" xlink:href="#m294c2829ad" y="384.26808"/>
     <use style="fill:#0000ff;" x="249.644571429" xlink:href="#m294c2829ad" y="399.84"/>
     <use style="fill:#0000ff;" x="247.572" xlink:href="#m294c2829ad" y="407.28"/>
     <use style="fill:#0000ff;" x="247.572" xlink:href="#m294c2829ad" y="265.92"/>
     <use style="fill:#0000ff;" x="241.354285714" xlink:href="#m294c2829ad" y="433.86753936"/>
     <use style="fill:#0000ff;" x="239.281714286" xlink:href="#m294c2829ad" y="429.6"/>
     <use style="fill:#0000ff;" x="233.064" xlink:href="#m294c2829ad" y="362.547"/>
     <use style="fill:#0000ff;" x="230.991428571" xlink:href="#m294c2829ad" y="399.84"/>
     <use style="fill:#0000ff;" x="230.991428571" xlink:href="#m294c2829ad" y="390.25759248"/>
     <use style="fill:#0000ff;" x="230.991428571" xlink:href="#m294c2829ad" y="251.04"/>
     <use style="fill:#0000ff;" x="228.918857143" xlink:href="#m294c2829ad" y="339.91783824"/>
     <use style="fill:#0000ff;" x="222.701142857" xlink:href="#m294c2829ad" y="483.11426832"/>
     <use style="fill:#0000ff;" x="210.265714286" xlink:href="#m294c2829ad" y="323.952"/>
     <use style="fill:#0000ff;" x="206.120571429" xlink:href="#m294c2829ad" y="488.88644352"/>
     <use style="fill:#0000ff;" x="206.120571429" xlink:href="#m294c2829ad" y="251.04"/>
     <use style="fill:#0000ff;" x="199.902857143" xlink:href="#m294c2829ad" y="356.62112928"/>
     <use style="fill:#0000ff;" x="164.669142857" xlink:href="#m294c2829ad" y="489.12"/>
     <use style="fill:#0000ff;" x="162.596571429" xlink:href="#m294c2829ad" y="475.4107584"/>
     <use style="fill:#0000ff;" x="158.451428571" xlink:href="#m294c2829ad" y="459.36"/>
     <use style="fill:#0000ff;" x="135.653142857" xlink:href="#m294c2829ad" y="484.1613888"/>
    </g>
   </g>
   <g id="line2d_2">
    <defs>
     <path d="M 0 3 
C 0.795609 3 1.55874 2.683901 2.12132 2.12132 
C 2.683901 1.55874 3 0.795609 3 0 
C 3 -0.795609 2.683901 -1.55874 2.12132 -2.12132 
C 1.55874 -2.683901 0.795609 -3 0 -3 
C -0.795609 -3 -1.55874 -2.683901 -2.12132 -2.12132 
C -2.683901 -1.55874 -3 -0.795609 -3 0 
C -3 0.795609 -2.683901 1.55874 -2.12132 2.12132 
C -1.55874 2.683901 -0.795609 3 0 3 
z
" id="mace21b7c29"/>
    </defs>
    <g clip-path="url(#p0204cf861f)">
     <use style="fill:#008000;" x="620.634857143" xlink:href="#mace21b7c29" y="174.90276"/>
     <use style="fill:#008000;" x="560.530285714" xlink:href="#mace21b7c29" y="204.30431568"/>
     <use style="fill:#008000;" x="512.861142857" xlink:href="#mace21b7c29" y="150.7330272"/>
     <use style="fill:#008000;" x="490.062857143" xlink:href="#mace21b7c29" y="197.8439256"/>
     <use style="fill:#008000;" x="471.409714286" xlink:href="#mace21b7c29" y="205.32814896"/>
     <use style="fill:#008000;" x="469.337142857" xlink:href="#mace21b7c29" y="225.21778368"/>
     <use style="fill:#008000;" x="456.901714286" xlink:href="#mace21b7c29" y="339.576"/>
     <use style="fill:#008000;" x="448.611428571" xlink:href="#mace21b7c29" y="189.054756"/>
     <use style="fill:#008000;" x="434.103428571" xlink:href="#mace21b7c29" y="349.8216984"/>
     <use style="fill:#008000;" x="429.958285714" xlink:href="#mace21b7c29" y="293.39365824"/>
     <use style="fill:#008000;" x="413.377714286" xlink:href="#mace21b7c29" y="439.7523264"/>
     <use style="fill:#008000;" x="409.232571429" xlink:href="#mace21b7c29" y="435.18"/>
     <use style="fill:#008000;" x="409.232571429" xlink:href="#mace21b7c29" y="424.0301184"/>
     <use style="fill:#008000;" x="407.16" xlink:href="#mace21b7c29" y="275.8831272"/>
     <use style="fill:#008000;" x="378.144" xlink:href="#mace21b7c29" y="321.72"/>
     <use style="fill:#008000;" x="376.071428571" xlink:href="#mace21b7c29" y="324.26965824"/>
     <use style="fill:#008000;" x="369.853714286" xlink:href="#mace21b7c29" y="347.76"/>
     <use style="fill:#008000;" x="365.708571429" xlink:href="#mace21b7c29" y="393.888"/>
     <use style="fill:#008000;" x="361.563428571" xlink:href="#mace21b7c29" y="417.957144"/>
     <use style="fill:#008000;" x="359.490857143" xlink:href="#mace21b7c29" y="321.72"/>
     <use style="fill:#008000;" x="351.200571429" xlink:href="#mace21b7c29" y="455.3852544"/>
     <use style="fill:#008000;" x="347.055428571" xlink:href="#mace21b7c29" y="438.7587888"/>
     <use style="fill:#008000;" x="332.547428571" xlink:href="#mace21b7c29" y="379.008"/>
     <use style="fill:#008000;" x="330.474857143" xlink:href="#mace21b7c29" y="467.3380608"/>
     <use style="fill:#008000;" x="320.112" xlink:href="#mace21b7c29" y="407.28"/>
     <use style="fill:#008000;" x="307.676571429" xlink:href="#mace21b7c29" y="439.2523584"/>
     <use style="fill:#008000;" x="297.313714286" xlink:href="#mace21b7c29" y="422.16"/>
     <use style="fill:#008000;" x="295.241142857" xlink:href="#mace21b7c29" y="370.824"/>
     <use style="fill:#008000;" x="293.168571429" xlink:href="#mace21b7c29" y="340.43967984"/>
     <use style="fill:#008000;" x="291.096" xlink:href="#mace21b7c29" y="366.90337296"/>
     <use style="fill:#008000;" x="272.442857143" xlink:href="#mace21b7c29" y="383.915796"/>
     <use style="fill:#008000;" x="268.297714286" xlink:href="#mace21b7c29" y="325.44"/>
     <use style="fill:#008000;" x="262.08" xlink:href="#mace21b7c29" y="482.3692416"/>
     <use style="fill:#008000;" x="262.08" xlink:href="#mace21b7c29" y="484.7119488"/>
     <use style="fill:#008000;" x="262.08" xlink:href="#mace21b7c29" y="317.73802272"/>
     <use style="fill:#008000;" x="260.007428571" xlink:href="#mace21b7c29" y="413.976"/>
     <use style="fill:#008000;" x="260.007428571" xlink:href="#mace21b7c29" y="413.39578416"/>
     <use style="fill:#008000;" x="260.007428571" xlink:href="#mace21b7c29" y="419.0369856"/>
     <use style="fill:#008000;" x="251.717142857" xlink:href="#mace21b7c29" y="404.79999504"/>
     <use style="fill:#008000;" x="251.717142857" xlink:href="#mace21b7c29" y="444.48"/>
     <use style="fill:#008000;" x="245.499428571" xlink:href="#mace21b7c29" y="454.39999008"/>
     <use style="fill:#008000;" x="243.426857143" xlink:href="#mace21b7c29" y="387.83227152"/>
     <use style="fill:#008000;" x="243.426857143" xlink:href="#mace21b7c29" y="469.171872"/>
     <use style="fill:#008000;" x="243.426857143" xlink:href="#mace21b7c29" y="459.68364"/>
     <use style="fill:#008000;" x="241.354285714" xlink:href="#mace21b7c29" y="409.53046608"/>
     <use style="fill:#008000;" x="241.354285714" xlink:href="#mace21b7c29" y="490.98541632"/>
     <use style="fill:#008000;" x="239.281714286" xlink:href="#mace21b7c29" y="366.36"/>
     <use style="fill:#008000;" x="237.209142857" xlink:href="#mace21b7c29" y="379.38"/>
     <use style="fill:#008000;" x="235.136571429" xlink:href="#mace21b7c29" y="484.8619392"/>
     <use style="fill:#008000;" x="233.064" xlink:href="#mace21b7c29" y="488.73563472"/>
     <use style="fill:#008000;" x="230.991428571" xlink:href="#mace21b7c29" y="486.0297216"/>
     <use style="fill:#008000;" x="228.918857143" xlink:href="#mace21b7c29" y="444.48"/>
     <use style="fill:#008000;" x="222.701142857" xlink:href="#mace21b7c29" y="447.456"/>
     <use style="fill:#008000;" x="220.628571429" xlink:href="#mace21b7c29" y="444.48"/>
     <use style="fill:#008000;" x="216.483428571" xlink:href="#mace21b7c29" y="445.689"/>
     <use style="fill:#008000;" x="214.410857143" xlink:href="#mace21b7c29" y="486.2707776"/>
     <use style="fill:#008000;" x="214.410857143" xlink:href="#mace21b7c29" y="488.88644352"/>
     <use style="fill:#008000;" x="208.193142857" xlink:href="#mace21b7c29" y="429.6"/>
     <use style="fill:#008000;" x="199.902857143" xlink:href="#mace21b7c29" y="488.34115104"/>
     <use style="fill:#008000;" x="191.612571429" xlink:href="#mace21b7c29" y="463.0597632"/>
     <use style="fill:#008000;" x="191.612571429" xlink:href="#mace21b7c29" y="490.98541632"/>
     <use style="fill:#008000;" x="191.612571429" xlink:href="#mace21b7c29" y="417.957144"/>
     <use style="fill:#008000;" x="191.612571429" xlink:href="#mace21b7c29" y="488.4504"/>
     <use style="fill:#008000;" x="185.394857143" xlink:href="#mace21b7c29" y="488.88644352"/>
     <use style="fill:#008000;" x="183.322285714" xlink:href="#mace21b7c29" y="384.96"/>
     <use style="fill:#008000;" x="172.959428571" xlink:href="#mace21b7c29" y="451.22064"/>
     <use style="fill:#008000;" x="168.814285714" xlink:href="#mace21b7c29" y="473.9090688"/>
     <use style="fill:#008000;" x="160.524" xlink:href="#mace21b7c29" y="448.2"/>
     <use style="fill:#008000;" x="150.161142857" xlink:href="#mace21b7c29" y="444.48"/>
     <use style="fill:#008000;" x="143.943428571" xlink:href="#mace21b7c29" y="481.2925248"/>
     <use style="fill:#008000;" x="143.943428571" xlink:href="#mace21b7c29" y="485.79204336"/>
    </g>
   </g>
   <g id="line2d_3">
    <defs>
     <path d="M 0 3 
C 0.795609 3 1.55874 2.683901 2.12132 2.12132 
C 2.683901 1.55874 3 0.795609 3 0 
C 3 -0.795609 2.683901 -1.55874 2.12132 -2.12132 
C 1.55874 -2.683901 0.795609 -3 0 -3 
C -0.795609 -3 -1.55874 -2.683901 -2.12132 -2.12132 
C -2.683901 -1.55874 -3 -0.795609 -3 0 
C -3 0.795609 -2.683901 1.55874 -2.12132 2.12132 
C -1.55874 2.683901 -0.795609 3 0 3 
z
" id="m9b5f909acc"/>
    </defs>
    <g clip-path="url(#p0204cf861f)">
     <use style="fill:#ff0000;" x="740.844" xlink:href="#m9b5f909acc" y="323.76809808"/>
     <use style="fill:#ff0000;" x="637.215428571" xlink:href="#m9b5f909acc" y="141.993036"/>
     <use style="fill:#ff0000;" x="604.054285714" xlink:href="#m9b5f909acc" y="239.59171488"/>
     <use style="fill:#ff0000;" x="577.110857143" xlink:href="#m9b5f909acc" y="405.98347584"/>
     <use style="fill:#ff0000;" x="550.167428571" xlink:href="#m9b5f909acc" y="325.44"/>
     <use style="fill:#ff0000;" x="539.804571429" xlink:href="#m9b5f909acc" y="295.68"/>
     <use style="fill:#ff0000;" x="529.441714286" xlink:href="#m9b5f909acc" y="251.666448"/>
     <use style="fill:#ff0000;" x="523.224" xlink:href="#m9b5f909acc" y="316.419"/>
     <use style="fill:#ff0000;" x="523.224" xlink:href="#m9b5f909acc" y="241.54562256"/>
     <use style="fill:#ff0000;" x="521.151428571" xlink:href="#m9b5f909acc" y="163.71185424"/>
     <use style="fill:#ff0000;" x="506.643428571" xlink:href="#m9b5f909acc" y="281.44695264"/>
     <use style="fill:#ff0000;" x="465.192" xlink:href="#m9b5f909acc" y="336.05661216"/>
     <use style="fill:#ff0000;" x="456.901714286" xlink:href="#m9b5f909acc" y="186.71001024"/>
     <use style="fill:#ff0000;" x="442.393714286" xlink:href="#m9b5f909acc" y="373.056"/>
     <use style="fill:#ff0000;" x="438.248571429" xlink:href="#m9b5f909acc" y="318.0"/>
     <use style="fill:#ff0000;" x="434.103428571" xlink:href="#m9b5f909acc" y="109.083312"/>
     <use style="fill:#ff0000;" x="432.030857143" xlink:href="#m9b5f909acc" y="380.94741456"/>
     <use style="fill:#ff0000;" x="409.232571429" xlink:href="#m9b5f909acc" y="267.531132"/>
     <use style="fill:#ff0000;" x="409.232571429" xlink:href="#m9b5f909acc" y="370.08"/>
     <use style="fill:#ff0000;" x="407.16" xlink:href="#m9b5f909acc" y="426.18572448"/>
     <use style="fill:#ff0000;" x="407.16" xlink:href="#m9b5f909acc" y="470.6557056"/>
     <use style="fill:#ff0000;" x="390.579428571" xlink:href="#m9b5f909acc" y="424.647936"/>
     <use style="fill:#ff0000;" x="382.289142857" xlink:href="#m9b5f909acc" y="455.762016"/>
     <use style="fill:#ff0000;" x="382.289142857" xlink:href="#m9b5f909acc" y="489.41118672"/>
     <use style="fill:#ff0000;" x="378.144" xlink:href="#m9b5f909acc" y="414.72"/>
     <use style="fill:#ff0000;" x="367.781142857" xlink:href="#m9b5f909acc" y="384.96"/>
     <use style="fill:#ff0000;" x="363.636" xlink:href="#m9b5f909acc" y="295.68"/>
     <use style="fill:#ff0000;" x="363.636" xlink:href="#m9b5f909acc" y="289.05374256"/>
     <use style="fill:#ff0000;" x="359.490857143" xlink:href="#m9b5f909acc" y="333.12918048"/>
     <use style="fill:#ff0000;" x="355.345714286" xlink:href="#m9b5f909acc" y="456.62913312"/>
     <use style="fill:#ff0000;" x="344.982857143" xlink:href="#m9b5f909acc" y="463.69629984"/>
     <use style="fill:#ff0000;" x="338.765142857" xlink:href="#m9b5f909acc" y="465.109632"/>
     <use style="fill:#ff0000;" x="336.692571429" xlink:href="#m9b5f909acc" y="453.60742176"/>
     <use style="fill:#ff0000;" x="332.547428571" xlink:href="#m9b5f909acc" y="363.76963008"/>
     <use style="fill:#ff0000;" x="326.329714286" xlink:href="#m9b5f909acc" y="302.376"/>
     <use style="fill:#ff0000;" x="322.184571429" xlink:href="#m9b5f909acc" y="414.72"/>
     <use style="fill:#ff0000;" x="305.604" xlink:href="#m9b5f909acc" y="450.7462656"/>
     <use style="fill:#ff0000;" x="301.458857143" xlink:href="#m9b5f909acc" y="340.32"/>
     <use style="fill:#ff0000;" x="297.313714286" xlink:href="#m9b5f909acc" y="484.42613376"/>
     <use style="fill:#ff0000;" x="295.241142857" xlink:href="#m9b5f909acc" y="467.79199008"/>
     <use style="fill:#ff0000;" x="293.168571429" xlink:href="#m9b5f909acc" y="395.1528"/>
     <use style="fill:#ff0000;" x="293.168571429" xlink:href="#m9b5f909acc" y="450.74525376"/>
     <use style="fill:#ff0000;" x="286.950857143" xlink:href="#m9b5f909acc" y="471.34584"/>
     <use style="fill:#ff0000;" x="276.588" xlink:href="#m9b5f909acc" y="436.436988"/>
     <use style="fill:#ff0000;" x="274.515428571" xlink:href="#m9b5f909acc" y="389.29860624"/>
     <use style="fill:#ff0000;" x="274.515428571" xlink:href="#m9b5f909acc" y="441.08741952"/>
     <use style="fill:#ff0000;" x="272.442857143" xlink:href="#m9b5f909acc" y="396.12"/>
     <use style="fill:#ff0000;" x="272.442857143" xlink:href="#m9b5f909acc" y="361.0404"/>
     <use style="fill:#ff0000;" x="260.007428571" xlink:href="#m9b5f909acc" y="429.6"/>
     <use style="fill:#ff0000;" x="247.572" xlink:href="#m9b5f909acc" y="417.957144"/>
     <use style="fill:#ff0000;" x="239.281714286" xlink:href="#m9b5f909acc" y="490.045536"/>
     <use style="fill:#ff0000;" x="235.136571429" xlink:href="#m9b5f909acc" y="439.30434912"/>
     <use style="fill:#ff0000;" x="233.064" xlink:href="#m9b5f909acc" y="479.5515648"/>
     <use style="fill:#ff0000;" x="220.628571429" xlink:href="#m9b5f909acc" y="472.5662976"/>
     <use style="fill:#ff0000;" x="210.265714286" xlink:href="#m9b5f909acc" y="478.1998656"/>
     <use style="fill:#ff0000;" x="208.193142857" xlink:href="#m9b5f909acc" y="490.98541632"/>
     <use style="fill:#ff0000;" x="204.048" xlink:href="#m9b5f909acc" y="484.0655616"/>
     <use style="fill:#ff0000;" x="199.902857143" xlink:href="#m9b5f909acc" y="489.41118672"/>
     <use style="fill:#ff0000;" x="195.757714286" xlink:href="#m9b5f909acc" y="480.5300736"/>
     <use style="fill:#ff0000;" x="195.757714286" xlink:href="#m9b5f909acc" y="488.34115104"/>
     <use style="fill:#ff0000;" x="193.685142857" xlink:href="#m9b5f909acc" y="473.52193584"/>
     <use style="fill:#ff0000;" x="193.685142857" xlink:href="#m9b5f909acc" y="483.9102144"/>
     <use style="fill:#ff0000;" x="154.306285714" xlink:href="#m9b5f909acc" y="475.6321728"/>
    </g>
   </g>
   <g id="line2d_4">
    <defs>
     <path d="M 0 3 
C 0.795609 3 1.55874 2.683901 2.12132 2.12132 
C 2.683901 1.55874 3 0.795609 3 0 
C 3 -0.795609 2.683901 -1.55874 2.12132 -2.12132 
C 1.55874 -2.683901 0.795609 -3 0 -3 
C -0.795609 -3 -1.55874 -2.683901 -2.12132 -2.12132 
C -2.683901 -1.55874 -3 -0.795609 -3 0 
C -3 0.795609 -2.683901 1.55874 -2.12132 2.12132 
C -1.55874 2.683901 -0.795609 3 0 3 
z
" id="m4428c02dfc"/>
    </defs>
    <g clip-path="url(#p0204cf861f)">
     <use style="fill:#00bfbf;" x="595.764" xlink:href="#m4428c02dfc" y="231.47976384"/>
     <use style="fill:#00bfbf;" x="568.820571429" xlink:href="#m4428c02dfc" y="138.5564256"/>
     <use style="fill:#00bfbf;" x="556.385142857" xlink:href="#m4428c02dfc" y="241.54562256"/>
     <use style="fill:#00bfbf;" x="525.296571429" xlink:href="#m4428c02dfc" y="264.8316768"/>
     <use style="fill:#00bfbf;" x="521.151428571" xlink:href="#m4428c02dfc" y="280.056"/>
     <use style="fill:#00bfbf;" x="473.482285714" xlink:href="#m4428c02dfc" y="305.60000496"/>
     <use style="fill:#00bfbf;" x="467.264571429" xlink:href="#m4428c02dfc" y="459.42813552"/>
     <use style="fill:#00bfbf;" x="421.668" xlink:href="#m4428c02dfc" y="248.064"/>
     <use style="fill:#00bfbf;" x="415.450285714" xlink:href="#m4428c02dfc" y="451.42400496"/>
     <use style="fill:#00bfbf;" x="411.305142857" xlink:href="#m4428c02dfc" y="410.45824896"/>
     <use style="fill:#00bfbf;" x="400.942285714" xlink:href="#m4428c02dfc" y="174.90276"/>
     <use style="fill:#00bfbf;" x="382.289142857" xlink:href="#m4428c02dfc" y="488.88644352"/>
     <use style="fill:#00bfbf;" x="382.289142857" xlink:href="#m4428c02dfc" y="483.11426832"/>
     <use style="fill:#00bfbf;" x="380.216571429" xlink:href="#m4428c02dfc" y="310.56"/>
     <use style="fill:#00bfbf;" x="380.216571429" xlink:href="#m4428c02dfc" y="387.83227152"/>
     <use style="fill:#00bfbf;" x="371.926285714" xlink:href="#m4428c02dfc" y="236.16"/>
     <use style="fill:#00bfbf;" x="369.853714286" xlink:href="#m4428c02dfc" y="340.32"/>
     <use style="fill:#00bfbf;" x="361.563428571" xlink:href="#m4428c02dfc" y="460.30020768"/>
     <use style="fill:#00bfbf;" x="359.490857143" xlink:href="#m4428c02dfc" y="280.8"/>
     <use style="fill:#00bfbf;" x="357.418285714" xlink:href="#m4428c02dfc" y="269.93257056"/>
     <use style="fill:#00bfbf;" x="344.982857143" xlink:href="#m4428c02dfc" y="292.704"/>
     <use style="fill:#00bfbf;" x="334.62" xlink:href="#m4428c02dfc" y="458.67107088"/>
     <use style="fill:#00bfbf;" x="328.402285714" xlink:href="#m4428c02dfc" y="389.7072408"/>
     <use style="fill:#00bfbf;" x="324.257142857" xlink:href="#m4428c02dfc" y="412.86"/>
     <use style="fill:#00bfbf;" x="322.184571429" xlink:href="#m4428c02dfc" y="355.2"/>
     <use style="fill:#00bfbf;" x="311.821714286" xlink:href="#m4428c02dfc" y="467.0523648"/>
     <use style="fill:#00bfbf;" x="286.950857143" xlink:href="#m4428c02dfc" y="411.87792"/>
     <use style="fill:#00bfbf;" x="284.878285714" xlink:href="#m4428c02dfc" y="459.8081856"/>
     <use style="fill:#00bfbf;" x="280.733142857" xlink:href="#m4428c02dfc" y="348.2064"/>
     <use style="fill:#00bfbf;" x="268.297714286" xlink:href="#m4428c02dfc" y="422.99450016"/>
     <use style="fill:#00bfbf;" x="262.08" xlink:href="#m4428c02dfc" y="485.73798432"/>
     <use style="fill:#00bfbf;" x="262.08" xlink:href="#m4428c02dfc" y="338.36524416"/>
     <use style="fill:#00bfbf;" x="260.007428571" xlink:href="#m4428c02dfc" y="420.25536"/>
     <use style="fill:#00bfbf;" x="249.644571429" xlink:href="#m4428c02dfc" y="465.4096128"/>
     <use style="fill:#00bfbf;" x="249.644571429" xlink:href="#m4428c02dfc" y="446.712"/>
     <use style="fill:#00bfbf;" x="243.426857143" xlink:href="#m4428c02dfc" y="451.5045504"/>
     <use style="fill:#00bfbf;" x="226.846285714" xlink:href="#m4428c02dfc" y="468.75929424"/>
     <use style="fill:#00bfbf;" x="210.265714286" xlink:href="#m4428c02dfc" y="486.2618496"/>
     <use style="fill:#00bfbf;" x="204.048" xlink:href="#m4428c02dfc" y="451.92"/>
     <use style="fill:#00bfbf;" x="204.048" xlink:href="#m4428c02dfc" y="472.008"/>
     <use style="fill:#00bfbf;" x="193.685142857" xlink:href="#m4428c02dfc" y="480.91131408"/>
     <use style="fill:#00bfbf;" x="187.467428571" xlink:href="#m4428c02dfc" y="432.018"/>
     <use style="fill:#00bfbf;" x="185.394857143" xlink:href="#m4428c02dfc" y="470.43601728"/>
     <use style="fill:#00bfbf;" x="177.104571429" xlink:href="#m4428c02dfc" y="488.36170032"/>
     <use style="fill:#00bfbf;" x="175.032" xlink:href="#m4428c02dfc" y="486.2707776"/>
     <use style="fill:#00bfbf;" x="166.741714286" xlink:href="#m4428c02dfc" y="485.73798432"/>
     <use style="fill:#00bfbf;" x="160.524" xlink:href="#m4428c02dfc" y="489.41118672"/>
     <use style="fill:#00bfbf;" x="154.306285714" xlink:href="#m4428c02dfc" y="486.3993408"/>
     <use style="fill:#00bfbf;" x="127.362857143" xlink:href="#m4428c02dfc" y="480.3461568"/>
     <use style="fill:#00bfbf;" x="117.0" xlink:href="#m4428c02dfc" y="478.3980672"/>
    </g>
   </g>
   <g id="line2d_5">
    <defs>
     <path d="M 0 3 
C 0.795609 3 1.55874 2.683901 2.12132 2.12132 
C 2.683901 1.55874 3 0.795609 3 0 
C 3 -0.795609 2.683901 -1.55874 2.12132 -2.12132 
C 1.55874 -2.683901 0.795609 -3 0 -3 
C -0.795609 -3 -1.55874 -2.683901 -2.12132 -2.12132 
C -2.683901 -1.55874 -3 -0.795609 -3 0 
C -3 0.795609 -2.683901 1.55874 -2.12132 2.12132 
C -1.55874 2.683901 -0.795609 3 0 3 
z
" id="m65777378a8"/>
    </defs>
    <g clip-path="url(#p0204cf861f)">
     <use style="fill:#bf00bf;" x="575.038285714" xlink:href="#m65777378a8" y="256.046004"/>
     <use style="fill:#bf00bf;" x="550.167428571" xlink:href="#m65777378a8" y="242.82313008"/>
     <use style="fill:#bf00bf;" x="546.022285714" xlink:href="#m65777378a8" y="414.621792"/>
     <use style="fill:#bf00bf;" x="510.788571429" xlink:href="#m65777378a8" y="157.63252608"/>
     <use style="fill:#bf00bf;" x="494.208" xlink:href="#m65777378a8" y="277.824"/>
     <use style="fill:#bf00bf;" x="454.829142857" xlink:href="#m65777378a8" y="394.2228"/>
     <use style="fill:#bf00bf;" x="448.611428571" xlink:href="#m65777378a8" y="406.49194032"/>
     <use style="fill:#bf00bf;" x="436.176" xlink:href="#m65777378a8" y="251.04"/>
     <use style="fill:#bf00bf;" x="432.030857143" xlink:href="#m65777378a8" y="352.1681256"/>
     <use style="fill:#bf00bf;" x="432.030857143" xlink:href="#m65777378a8" y="319.70578368"/>
     <use style="fill:#bf00bf;" x="425.813142857" xlink:href="#m65777378a8" y="193.46085792"/>
     <use style="fill:#bf00bf;" x="417.522857143" xlink:href="#m65777378a8" y="449.26661328"/>
     <use style="fill:#bf00bf;" x="417.522857143" xlink:href="#m65777378a8" y="483.0709824"/>
     <use style="fill:#bf00bf;" x="411.305142857" xlink:href="#m65777378a8" y="306.79518144"/>
     <use style="fill:#bf00bf;" x="403.014857143" xlink:href="#m65777378a8" y="343.83912"/>
     <use style="fill:#bf00bf;" x="403.014857143" xlink:href="#m65777378a8" y="470.912832"/>
     <use style="fill:#bf00bf;" x="392.652" xlink:href="#m65777378a8" y="352.9011144"/>
     <use style="fill:#bf00bf;" x="386.434285714" xlink:href="#m65777378a8" y="480.91131408"/>
     <use style="fill:#bf00bf;" x="382.289142857" xlink:href="#m65777378a8" y="318.0"/>
     <use style="fill:#bf00bf;" x="376.071428571" xlink:href="#m65777378a8" y="248.86993056"/>
     <use style="fill:#bf00bf;" x="371.926285714" xlink:href="#m65777378a8" y="479.3605056"/>
     <use style="fill:#bf00bf;" x="349.128" xlink:href="#m65777378a8" y="450.8334624"/>
     <use style="fill:#bf00bf;" x="334.62" xlink:href="#m65777378a8" y="260.06556816"/>
     <use style="fill:#bf00bf;" x="330.474857143" xlink:href="#m65777378a8" y="228.72"/>
     <use style="fill:#bf00bf;" x="328.402285714" xlink:href="#m65777378a8" y="409.76000496"/>
     <use style="fill:#bf00bf;" x="320.112" xlink:href="#m65777378a8" y="488.88644352"/>
     <use style="fill:#bf00bf;" x="315.966857143" xlink:href="#m65777378a8" y="336.71904"/>
     <use style="fill:#bf00bf;" x="307.676571429" xlink:href="#m65777378a8" y="426.03717744"/>
     <use style="fill:#bf00bf;" x="301.458857143" xlink:href="#m65777378a8" y="472.83995568"/>
     <use style="fill:#bf00bf;" x="299.386285714" xlink:href="#m65777378a8" y="407.10697536"/>
     <use style="fill:#bf00bf;" x="297.313714286" xlink:href="#m65777378a8" y="373.02689472"/>
     <use style="fill:#bf00bf;" x="297.313714286" xlink:href="#m65777378a8" y="420.25536"/>
     <use style="fill:#bf00bf;" x="293.168571429" xlink:href="#m65777378a8" y="459.4635648"/>
     <use style="fill:#bf00bf;" x="291.096" xlink:href="#m65777378a8" y="488.36170032"/>
     <use style="fill:#bf00bf;" x="291.096" xlink:href="#m65777378a8" y="422.07640416"/>
     <use style="fill:#bf00bf;" x="278.660571429" xlink:href="#m65777378a8" y="444.34783584"/>
     <use style="fill:#bf00bf;" x="276.588" xlink:href="#m65777378a8" y="416.68459152"/>
     <use style="fill:#bf00bf;" x="268.297714286" xlink:href="#m65777378a8" y="406.6848"/>
     <use style="fill:#bf00bf;" x="268.297714286" xlink:href="#m65777378a8" y="384.96"/>
     <use style="fill:#bf00bf;" x="266.225142857" xlink:href="#m65777378a8" y="390.73088064"/>
     <use style="fill:#bf00bf;" x="266.225142857" xlink:href="#m65777378a8" y="355.2"/>
     <use style="fill:#bf00bf;" x="266.225142857" xlink:href="#m65777378a8" y="432.018"/>
     <use style="fill:#bf00bf;" x="253.789714286" xlink:href="#m65777378a8" y="440.55083184"/>
     <use style="fill:#bf00bf;" x="253.789714286" xlink:href="#m65777378a8" y="490.98541632"/>
     <use style="fill:#bf00bf;" x="249.644571429" xlink:href="#m65777378a8" y="470.0497176"/>
     <use style="fill:#bf00bf;" x="243.426857143" xlink:href="#m65777378a8" y="445.8215808"/>
     <use style="fill:#bf00bf;" x="241.354285714" xlink:href="#m65777378a8" y="490.98541632"/>
     <use style="fill:#bf00bf;" x="239.281714286" xlink:href="#m65777378a8" y="466.8"/>
     <use style="fill:#bf00bf;" x="237.209142857" xlink:href="#m65777378a8" y="483.233472"/>
     <use style="fill:#bf00bf;" x="237.209142857" xlink:href="#m65777378a8" y="360.21572064"/>
     <use style="fill:#bf00bf;" x="233.064" xlink:href="#m65777378a8" y="452.09856"/>
     <use style="fill:#bf00bf;" x="233.064" xlink:href="#m65777378a8" y="454.4058528"/>
     <use style="fill:#bf00bf;" x="222.701142857" xlink:href="#m65777378a8" y="489.41118672"/>
     <use style="fill:#bf00bf;" x="216.483428571" xlink:href="#m65777378a8" y="471.51588864"/>
     <use style="fill:#bf00bf;" x="210.265714286" xlink:href="#m65777378a8" y="488.88644352"/>
     <use style="fill:#bf00bf;" x="201.975428571" xlink:href="#m65777378a8" y="488.36170032"/>
     <use style="fill:#bf00bf;" x="195.757714286" xlink:href="#m65777378a8" y="481.4692992"/>
     <use style="fill:#bf00bf;" x="189.54" xlink:href="#m65777378a8" y="482.1996096"/>
     <use style="fill:#bf00bf;" x="181.249714286" xlink:href="#m65777378a8" y="477.0517248"/>
     <use style="fill:#bf00bf;" x="166.741714286" xlink:href="#m65777378a8" y="489.41118672"/>
     <use style="fill:#bf00bf;" x="141.870857143" xlink:href="#m65777378a8" y="490.98541632"/>
     <use style="fill:#bf00bf;" x="139.798285714" xlink:href="#m65777378a8" y="490.98541632"/>
     <use style="fill:#bf00bf;" x="137.725714286" xlink:href="#m65777378a8" y="476.841024"/>
     <use style="fill:#bf00bf;" x="135.653142857" xlink:href="#m65777378a8" y="490.98541632"/>
    </g>
   </g>
   <g id="line2d_6">
    <defs>
     <path d="M 0 3 
C 0.795609 3 1.55874 2.683901 2.12132 2.12132 
C 2.683901 1.55874 3 0.795609 3 0 
C 3 -0.795609 2.683901 -1.55874 2.12132 -2.12132 
C 1.55874 -2.683901 0.795609 -3 0 -3 
C -0.795609 -3 -1.55874 -2.683901 -2.12132 -2.12132 
C -2.683901 -1.55874 -3 -0.795609 -3 0 
C -3 0.795609 -2.683901 1.55874 -2.12132 2.12132 
C -1.55874 2.683901 -0.795609 3 0 3 
z
" id="mb1d74fb7a3" style="stroke:#000000;stroke-width:18.0;"/>
    </defs>
    <g clip-path="url(#p0204cf861f)">
     <use style="fill:#bfbf00;stroke:#000000;stroke-width:18.0;" x="740.844" xlink:href="#mb1d74fb7a3" y="323.76809808"/>
    </g>
   </g>
   <g id="line2d_7">
    <defs>
     <path d="M 0 3 
C 0.795609 3 1.55874 2.683901 2.12132 2.12132 
C 2.683901 1.55874 3 0.795609 3 0 
C 3 -0.795609 2.683901 -1.55874 2.12132 -2.12132 
C 1.55874 -2.683901 0.795609 -3 0 -3 
C -0.795609 -3 -1.55874 -2.683901 -2.12132 -2.12132 
C -2.683901 -1.55874 -3 -0.795609 -3 0 
C -3 0.795609 -2.683901 1.55874 -2.12132 2.12132 
C -1.55874 2.683901 -0.795609 3 0 3 
z
" id="m630a8ed470" style="stroke:#000000;stroke-width:18.0;"/>
    </defs>
    <g clip-path="url(#p0204cf861f)">
     <use style="stroke:#000000;stroke-width:18.0;" x="434.103428571" xlink:href="#m630a8ed470" y="109.083312"/>
    </g>
   </g>
   <g id="patch_3">
    <path d="M 117 57.6 
L 842.4 57.6 
" style="fill:none;stroke:#000000;stroke-linecap:square;stroke-linejoin:miter;"/>
   </g>
   <g id="patch_4">
    <path d="M 842.4 504 
L 842.4 57.6 
" style="fill:none;stroke:#000000;stroke-linecap:square;stroke-linejoin:miter;"/>
   </g>
   <g id="patch_5">
    <path d="M 117 504 
L 842.4 504 
" style="fill:none;stroke:#000000;stroke-linecap:square;stroke-linejoin:miter;"/>
   </g>
   <g id="patch_6">
    <path d="M 117 504 
L 117 57.6 
" style="fill:none;stroke:#000000;stroke-linecap:square;stroke-linejoin:miter;"/>
   </g>
   <g id="matplotlib.axis_1">
    <g id="xtick_1">
     <g id="line2d_8">
      <defs>
       <path d="M 0 0 
L 0 -4 
" id="ma144f5c31d" style="stroke:#000000;stroke-width:0.5;"/>
      </defs>
      <g>
       <use style="stroke:#000000;stroke-width:0.5;" x="117.0" xlink:href="#ma144f5c31d" y="504.0"/>
      </g>
     </g>
     <g id="line2d_9">
      <defs>
       <path d="M 0 0 
L 0 4 
" id="m20df569053" style="stroke:#000000;stroke-width:0.5;"/>
      </defs>
      <g>
       <use style="stroke:#000000;stroke-width:0.5;" x="117.0" xlink:href="#m20df569053" y="57.6"/>
      </g>
     </g>
     <g id="text_1">
      <!-- 0 -->
      <defs>
       <path d="M 31.78125 66.40625 
Q 24.171875 66.40625 20.328125 58.90625 
Q 16.5 51.421875 16.5 36.375 
Q 16.5 21.390625 20.328125 13.890625 
Q 24.171875 6.390625 31.78125 6.390625 
Q 39.453125 6.390625 43.28125 13.890625 
Q 47.125 21.390625 47.125 36.375 
Q 47.125 51.421875 43.28125 58.90625 
Q 39.453125 66.40625 31.78125 66.40625 
M 31.78125 74.21875 
Q 44.046875 74.21875 50.515625 64.515625 
Q 56.984375 54.828125 56.984375 36.375 
Q 56.984375 17.96875 50.515625 8.265625 
Q 44.046875 -1.421875 31.78125 -1.421875 
Q 19.53125 -1.421875 13.0625 8.265625 
Q 6.59375 17.96875 6.59375 36.375 
Q 6.59375 54.828125 13.0625 64.515625 
Q 19.53125 74.21875 31.78125 74.21875 
" id="BitstreamVeraSans-Roman-30"/>
      </defs>
      <g transform="translate(113.81875 515.5984375)scale(0.1 -0.1)">
       <use xlink:href="#BitstreamVeraSans-Roman-30"/>
      </g>
     </g>
    </g>
    <g id="xtick_2">
     <g id="line2d_10">
      <g>
       <use style="stroke:#000000;stroke-width:0.5;" x="220.628571429" xlink:href="#ma144f5c31d" y="504.0"/>
      </g>
     </g>
     <g id="line2d_11">
      <g>
       <use style="stroke:#000000;stroke-width:0.5;" x="220.628571429" xlink:href="#m20df569053" y="57.6"/>
      </g>
     </g>
     <g id="text_2">
      <!-- 5 -->
      <defs>
       <path d="M 10.796875 72.90625 
L 49.515625 72.90625 
L 49.515625 64.59375 
L 19.828125 64.59375 
L 19.828125 46.734375 
Q 21.96875 47.46875 24.109375 47.828125 
Q 26.265625 48.1875 28.421875 48.1875 
Q 40.625 48.1875 47.75 41.5 
Q 54.890625 34.8125 54.890625 23.390625 
Q 54.890625 11.625 47.5625 5.09375 
Q 40.234375 -1.421875 26.90625 -1.421875 
Q 22.3125 -1.421875 17.546875 -0.640625 
Q 12.796875 0.140625 7.71875 1.703125 
L 7.71875 11.625 
Q 12.109375 9.234375 16.796875 8.0625 
Q 21.484375 6.890625 26.703125 6.890625 
Q 35.15625 6.890625 40.078125 11.328125 
Q 45.015625 15.765625 45.015625 23.390625 
Q 45.015625 31 40.078125 35.4375 
Q 35.15625 39.890625 26.703125 39.890625 
Q 22.75 39.890625 18.8125 39.015625 
Q 14.890625 38.140625 10.796875 36.28125 
z
" id="BitstreamVeraSans-Roman-35"/>
      </defs>
      <g transform="translate(217.447321429 515.5984375)scale(0.1 -0.1)">
       <use xlink:href="#BitstreamVeraSans-Roman-35"/>
      </g>
     </g>
    </g>
    <g id="xtick_3">
     <g id="line2d_12">
      <g>
       <use style="stroke:#000000;stroke-width:0.5;" x="324.257142857" xlink:href="#ma144f5c31d" y="504.0"/>
      </g>
     </g>
     <g id="line2d_13">
      <g>
       <use style="stroke:#000000;stroke-width:0.5;" x="324.257142857" xlink:href="#m20df569053" y="57.6"/>
      </g>
     </g>
     <g id="text_3">
      <!-- 10 -->
      <defs>
       <path d="M 12.40625 8.296875 
L 28.515625 8.296875 
L 28.515625 63.921875 
L 10.984375 60.40625 
L 10.984375 69.390625 
L 28.421875 72.90625 
L 38.28125 72.90625 
L 38.28125 8.296875 
L 54.390625 8.296875 
L 54.390625 0 
L 12.40625 0 
z
" id="BitstreamVeraSans-Roman-31"/>
      </defs>
      <g transform="translate(317.894642857 515.5984375)scale(0.1 -0.1)">
       <use xlink:href="#BitstreamVeraSans-Roman-31"/>
       <use x="63.623046875" xlink:href="#BitstreamVeraSans-Roman-30"/>
      </g>
     </g>
    </g>
    <g id="xtick_4">
     <g id="line2d_14">
      <g>
       <use style="stroke:#000000;stroke-width:0.5;" x="427.885714286" xlink:href="#ma144f5c31d" y="504.0"/>
      </g>
     </g>
     <g id="line2d_15">
      <g>
       <use style="stroke:#000000;stroke-width:0.5;" x="427.885714286" xlink:href="#m20df569053" y="57.6"/>
      </g>
     </g>
     <g id="text_4">
      <!-- 15 -->
      <g transform="translate(421.523214286 515.5984375)scale(0.1 -0.1)">
       <use xlink:href="#BitstreamVeraSans-Roman-31"/>
       <use x="63.623046875" xlink:href="#BitstreamVeraSans-Roman-35"/>
      </g>
     </g>
    </g>
    <g id="xtick_5">
     <g id="line2d_16">
      <g>
       <use style="stroke:#000000;stroke-width:0.5;" x="531.514285714" xlink:href="#ma144f5c31d" y="504.0"/>
      </g>
     </g>
     <g id="line2d_17">
      <g>
       <use style="stroke:#000000;stroke-width:0.5;" x="531.514285714" xlink:href="#m20df569053" y="57.6"/>
      </g>
     </g>
     <g id="text_5">
      <!-- 20 -->
      <defs>
       <path d="M 19.1875 8.296875 
L 53.609375 8.296875 
L 53.609375 0 
L 7.328125 0 
L 7.328125 8.296875 
Q 12.9375 14.109375 22.625 23.890625 
Q 32.328125 33.6875 34.8125 36.53125 
Q 39.546875 41.84375 41.421875 45.53125 
Q 43.3125 49.21875 43.3125 52.78125 
Q 43.3125 58.59375 39.234375 62.25 
Q 35.15625 65.921875 28.609375 65.921875 
Q 23.96875 65.921875 18.8125 64.3125 
Q 13.671875 62.703125 7.8125 59.421875 
L 7.8125 69.390625 
Q 13.765625 71.78125 18.9375 73 
Q 24.125 74.21875 28.421875 74.21875 
Q 39.75 74.21875 46.484375 68.546875 
Q 53.21875 62.890625 53.21875 53.421875 
Q 53.21875 48.921875 51.53125 44.890625 
Q 49.859375 40.875 45.40625 35.40625 
Q 44.1875 33.984375 37.640625 27.21875 
Q 31.109375 20.453125 19.1875 8.296875 
" id="BitstreamVeraSans-Roman-32"/>
      </defs>
      <g transform="translate(525.151785714 515.5984375)scale(0.1 -0.1)">
       <use xlink:href="#BitstreamVeraSans-Roman-32"/>
       <use x="63.623046875" xlink:href="#BitstreamVeraSans-Roman-30"/>
      </g>
     </g>
    </g>
    <g id="xtick_6">
     <g id="line2d_18">
      <g>
       <use style="stroke:#000000;stroke-width:0.5;" x="635.142857143" xlink:href="#ma144f5c31d" y="504.0"/>
      </g>
     </g>
     <g id="line2d_19">
      <g>
       <use style="stroke:#000000;stroke-width:0.5;" x="635.142857143" xlink:href="#m20df569053" y="57.6"/>
      </g>
     </g>
     <g id="text_6">
      <!-- 25 -->
      <g transform="translate(628.780357143 515.5984375)scale(0.1 -0.1)">
       <use xlink:href="#BitstreamVeraSans-Roman-32"/>
       <use x="63.623046875" xlink:href="#BitstreamVeraSans-Roman-35"/>
      </g>
     </g>
    </g>
    <g id="xtick_7">
     <g id="line2d_20">
      <g>
       <use style="stroke:#000000;stroke-width:0.5;" x="738.771428571" xlink:href="#ma144f5c31d" y="504.0"/>
      </g>
     </g>
     <g id="line2d_21">
      <g>
       <use style="stroke:#000000;stroke-width:0.5;" x="738.771428571" xlink:href="#m20df569053" y="57.6"/>
      </g>
     </g>
     <g id="text_7">
      <!-- 30 -->
      <defs>
       <path d="M 40.578125 39.3125 
Q 47.65625 37.796875 51.625 33 
Q 55.609375 28.21875 55.609375 21.1875 
Q 55.609375 10.40625 48.1875 4.484375 
Q 40.765625 -1.421875 27.09375 -1.421875 
Q 22.515625 -1.421875 17.65625 -0.515625 
Q 12.796875 0.390625 7.625 2.203125 
L 7.625 11.71875 
Q 11.71875 9.328125 16.59375 8.109375 
Q 21.484375 6.890625 26.8125 6.890625 
Q 36.078125 6.890625 40.9375 10.546875 
Q 45.796875 14.203125 45.796875 21.1875 
Q 45.796875 27.640625 41.28125 31.265625 
Q 36.765625 34.90625 28.71875 34.90625 
L 20.21875 34.90625 
L 20.21875 43.015625 
L 29.109375 43.015625 
Q 36.375 43.015625 40.234375 45.921875 
Q 44.09375 48.828125 44.09375 54.296875 
Q 44.09375 59.90625 40.109375 62.90625 
Q 36.140625 65.921875 28.71875 65.921875 
Q 24.65625 65.921875 20.015625 65.03125 
Q 15.375 64.15625 9.8125 62.3125 
L 9.8125 71.09375 
Q 15.4375 72.65625 20.34375 73.4375 
Q 25.25 74.21875 29.59375 74.21875 
Q 40.828125 74.21875 47.359375 69.109375 
Q 53.90625 64.015625 53.90625 55.328125 
Q 53.90625 49.265625 50.4375 45.09375 
Q 46.96875 40.921875 40.578125 39.3125 
" id="BitstreamVeraSans-Roman-33"/>
      </defs>
      <g transform="translate(732.408928571 515.5984375)scale(0.1 -0.1)">
       <use xlink:href="#BitstreamVeraSans-Roman-33"/>
       <use x="63.623046875" xlink:href="#BitstreamVeraSans-Roman-30"/>
      </g>
     </g>
    </g>
    <g id="xtick_8">
     <g id="line2d_22">
      <g>
       <use style="stroke:#000000;stroke-width:0.5;" x="842.4" xlink:href="#ma144f5c31d" y="504.0"/>
      </g>
     </g>
     <g id="line2d_23">
      <g>
       <use style="stroke:#000000;stroke-width:0.5;" x="842.4" xlink:href="#m20df569053" y="57.6"/>
      </g>
     </g>
     <g id="text_8">
      <!-- 35 -->
      <g transform="translate(836.0375 515.5984375)scale(0.1 -0.1)">
       <use xlink:href="#BitstreamVeraSans-Roman-33"/>
       <use x="63.623046875" xlink:href="#BitstreamVeraSans-Roman-35"/>
      </g>
     </g>
    </g>
    <g id="text_9">
     <!-- PTS -->
     <defs>
      <path d="M 53.515625 70.515625 
L 53.515625 60.890625 
Q 47.90625 63.578125 42.921875 64.890625 
Q 37.9375 66.21875 33.296875 66.21875 
Q 25.25 66.21875 20.875 63.09375 
Q 16.5 59.96875 16.5 54.203125 
Q 16.5 49.359375 19.40625 46.890625 
Q 22.3125 44.4375 30.421875 42.921875 
L 36.375 41.703125 
Q 47.40625 39.59375 52.65625 34.296875 
Q 57.90625 29 57.90625 20.125 
Q 57.90625 9.515625 50.796875 4.046875 
Q 43.703125 -1.421875 29.984375 -1.421875 
Q 24.8125 -1.421875 18.96875 -0.25 
Q 13.140625 0.921875 6.890625 3.21875 
L 6.890625 13.375 
Q 12.890625 10.015625 18.65625 8.296875 
Q 24.421875 6.59375 29.984375 6.59375 
Q 38.421875 6.59375 43.015625 9.90625 
Q 47.609375 13.234375 47.609375 19.390625 
Q 47.609375 24.75 44.3125 27.78125 
Q 41.015625 30.8125 33.5 32.328125 
L 27.484375 33.5 
Q 16.453125 35.6875 11.515625 40.375 
Q 6.59375 45.0625 6.59375 53.421875 
Q 6.59375 63.09375 13.40625 68.65625 
Q 20.21875 74.21875 32.171875 74.21875 
Q 37.3125 74.21875 42.625 73.28125 
Q 47.953125 72.359375 53.515625 70.515625 
" id="BitstreamVeraSans-Roman-53"/>
      <path d="M -0.296875 72.90625 
L 61.375 72.90625 
L 61.375 64.59375 
L 35.5 64.59375 
L 35.5 0 
L 25.59375 0 
L 25.59375 64.59375 
L -0.296875 64.59375 
z
" id="BitstreamVeraSans-Roman-54"/>
      <path d="M 19.671875 64.796875 
L 19.671875 37.40625 
L 32.078125 37.40625 
Q 38.96875 37.40625 42.71875 40.96875 
Q 46.484375 44.53125 46.484375 51.125 
Q 46.484375 57.671875 42.71875 61.234375 
Q 38.96875 64.796875 32.078125 64.796875 
z
M 9.8125 72.90625 
L 32.078125 72.90625 
Q 44.34375 72.90625 50.609375 67.359375 
Q 56.890625 61.8125 56.890625 51.125 
Q 56.890625 40.328125 50.609375 34.8125 
Q 44.34375 29.296875 32.078125 29.296875 
L 19.671875 29.296875 
L 19.671875 0 
L 9.8125 0 
z
" id="BitstreamVeraSans-Roman-50"/>
     </defs>
     <g transform="translate(470.45703125 530.2765625)scale(0.1 -0.1)">
      <use xlink:href="#BitstreamVeraSans-Roman-50"/>
      <use x="60.302734375" xlink:href="#BitstreamVeraSans-Roman-54"/>
      <use x="121.38671875" xlink:href="#BitstreamVeraSans-Roman-53"/>
     </g>
    </g>
   </g>
   <g id="matplotlib.axis_2">
    <g id="ytick_1">
     <g id="line2d_24">
      <defs>
       <path d="M 0 0 
L 4 0 
" id="m71a8aeb66c" style="stroke:#000000;stroke-width:0.5;"/>
      </defs>
      <g>
       <use style="stroke:#000000;stroke-width:0.5;" x="117.0" xlink:href="#m71a8aeb66c" y="504.0"/>
      </g>
     </g>
     <g id="line2d_25">
      <defs>
       <path d="M 0 0 
L -4 0 
" id="md3480be086" style="stroke:#000000;stroke-width:0.5;"/>
      </defs>
      <g>
       <use style="stroke:#000000;stroke-width:0.5;" x="842.4" xlink:href="#md3480be086" y="504.0"/>
      </g>
     </g>
     <g id="text_10">
      <!-- 0.0 -->
      <defs>
       <path d="M 10.6875 12.40625 
L 21 12.40625 
L 21 0 
L 10.6875 0 
z
" id="BitstreamVeraSans-Roman-2e"/>
      </defs>
      <g transform="translate(97.096875 506.759375)scale(0.1 -0.1)">
       <use xlink:href="#BitstreamVeraSans-Roman-30"/>
       <use x="63.623046875" xlink:href="#BitstreamVeraSans-Roman-2e"/>
       <use x="95.41015625" xlink:href="#BitstreamVeraSans-Roman-30"/>
      </g>
     </g>
    </g>
    <g id="ytick_2">
     <g id="line2d_26">
      <g>
       <use style="stroke:#000000;stroke-width:0.5;" x="117.0" xlink:href="#m71a8aeb66c" y="429.6"/>
      </g>
     </g>
     <g id="line2d_27">
      <g>
       <use style="stroke:#000000;stroke-width:0.5;" x="842.4" xlink:href="#md3480be086" y="429.6"/>
      </g>
     </g>
     <g id="text_11">
      <!-- 0.5 -->
      <g transform="translate(97.096875 432.359375)scale(0.1 -0.1)">
       <use xlink:href="#BitstreamVeraSans-Roman-30"/>
       <use x="63.623046875" xlink:href="#BitstreamVeraSans-Roman-2e"/>
       <use x="95.41015625" xlink:href="#BitstreamVeraSans-Roman-35"/>
      </g>
     </g>
    </g>
    <g id="ytick_3">
     <g id="line2d_28">
      <g>
       <use style="stroke:#000000;stroke-width:0.5;" x="117.0" xlink:href="#m71a8aeb66c" y="355.2"/>
      </g>
     </g>
     <g id="line2d_29">
      <g>
       <use style="stroke:#000000;stroke-width:0.5;" x="842.4" xlink:href="#md3480be086" y="355.2"/>
      </g>
     </g>
     <g id="text_12">
      <!-- 1.0 -->
      <g transform="translate(97.096875 357.959375)scale(0.1 -0.1)">
       <use xlink:href="#BitstreamVeraSans-Roman-31"/>
       <use x="63.623046875" xlink:href="#BitstreamVeraSans-Roman-2e"/>
       <use x="95.41015625" xlink:href="#BitstreamVeraSans-Roman-30"/>
      </g>
     </g>
    </g>
    <g id="ytick_4">
     <g id="line2d_30">
      <g>
       <use style="stroke:#000000;stroke-width:0.5;" x="117.0" xlink:href="#m71a8aeb66c" y="280.8"/>
      </g>
     </g>
     <g id="line2d_31">
      <g>
       <use style="stroke:#000000;stroke-width:0.5;" x="842.4" xlink:href="#md3480be086" y="280.8"/>
      </g>
     </g>
     <g id="text_13">
      <!-- 1.5 -->
      <g transform="translate(97.096875 283.559375)scale(0.1 -0.1)">
       <use xlink:href="#BitstreamVeraSans-Roman-31"/>
       <use x="63.623046875" xlink:href="#BitstreamVeraSans-Roman-2e"/>
       <use x="95.41015625" xlink:href="#BitstreamVeraSans-Roman-35"/>
      </g>
     </g>
    </g>
    <g id="ytick_5">
     <g id="line2d_32">
      <g>
       <use style="stroke:#000000;stroke-width:0.5;" x="117.0" xlink:href="#m71a8aeb66c" y="206.4"/>
      </g>
     </g>
     <g id="line2d_33">
      <g>
       <use style="stroke:#000000;stroke-width:0.5;" x="842.4" xlink:href="#md3480be086" y="206.4"/>
      </g>
     </g>
     <g id="text_14">
      <!-- 2.0 -->
      <g transform="translate(97.096875 209.159375)scale(0.1 -0.1)">
       <use xlink:href="#BitstreamVeraSans-Roman-32"/>
       <use x="63.623046875" xlink:href="#BitstreamVeraSans-Roman-2e"/>
       <use x="95.41015625" xlink:href="#BitstreamVeraSans-Roman-30"/>
      </g>
     </g>
    </g>
    <g id="ytick_6">
     <g id="line2d_34">
      <g>
       <use style="stroke:#000000;stroke-width:0.5;" x="117.0" xlink:href="#m71a8aeb66c" y="132.0"/>
      </g>
     </g>
     <g id="line2d_35">
      <g>
       <use style="stroke:#000000;stroke-width:0.5;" x="842.4" xlink:href="#md3480be086" y="132.0"/>
      </g>
     </g>
     <g id="text_15">
      <!-- 2.5 -->
      <g transform="translate(97.096875 134.759375)scale(0.1 -0.1)">
       <use xlink:href="#BitstreamVeraSans-Roman-32"/>
       <use x="63.623046875" xlink:href="#BitstreamVeraSans-Roman-2e"/>
       <use x="95.41015625" xlink:href="#BitstreamVeraSans-Roman-35"/>
      </g>
     </g>
    </g>
    <g id="ytick_7">
     <g id="line2d_36">
      <g>
       <use style="stroke:#000000;stroke-width:0.5;" x="117.0" xlink:href="#m71a8aeb66c" y="57.6"/>
      </g>
     </g>
     <g id="line2d_37">
      <g>
       <use style="stroke:#000000;stroke-width:0.5;" x="842.4" xlink:href="#md3480be086" y="57.6"/>
      </g>
     </g>
     <g id="text_16">
      <!-- 3.0 -->
      <g transform="translate(97.096875 60.359375)scale(0.1 -0.1)">
       <use xlink:href="#BitstreamVeraSans-Roman-33"/>
       <use x="63.623046875" xlink:href="#BitstreamVeraSans-Roman-2e"/>
       <use x="95.41015625" xlink:href="#BitstreamVeraSans-Roman-30"/>
      </g>
     </g>
    </g>
    <g id="text_17">
     <!-- Earnings in Million Dollar -->
     <defs>
      <path d="M 45.40625 27.984375 
Q 45.40625 37.75 41.375 43.109375 
Q 37.359375 48.484375 30.078125 48.484375 
Q 22.859375 48.484375 18.828125 43.109375 
Q 14.796875 37.75 14.796875 27.984375 
Q 14.796875 18.265625 18.828125 12.890625 
Q 22.859375 7.515625 30.078125 7.515625 
Q 37.359375 7.515625 41.375 12.890625 
Q 45.40625 18.265625 45.40625 27.984375 
M 54.390625 6.78125 
Q 54.390625 -7.171875 48.1875 -13.984375 
Q 42 -20.796875 29.203125 -20.796875 
Q 24.46875 -20.796875 20.265625 -20.09375 
Q 16.0625 -19.390625 12.109375 -17.921875 
L 12.109375 -9.1875 
Q 16.0625 -11.328125 19.921875 -12.34375 
Q 23.78125 -13.375 27.78125 -13.375 
Q 36.625 -13.375 41.015625 -8.765625 
Q 45.40625 -4.15625 45.40625 5.171875 
L 45.40625 9.625 
Q 42.625 4.78125 38.28125 2.390625 
Q 33.9375 0 27.875 0 
Q 17.828125 0 11.671875 7.65625 
Q 5.515625 15.328125 5.515625 27.984375 
Q 5.515625 40.671875 11.671875 48.328125 
Q 17.828125 56 27.875 56 
Q 33.9375 56 38.28125 53.609375 
Q 42.625 51.21875 45.40625 46.390625 
L 45.40625 54.6875 
L 54.390625 54.6875 
z
" id="BitstreamVeraSans-Roman-67"/>
      <path d="M 19.671875 64.796875 
L 19.671875 8.109375 
L 31.59375 8.109375 
Q 46.6875 8.109375 53.6875 14.9375 
Q 60.6875 21.78125 60.6875 36.53125 
Q 60.6875 51.171875 53.6875 57.984375 
Q 46.6875 64.796875 31.59375 64.796875 
z
M 9.8125 72.90625 
L 30.078125 72.90625 
Q 51.265625 72.90625 61.171875 64.09375 
Q 71.09375 55.28125 71.09375 36.53125 
Q 71.09375 17.671875 61.125 8.828125 
Q 51.171875 0 30.078125 0 
L 9.8125 0 
z
" id="BitstreamVeraSans-Roman-44"/>
      <path d="M 54.890625 33.015625 
L 54.890625 0 
L 45.90625 0 
L 45.90625 32.71875 
Q 45.90625 40.484375 42.875 44.328125 
Q 39.84375 48.1875 33.796875 48.1875 
Q 26.515625 48.1875 22.3125 43.546875 
Q 18.109375 38.921875 18.109375 30.90625 
L 18.109375 0 
L 9.078125 0 
L 9.078125 54.6875 
L 18.109375 54.6875 
L 18.109375 46.1875 
Q 21.34375 51.125 25.703125 53.5625 
Q 30.078125 56 35.796875 56 
Q 45.21875 56 50.046875 50.171875 
Q 54.890625 44.34375 54.890625 33.015625 
" id="BitstreamVeraSans-Roman-6e"/>
      <path d="M 9.421875 75.984375 
L 18.40625 75.984375 
L 18.40625 0 
L 9.421875 0 
z
" id="BitstreamVeraSans-Roman-6c"/>
      <path d="M 44.28125 53.078125 
L 44.28125 44.578125 
Q 40.484375 46.53125 36.375 47.5 
Q 32.28125 48.484375 27.875 48.484375 
Q 21.1875 48.484375 17.84375 46.4375 
Q 14.5 44.390625 14.5 40.28125 
Q 14.5 37.15625 16.890625 35.375 
Q 19.28125 33.59375 26.515625 31.984375 
L 29.59375 31.296875 
Q 39.15625 29.25 43.1875 25.515625 
Q 47.21875 21.78125 47.21875 15.09375 
Q 47.21875 7.46875 41.1875 3.015625 
Q 35.15625 -1.421875 24.609375 -1.421875 
Q 20.21875 -1.421875 15.453125 -0.5625 
Q 10.6875 0.296875 5.421875 2 
L 5.421875 11.28125 
Q 10.40625 8.6875 15.234375 7.390625 
Q 20.0625 6.109375 24.8125 6.109375 
Q 31.15625 6.109375 34.5625 8.28125 
Q 37.984375 10.453125 37.984375 14.40625 
Q 37.984375 18.0625 35.515625 20.015625 
Q 33.0625 21.96875 24.703125 23.78125 
L 21.578125 24.515625 
Q 13.234375 26.265625 9.515625 29.90625 
Q 5.8125 33.546875 5.8125 39.890625 
Q 5.8125 47.609375 11.28125 51.796875 
Q 16.75 56 26.8125 56 
Q 31.78125 56 36.171875 55.265625 
Q 40.578125 54.546875 44.28125 53.078125 
" id="BitstreamVeraSans-Roman-73"/>
      <path id="BitstreamVeraSans-Roman-20"/>
      <path d="M 9.421875 54.6875 
L 18.40625 54.6875 
L 18.40625 0 
L 9.421875 0 
z
M 9.421875 75.984375 
L 18.40625 75.984375 
L 18.40625 64.59375 
L 9.421875 64.59375 
z
" id="BitstreamVeraSans-Roman-69"/>
      <path d="M 41.109375 46.296875 
Q 39.59375 47.171875 37.8125 47.578125 
Q 36.03125 48 33.890625 48 
Q 26.265625 48 22.1875 43.046875 
Q 18.109375 38.09375 18.109375 28.8125 
L 18.109375 0 
L 9.078125 0 
L 9.078125 54.6875 
L 18.109375 54.6875 
L 18.109375 46.1875 
Q 20.953125 51.171875 25.484375 53.578125 
Q 30.03125 56 36.53125 56 
Q 37.453125 56 38.578125 55.875 
Q 39.703125 55.765625 41.0625 55.515625 
z
" id="BitstreamVeraSans-Roman-72"/>
      <path d="M 34.28125 27.484375 
Q 23.390625 27.484375 19.1875 25 
Q 14.984375 22.515625 14.984375 16.5 
Q 14.984375 11.71875 18.140625 8.90625 
Q 21.296875 6.109375 26.703125 6.109375 
Q 34.1875 6.109375 38.703125 11.40625 
Q 43.21875 16.703125 43.21875 25.484375 
L 43.21875 27.484375 
z
M 52.203125 31.203125 
L 52.203125 0 
L 43.21875 0 
L 43.21875 8.296875 
Q 40.140625 3.328125 35.546875 0.953125 
Q 30.953125 -1.421875 24.3125 -1.421875 
Q 15.921875 -1.421875 10.953125 3.296875 
Q 6 8.015625 6 15.921875 
Q 6 25.140625 12.171875 29.828125 
Q 18.359375 34.515625 30.609375 34.515625 
L 43.21875 34.515625 
L 43.21875 35.40625 
Q 43.21875 41.609375 39.140625 45 
Q 35.0625 48.390625 27.6875 48.390625 
Q 23 48.390625 18.546875 47.265625 
Q 14.109375 46.140625 10.015625 43.890625 
L 10.015625 52.203125 
Q 14.9375 54.109375 19.578125 55.046875 
Q 24.21875 56 28.609375 56 
Q 40.484375 56 46.34375 49.84375 
Q 52.203125 43.703125 52.203125 31.203125 
" id="BitstreamVeraSans-Roman-61"/>
      <path d="M 30.609375 48.390625 
Q 23.390625 48.390625 19.1875 42.75 
Q 14.984375 37.109375 14.984375 27.296875 
Q 14.984375 17.484375 19.15625 11.84375 
Q 23.34375 6.203125 30.609375 6.203125 
Q 37.796875 6.203125 41.984375 11.859375 
Q 46.1875 17.53125 46.1875 27.296875 
Q 46.1875 37.015625 41.984375 42.703125 
Q 37.796875 48.390625 30.609375 48.390625 
M 30.609375 56 
Q 42.328125 56 49.015625 48.375 
Q 55.71875 40.765625 55.71875 27.296875 
Q 55.71875 13.875 49.015625 6.21875 
Q 42.328125 -1.421875 30.609375 -1.421875 
Q 18.84375 -1.421875 12.171875 6.21875 
Q 5.515625 13.875 5.515625 27.296875 
Q 5.515625 40.765625 12.171875 48.375 
Q 18.84375 56 30.609375 56 
" id="BitstreamVeraSans-Roman-6f"/>
      <path d="M 9.8125 72.90625 
L 24.515625 72.90625 
L 43.109375 23.296875 
L 61.8125 72.90625 
L 76.515625 72.90625 
L 76.515625 0 
L 66.890625 0 
L 66.890625 64.015625 
L 48.09375 14.015625 
L 38.1875 14.015625 
L 19.390625 64.015625 
L 19.390625 0 
L 9.8125 0 
z
" id="BitstreamVeraSans-Roman-4d"/>
      <path d="M 9.8125 72.90625 
L 55.90625 72.90625 
L 55.90625 64.59375 
L 19.671875 64.59375 
L 19.671875 43.015625 
L 54.390625 43.015625 
L 54.390625 34.71875 
L 19.671875 34.71875 
L 19.671875 8.296875 
L 56.78125 8.296875 
L 56.78125 0 
L 9.8125 0 
z
" id="BitstreamVeraSans-Roman-45"/>
     </defs>
     <g transform="translate(90.0171875 342.8140625)rotate(-90.0)scale(0.1 -0.1)">
      <use xlink:href="#BitstreamVeraSans-Roman-45"/>
      <use x="63.18359375" xlink:href="#BitstreamVeraSans-Roman-61"/>
      <use x="124.462890625" xlink:href="#BitstreamVeraSans-Roman-72"/>
      <use x="165.560546875" xlink:href="#BitstreamVeraSans-Roman-6e"/>
      <use x="228.939453125" xlink:href="#BitstreamVeraSans-Roman-69"/>
      <use x="256.72265625" xlink:href="#BitstreamVeraSans-Roman-6e"/>
      <use x="320.1015625" xlink:href="#BitstreamVeraSans-Roman-67"/>
      <use x="383.578125" xlink:href="#BitstreamVeraSans-Roman-73"/>
      <use x="435.677734375" xlink:href="#BitstreamVeraSans-Roman-20"/>
      <use x="467.46484375" xlink:href="#BitstreamVeraSans-Roman-69"/>
      <use x="495.248046875" xlink:href="#BitstreamVeraSans-Roman-6e"/>
      <use x="558.626953125" xlink:href="#BitstreamVeraSans-Roman-20"/>
      <use x="590.4140625" xlink:href="#BitstreamVeraSans-Roman-4d"/>
      <use x="676.693359375" xlink:href="#BitstreamVeraSans-Roman-69"/>
      <use x="704.4765625" xlink:href="#BitstreamVeraSans-Roman-6c"/>
      <use x="732.259765625" xlink:href="#BitstreamVeraSans-Roman-6c"/>
      <use x="760.04296875" xlink:href="#BitstreamVeraSans-Roman-69"/>
      <use x="787.826171875" xlink:href="#BitstreamVeraSans-Roman-6f"/>
      <use x="849.0078125" xlink:href="#BitstreamVeraSans-Roman-6e"/>
      <use x="912.38671875" xlink:href="#BitstreamVeraSans-Roman-20"/>
      <use x="944.173828125" xlink:href="#BitstreamVeraSans-Roman-44"/>
      <use x="1021.17578125" xlink:href="#BitstreamVeraSans-Roman-6f"/>
      <use x="1082.357421875" xlink:href="#BitstreamVeraSans-Roman-6c"/>
      <use x="1110.140625" xlink:href="#BitstreamVeraSans-Roman-6c"/>
      <use x="1137.923828125" xlink:href="#BitstreamVeraSans-Roman-61"/>
      <use x="1199.203125" xlink:href="#BitstreamVeraSans-Roman-72"/>
     </g>
    </g>
    <g id="text_18">
     <!-- 1e7 -->
     <defs>
      <path d="M 56.203125 29.59375 
L 56.203125 25.203125 
L 14.890625 25.203125 
Q 15.484375 15.921875 20.484375 11.0625 
Q 25.484375 6.203125 34.421875 6.203125 
Q 39.59375 6.203125 44.453125 7.46875 
Q 49.3125 8.734375 54.109375 11.28125 
L 54.109375 2.78125 
Q 49.265625 0.734375 44.1875 -0.34375 
Q 39.109375 -1.421875 33.890625 -1.421875 
Q 20.796875 -1.421875 13.15625 6.1875 
Q 5.515625 13.8125 5.515625 26.8125 
Q 5.515625 40.234375 12.765625 48.109375 
Q 20.015625 56 32.328125 56 
Q 43.359375 56 49.78125 48.890625 
Q 56.203125 41.796875 56.203125 29.59375 
M 47.21875 32.234375 
Q 47.125 39.59375 43.09375 43.984375 
Q 39.0625 48.390625 32.421875 48.390625 
Q 24.90625 48.390625 20.390625 44.140625 
Q 15.875 39.890625 15.1875 32.171875 
z
" id="BitstreamVeraSans-Roman-65"/>
      <path d="M 8.203125 72.90625 
L 55.078125 72.90625 
L 55.078125 68.703125 
L 28.609375 0 
L 18.3125 0 
L 43.21875 64.59375 
L 8.203125 64.59375 
z
" id="BitstreamVeraSans-Roman-37"/>
     </defs>
     <g transform="translate(117.0 54.6)scale(0.1 -0.1)">
      <use xlink:href="#BitstreamVeraSans-Roman-31"/>
      <use x="63.623046875" xlink:href="#BitstreamVeraSans-Roman-65"/>
      <use x="125.146484375" xlink:href="#BitstreamVeraSans-Roman-37"/>
     </g>
    </g>
   </g>
   <g id="text_19">
    <!-- Stephen Curry scores well, but is poorly paid -->
    <defs>
     <path d="M 45.40625 46.390625 
L 45.40625 75.984375 
L 54.390625 75.984375 
L 54.390625 0 
L 45.40625 0 
L 45.40625 8.203125 
Q 42.578125 3.328125 38.25 0.953125 
Q 33.9375 -1.421875 27.875 -1.421875 
Q 17.96875 -1.421875 11.734375 6.484375 
Q 5.515625 14.40625 5.515625 27.296875 
Q 5.515625 40.1875 11.734375 48.09375 
Q 17.96875 56 27.875 56 
Q 33.9375 56 38.25 53.625 
Q 42.578125 51.265625 45.40625 46.390625 
M 14.796875 27.296875 
Q 14.796875 17.390625 18.875 11.75 
Q 22.953125 6.109375 30.078125 6.109375 
Q 37.203125 6.109375 41.296875 11.75 
Q 45.40625 17.390625 45.40625 27.296875 
Q 45.40625 37.203125 41.296875 42.84375 
Q 37.203125 48.484375 30.078125 48.484375 
Q 22.953125 48.484375 18.875 42.84375 
Q 14.796875 37.203125 14.796875 27.296875 
" id="BitstreamVeraSans-Roman-64"/>
     <path d="M 8.5 21.578125 
L 8.5 54.6875 
L 17.484375 54.6875 
L 17.484375 21.921875 
Q 17.484375 14.15625 20.5 10.265625 
Q 23.53125 6.390625 29.59375 6.390625 
Q 36.859375 6.390625 41.078125 11.03125 
Q 45.3125 15.671875 45.3125 23.6875 
L 45.3125 54.6875 
L 54.296875 54.6875 
L 54.296875 0 
L 45.3125 0 
L 45.3125 8.40625 
Q 42.046875 3.421875 37.71875 1 
Q 33.40625 -1.421875 27.6875 -1.421875 
Q 18.265625 -1.421875 13.375 4.4375 
Q 8.5 10.296875 8.5 21.578125 
" id="BitstreamVeraSans-Roman-75"/>
     <path d="M 18.3125 70.21875 
L 18.3125 54.6875 
L 36.8125 54.6875 
L 36.8125 47.703125 
L 18.3125 47.703125 
L 18.3125 18.015625 
Q 18.3125 11.328125 20.140625 9.421875 
Q 21.96875 7.515625 27.59375 7.515625 
L 36.8125 7.515625 
L 36.8125 0 
L 27.59375 0 
Q 17.1875 0 13.234375 3.875 
Q 9.28125 7.765625 9.28125 18.015625 
L 9.28125 47.703125 
L 2.6875 47.703125 
L 2.6875 54.6875 
L 9.28125 54.6875 
L 9.28125 70.21875 
z
" id="BitstreamVeraSans-Roman-74"/>
     <path d="M 48.6875 27.296875 
Q 48.6875 37.203125 44.609375 42.84375 
Q 40.53125 48.484375 33.40625 48.484375 
Q 26.265625 48.484375 22.1875 42.84375 
Q 18.109375 37.203125 18.109375 27.296875 
Q 18.109375 17.390625 22.1875 11.75 
Q 26.265625 6.109375 33.40625 6.109375 
Q 40.53125 6.109375 44.609375 11.75 
Q 48.6875 17.390625 48.6875 27.296875 
M 18.109375 46.390625 
Q 20.953125 51.265625 25.265625 53.625 
Q 29.59375 56 35.59375 56 
Q 45.5625 56 51.78125 48.09375 
Q 58.015625 40.1875 58.015625 27.296875 
Q 58.015625 14.40625 51.78125 6.484375 
Q 45.5625 -1.421875 35.59375 -1.421875 
Q 29.59375 -1.421875 25.265625 0.953125 
Q 20.953125 3.328125 18.109375 8.203125 
L 18.109375 0 
L 9.078125 0 
L 9.078125 75.984375 
L 18.109375 75.984375 
z
" id="BitstreamVeraSans-Roman-62"/>
     <path d="M 48.78125 52.59375 
L 48.78125 44.1875 
Q 44.96875 46.296875 41.140625 47.34375 
Q 37.3125 48.390625 33.40625 48.390625 
Q 24.65625 48.390625 19.8125 42.84375 
Q 14.984375 37.3125 14.984375 27.296875 
Q 14.984375 17.28125 19.8125 11.734375 
Q 24.65625 6.203125 33.40625 6.203125 
Q 37.3125 6.203125 41.140625 7.25 
Q 44.96875 8.296875 48.78125 10.40625 
L 48.78125 2.09375 
Q 45.015625 0.34375 40.984375 -0.53125 
Q 36.96875 -1.421875 32.421875 -1.421875 
Q 20.0625 -1.421875 12.78125 6.34375 
Q 5.515625 14.109375 5.515625 27.296875 
Q 5.515625 40.671875 12.859375 48.328125 
Q 20.21875 56 33.015625 56 
Q 37.15625 56 41.109375 55.140625 
Q 45.0625 54.296875 48.78125 52.59375 
" id="BitstreamVeraSans-Roman-63"/>
     <path d="M 4.203125 54.6875 
L 13.1875 54.6875 
L 24.421875 12.015625 
L 35.59375 54.6875 
L 46.1875 54.6875 
L 57.421875 12.015625 
L 68.609375 54.6875 
L 77.59375 54.6875 
L 63.28125 0 
L 52.6875 0 
L 40.921875 44.828125 
L 29.109375 0 
L 18.5 0 
z
" id="BitstreamVeraSans-Roman-77"/>
     <path d="M 11.71875 12.40625 
L 22.015625 12.40625 
L 22.015625 4 
L 14.015625 -11.625 
L 7.71875 -11.625 
L 11.71875 4 
z
" id="BitstreamVeraSans-Roman-2c"/>
     <path d="M 18.109375 8.203125 
L 18.109375 -20.796875 
L 9.078125 -20.796875 
L 9.078125 54.6875 
L 18.109375 54.6875 
L 18.109375 46.390625 
Q 20.953125 51.265625 25.265625 53.625 
Q 29.59375 56 35.59375 56 
Q 45.5625 56 51.78125 48.09375 
Q 58.015625 40.1875 58.015625 27.296875 
Q 58.015625 14.40625 51.78125 6.484375 
Q 45.5625 -1.421875 35.59375 -1.421875 
Q 29.59375 -1.421875 25.265625 0.953125 
Q 20.953125 3.328125 18.109375 8.203125 
M 48.6875 27.296875 
Q 48.6875 37.203125 44.609375 42.84375 
Q 40.53125 48.484375 33.40625 48.484375 
Q 26.265625 48.484375 22.1875 42.84375 
Q 18.109375 37.203125 18.109375 27.296875 
Q 18.109375 17.390625 22.1875 11.75 
Q 26.265625 6.109375 33.40625 6.109375 
Q 40.53125 6.109375 44.609375 11.75 
Q 48.6875 17.390625 48.6875 27.296875 
" id="BitstreamVeraSans-Roman-70"/>
     <path d="M 64.40625 67.28125 
L 64.40625 56.890625 
Q 59.421875 61.53125 53.78125 63.8125 
Q 48.140625 66.109375 41.796875 66.109375 
Q 29.296875 66.109375 22.65625 58.46875 
Q 16.015625 50.828125 16.015625 36.375 
Q 16.015625 21.96875 22.65625 14.328125 
Q 29.296875 6.6875 41.796875 6.6875 
Q 48.140625 6.6875 53.78125 8.984375 
Q 59.421875 11.28125 64.40625 15.921875 
L 64.40625 5.609375 
Q 59.234375 2.09375 53.4375 0.328125 
Q 47.65625 -1.421875 41.21875 -1.421875 
Q 24.65625 -1.421875 15.125 8.703125 
Q 5.609375 18.84375 5.609375 36.375 
Q 5.609375 53.953125 15.125 64.078125 
Q 24.65625 74.21875 41.21875 74.21875 
Q 47.75 74.21875 53.53125 72.484375 
Q 59.328125 70.75 64.40625 67.28125 
" id="BitstreamVeraSans-Roman-43"/>
     <path d="M 54.890625 33.015625 
L 54.890625 0 
L 45.90625 0 
L 45.90625 32.71875 
Q 45.90625 40.484375 42.875 44.328125 
Q 39.84375 48.1875 33.796875 48.1875 
Q 26.515625 48.1875 22.3125 43.546875 
Q 18.109375 38.921875 18.109375 30.90625 
L 18.109375 0 
L 9.078125 0 
L 9.078125 75.984375 
L 18.109375 75.984375 
L 18.109375 46.1875 
Q 21.34375 51.125 25.703125 53.5625 
Q 30.078125 56 35.796875 56 
Q 45.21875 56 50.046875 50.171875 
Q 54.890625 44.34375 54.890625 33.015625 
" id="BitstreamVeraSans-Roman-68"/>
     <path d="M 32.171875 -5.078125 
Q 28.375 -14.84375 24.75 -17.8125 
Q 21.140625 -20.796875 15.09375 -20.796875 
L 7.90625 -20.796875 
L 7.90625 -13.28125 
L 13.1875 -13.28125 
Q 16.890625 -13.28125 18.9375 -11.515625 
Q 21 -9.765625 23.484375 -3.21875 
L 25.09375 0.875 
L 2.984375 54.6875 
L 12.5 54.6875 
L 29.59375 11.921875 
L 46.6875 54.6875 
L 56.203125 54.6875 
z
" id="BitstreamVeraSans-Roman-79"/>
    </defs>
    <g transform="translate(345.1453125 52.6)scale(0.12 -0.12)">
     <use xlink:href="#BitstreamVeraSans-Roman-53"/>
     <use x="63.4765625" xlink:href="#BitstreamVeraSans-Roman-74"/>
     <use x="102.685546875" xlink:href="#BitstreamVeraSans-Roman-65"/>
     <use x="164.208984375" xlink:href="#BitstreamVeraSans-Roman-70"/>
     <use x="227.685546875" xlink:href="#BitstreamVeraSans-Roman-68"/>
     <use x="291.064453125" xlink:href="#BitstreamVeraSans-Roman-65"/>
     <use x="352.587890625" xlink:href="#BitstreamVeraSans-Roman-6e"/>
     <use x="415.966796875" xlink:href="#BitstreamVeraSans-Roman-20"/>
     <use x="447.75390625" xlink:href="#BitstreamVeraSans-Roman-43"/>
     <use x="517.578125" xlink:href="#BitstreamVeraSans-Roman-75"/>
     <use x="580.95703125" xlink:href="#BitstreamVeraSans-Roman-72"/>
     <use x="622.0546875" xlink:href="#BitstreamVeraSans-Roman-72"/>
     <use x="663.16796875" xlink:href="#BitstreamVeraSans-Roman-79"/>
     <use x="722.34765625" xlink:href="#BitstreamVeraSans-Roman-20"/>
     <use x="754.134765625" xlink:href="#BitstreamVeraSans-Roman-73"/>
     <use x="806.234375" xlink:href="#BitstreamVeraSans-Roman-63"/>
     <use x="861.21484375" xlink:href="#BitstreamVeraSans-Roman-6f"/>
     <use x="922.396484375" xlink:href="#BitstreamVeraSans-Roman-72"/>
     <use x="963.478515625" xlink:href="#BitstreamVeraSans-Roman-65"/>
     <use x="1025.001953125" xlink:href="#BitstreamVeraSans-Roman-73"/>
     <use x="1077.1015625" xlink:href="#BitstreamVeraSans-Roman-20"/>
     <use x="1108.888671875" xlink:href="#BitstreamVeraSans-Roman-77"/>
     <use x="1190.67578125" xlink:href="#BitstreamVeraSans-Roman-65"/>
     <use x="1252.19921875" xlink:href="#BitstreamVeraSans-Roman-6c"/>
     <use x="1279.982421875" xlink:href="#BitstreamVeraSans-Roman-6c"/>
     <use x="1307.765625" xlink:href="#BitstreamVeraSans-Roman-2c"/>
     <use x="1339.552734375" xlink:href="#BitstreamVeraSans-Roman-20"/>
     <use x="1371.33984375" xlink:href="#BitstreamVeraSans-Roman-62"/>
     <use x="1434.81640625" xlink:href="#BitstreamVeraSans-Roman-75"/>
     <use x="1498.1953125" xlink:href="#BitstreamVeraSans-Roman-74"/>
     <use x="1537.404296875" xlink:href="#BitstreamVeraSans-Roman-20"/>
     <use x="1569.19140625" xlink:href="#BitstreamVeraSans-Roman-69"/>
     <use x="1596.974609375" xlink:href="#BitstreamVeraSans-Roman-73"/>
     <use x="1649.07421875" xlink:href="#BitstreamVeraSans-Roman-20"/>
     <use x="1680.861328125" xlink:href="#BitstreamVeraSans-Roman-70"/>
     <use x="1744.337890625" xlink:href="#BitstreamVeraSans-Roman-6f"/>
     <use x="1805.51953125" xlink:href="#BitstreamVeraSans-Roman-6f"/>
     <use x="1866.701171875" xlink:href="#BitstreamVeraSans-Roman-72"/>
     <use x="1907.814453125" xlink:href="#BitstreamVeraSans-Roman-6c"/>
     <use x="1935.59765625" xlink:href="#BitstreamVeraSans-Roman-79"/>
     <use x="1994.77734375" xlink:href="#BitstreamVeraSans-Roman-20"/>
     <use x="2026.564453125" xlink:href="#BitstreamVeraSans-Roman-70"/>
     <use x="2090.041015625" xlink:href="#BitstreamVeraSans-Roman-61"/>
     <use x="2151.3203125" xlink:href="#BitstreamVeraSans-Roman-69"/>
     <use x="2179.103515625" xlink:href="#BitstreamVeraSans-Roman-64"/>
    </g>
   </g>
   <g id="legend_1">
    <g id="patch_7">
     <path d="M 706.516875 102.4275 
L 836.4 102.4275 
L 836.4 63.6 
L 706.516875 63.6 
z
" style="fill:#ffffff;stroke:#000000;stroke-linejoin:miter;"/>
    </g>
    <g id="line2d_38"/>
    <g id="line2d_39">
     <g>
      <use style="fill:#bfbf00;stroke:#000000;stroke-width:18.0;" x="723.316875" xlink:href="#mb1d74fb7a3" y="73.318125"/>
     </g>
    </g>
    <g id="text_20">
     <!-- Stephen Curry -->
     <g transform="translate(744.916875 77.518125)scale(0.12 -0.12)">
      <use xlink:href="#BitstreamVeraSans-Roman-53"/>
      <use x="63.4765625" xlink:href="#BitstreamVeraSans-Roman-74"/>
      <use x="102.685546875" xlink:href="#BitstreamVeraSans-Roman-65"/>
      <use x="164.208984375" xlink:href="#BitstreamVeraSans-Roman-70"/>
      <use x="227.685546875" xlink:href="#BitstreamVeraSans-Roman-68"/>
      <use x="291.064453125" xlink:href="#BitstreamVeraSans-Roman-65"/>
      <use x="352.587890625" xlink:href="#BitstreamVeraSans-Roman-6e"/>
      <use x="415.966796875" xlink:href="#BitstreamVeraSans-Roman-20"/>
      <use x="447.75390625" xlink:href="#BitstreamVeraSans-Roman-43"/>
      <use x="517.578125" xlink:href="#BitstreamVeraSans-Roman-75"/>
      <use x="580.95703125" xlink:href="#BitstreamVeraSans-Roman-72"/>
      <use x="622.0546875" xlink:href="#BitstreamVeraSans-Roman-72"/>
      <use x="663.16796875" xlink:href="#BitstreamVeraSans-Roman-79"/>
     </g>
    </g>
    <g id="line2d_40"/>
    <g id="line2d_41">
     <g>
      <use style="stroke:#000000;stroke-width:18.0;" x="723.316875" xlink:href="#m630a8ed470" y="90.931875"/>
     </g>
    </g>
    <g id="text_21">
     <!-- Mike Conley -->
     <defs>
      <path d="M 9.078125 75.984375 
L 18.109375 75.984375 
L 18.109375 31.109375 
L 44.921875 54.6875 
L 56.390625 54.6875 
L 27.390625 29.109375 
L 57.625 0 
L 45.90625 0 
L 18.109375 26.703125 
L 18.109375 0 
L 9.078125 0 
z
" id="BitstreamVeraSans-Roman-6b"/>
     </defs>
     <g transform="translate(744.916875 95.131875)scale(0.12 -0.12)">
      <use xlink:href="#BitstreamVeraSans-Roman-4d"/>
      <use x="86.279296875" xlink:href="#BitstreamVeraSans-Roman-69"/>
      <use x="114.0625" xlink:href="#BitstreamVeraSans-Roman-6b"/>
      <use x="171.92578125" xlink:href="#BitstreamVeraSans-Roman-65"/>
      <use x="233.44921875" xlink:href="#BitstreamVeraSans-Roman-20"/>
      <use x="265.236328125" xlink:href="#BitstreamVeraSans-Roman-43"/>
      <use x="335.060546875" xlink:href="#BitstreamVeraSans-Roman-6f"/>
      <use x="396.2421875" xlink:href="#BitstreamVeraSans-Roman-6e"/>
      <use x="459.62109375" xlink:href="#BitstreamVeraSans-Roman-6c"/>
      <use x="487.404296875" xlink:href="#BitstreamVeraSans-Roman-65"/>
      <use x="548.927734375" xlink:href="#BitstreamVeraSans-Roman-79"/>
     </g>
    </g>
   </g>
  </g>
 </g>
 <defs>
  <clipPath id="p0204cf861f">
   <rect height="446.4" width="725.4" x="117.0" y="57.6"/>
  </clipPath>
 </defs>
</svg>
