<?xml version="1.0" encoding="utf-8" standalone="no"?>
<!DOCTYPE svg PUBLIC "-//W3C//DTD SVG 1.1//EN"
  "http://www.w3.org/Graphics/SVG/1.1/DTD/svg11.dtd">
<!-- Created with matplotlib (http://matplotlib.org/) -->
<svg height="355pt" version="1.1" viewBox="0 0 884 355" width="884pt" xmlns="http://www.w3.org/2000/svg" xmlns:xlink="http://www.w3.org/1999/xlink">
 <defs>
  <style type="text/css">
*{stroke-linecap:butt;stroke-linejoin:round;stroke-miterlimit:100000;}
  </style>
 </defs>
 <g id="figure_1">
  <g id="patch_1">
   <path d="M 0 355.0205 
L 884.85 355.0205 
L 884.85 0 
L 0 0 
z
" style="fill:#ffffff;"/>
  </g>
  <g id="axes_1">
   <g id="patch_2">
    <path d="M 40.65 246.34175 
L 877.65 246.34175 
L 877.65 23.14175 
L 40.65 23.14175 
z
" style="fill:#e5e5e5;"/>
   </g>
   <g id="matplotlib.axis_1">
    <g id="xtick_1">
     <g id="line2d_1">
      <path clip-path="url(#pf4b46b84e3)" d="M 40.65 246.34175 
L 40.65 23.14175 
" style="fill:none;stroke:#ffffff;stroke-linecap:square;stroke-width:0.5;"/>
     </g>
     <g id="line2d_2">
      <defs>
       <path d="M 0 0 
L 0 4 
" id="m39f23ae670" style="stroke:#555555;stroke-width:0.5;"/>
      </defs>
      <g>
       <use style="fill:#555555;stroke:#555555;stroke-width:0.5;" x="40.65" xlink:href="#m39f23ae670" y="246.34175"/>
      </g>
     </g>
     <g id="line2d_3">
      <defs>
       <path d="M 0 0 
L 0 -4 
" id="m22d1bd90e7" style="stroke:#555555;stroke-width:0.5;"/>
      </defs>
      <g>
       <use style="fill:#555555;stroke:#555555;stroke-width:0.5;" x="40.65" xlink:href="#m22d1bd90e7" y="23.14175"/>
      </g>
     </g>
     <g id="text_1">
      <!-- Jan -->
      <defs>
       <path d="M 54.890625 33.015625 
L 54.890625 0 
L 45.90625 0 
L 45.90625 32.71875 
Q 45.90625 40.484375 42.875 44.328125 
Q 39.84375 48.1875 33.796875 48.1875 
Q 26.515625 48.1875 22.3125 43.546875 
Q 18.109375 38.921875 18.109375 30.90625 
L 18.109375 0 
L 9.078125 0 
L 9.078125 54.6875 
L 18.109375 54.6875 
L 18.109375 46.1875 
Q 21.34375 51.125 25.703125 53.5625 
Q 30.078125 56 35.796875 56 
Q 45.21875 56 50.046875 50.171875 
Q 54.890625 44.34375 54.890625 33.015625 
" id="BitstreamVeraSans-Roman-6e"/>
       <path d="M 34.28125 27.484375 
Q 23.390625 27.484375 19.1875 25 
Q 14.984375 22.515625 14.984375 16.5 
Q 14.984375 11.71875 18.140625 8.90625 
Q 21.296875 6.109375 26.703125 6.109375 
Q 34.1875 6.109375 38.703125 11.40625 
Q 43.21875 16.703125 43.21875 25.484375 
L 43.21875 27.484375 
z
M 52.203125 31.203125 
L 52.203125 0 
L 43.21875 0 
L 43.21875 8.296875 
Q 40.140625 3.328125 35.546875 0.953125 
Q 30.953125 -1.421875 24.3125 -1.421875 
Q 15.921875 -1.421875 10.953125 3.296875 
Q 6 8.015625 6 15.921875 
Q 6 25.140625 12.171875 29.828125 
Q 18.359375 34.515625 30.609375 34.515625 
L 43.21875 34.515625 
L 43.21875 35.40625 
Q 43.21875 41.609375 39.140625 45 
Q 35.0625 48.390625 27.6875 48.390625 
Q 23 48.390625 18.546875 47.265625 
Q 14.109375 46.140625 10.015625 43.890625 
L 10.015625 52.203125 
Q 14.9375 54.109375 19.578125 55.046875 
Q 24.21875 56 28.609375 56 
Q 40.484375 56 46.34375 49.84375 
Q 52.203125 43.703125 52.203125 31.203125 
" id="BitstreamVeraSans-Roman-61"/>
       <path d="M 9.8125 72.90625 
L 19.671875 72.90625 
L 19.671875 5.078125 
Q 19.671875 -8.109375 14.671875 -14.0625 
Q 9.671875 -20.015625 -1.421875 -20.015625 
L -5.171875 -20.015625 
L -5.171875 -11.71875 
L -2.09375 -11.71875 
Q 4.4375 -11.71875 7.125 -8.046875 
Q 9.8125 -4.390625 9.8125 5.078125 
z
" id="BitstreamVeraSans-Roman-4a"/>
      </defs>
      <g style="fill:#555555;" transform="translate(32.9421875 261.9401875)scale(0.1 -0.1)">
       <use xlink:href="#BitstreamVeraSans-Roman-4a"/>
       <use x="29.4921875" xlink:href="#BitstreamVeraSans-Roman-61"/>
       <use x="90.771484375" xlink:href="#BitstreamVeraSans-Roman-6e"/>
      </g>
     </g>
    </g>
    <g id="xtick_2">
     <g id="line2d_4">
      <path clip-path="url(#pf4b46b84e3)" d="M 105.034615 246.34175 
L 105.034615 23.14175 
" style="fill:none;stroke:#ffffff;stroke-linecap:square;stroke-width:0.5;"/>
     </g>
     <g id="line2d_5">
      <g>
       <use style="fill:#555555;stroke:#555555;stroke-width:0.5;" x="105.034615385" xlink:href="#m39f23ae670" y="246.34175"/>
      </g>
     </g>
     <g id="line2d_6">
      <g>
       <use style="fill:#555555;stroke:#555555;stroke-width:0.5;" x="105.034615385" xlink:href="#m22d1bd90e7" y="23.14175"/>
      </g>
     </g>
     <g id="text_2">
      <!-- Feb -->
      <defs>
       <path d="M 48.6875 27.296875 
Q 48.6875 37.203125 44.609375 42.84375 
Q 40.53125 48.484375 33.40625 48.484375 
Q 26.265625 48.484375 22.1875 42.84375 
Q 18.109375 37.203125 18.109375 27.296875 
Q 18.109375 17.390625 22.1875 11.75 
Q 26.265625 6.109375 33.40625 6.109375 
Q 40.53125 6.109375 44.609375 11.75 
Q 48.6875 17.390625 48.6875 27.296875 
M 18.109375 46.390625 
Q 20.953125 51.265625 25.265625 53.625 
Q 29.59375 56 35.59375 56 
Q 45.5625 56 51.78125 48.09375 
Q 58.015625 40.1875 58.015625 27.296875 
Q 58.015625 14.40625 51.78125 6.484375 
Q 45.5625 -1.421875 35.59375 -1.421875 
Q 29.59375 -1.421875 25.265625 0.953125 
Q 20.953125 3.328125 18.109375 8.203125 
L 18.109375 0 
L 9.078125 0 
L 9.078125 75.984375 
L 18.109375 75.984375 
z
" id="BitstreamVeraSans-Roman-62"/>
       <path d="M 9.8125 72.90625 
L 51.703125 72.90625 
L 51.703125 64.59375 
L 19.671875 64.59375 
L 19.671875 43.109375 
L 48.578125 43.109375 
L 48.578125 34.8125 
L 19.671875 34.8125 
L 19.671875 0 
L 9.8125 0 
z
" id="BitstreamVeraSans-Roman-46"/>
       <path d="M 56.203125 29.59375 
L 56.203125 25.203125 
L 14.890625 25.203125 
Q 15.484375 15.921875 20.484375 11.0625 
Q 25.484375 6.203125 34.421875 6.203125 
Q 39.59375 6.203125 44.453125 7.46875 
Q 49.3125 8.734375 54.109375 11.28125 
L 54.109375 2.78125 
Q 49.265625 0.734375 44.1875 -0.34375 
Q 39.109375 -1.421875 33.890625 -1.421875 
Q 20.796875 -1.421875 13.15625 6.1875 
Q 5.515625 13.8125 5.515625 26.8125 
Q 5.515625 40.234375 12.765625 48.109375 
Q 20.015625 56 32.328125 56 
Q 43.359375 56 49.78125 48.890625 
Q 56.203125 41.796875 56.203125 29.59375 
M 47.21875 32.234375 
Q 47.125 39.59375 43.09375 43.984375 
Q 39.0625 48.390625 32.421875 48.390625 
Q 24.90625 48.390625 20.390625 44.140625 
Q 15.875 39.890625 15.1875 32.171875 
z
" id="BitstreamVeraSans-Roman-65"/>
      </defs>
      <g style="fill:#555555;" transform="translate(95.9119591346 261.9401875)scale(0.1 -0.1)">
       <use xlink:href="#BitstreamVeraSans-Roman-46"/>
       <use x="57.44140625" xlink:href="#BitstreamVeraSans-Roman-65"/>
       <use x="118.96484375" xlink:href="#BitstreamVeraSans-Roman-62"/>
      </g>
     </g>
    </g>
    <g id="xtick_3">
     <g id="line2d_7">
      <path clip-path="url(#pf4b46b84e3)" d="M 169.419231 246.34175 
L 169.419231 23.14175 
" style="fill:none;stroke:#ffffff;stroke-linecap:square;stroke-width:0.5;"/>
     </g>
     <g id="line2d_8">
      <g>
       <use style="fill:#555555;stroke:#555555;stroke-width:0.5;" x="169.419230769" xlink:href="#m39f23ae670" y="246.34175"/>
      </g>
     </g>
     <g id="line2d_9">
      <g>
       <use style="fill:#555555;stroke:#555555;stroke-width:0.5;" x="169.419230769" xlink:href="#m22d1bd90e7" y="23.14175"/>
      </g>
     </g>
     <g id="text_3">
      <!-- Mar -->
      <defs>
       <path d="M 9.8125 72.90625 
L 24.515625 72.90625 
L 43.109375 23.296875 
L 61.8125 72.90625 
L 76.515625 72.90625 
L 76.515625 0 
L 66.890625 0 
L 66.890625 64.015625 
L 48.09375 14.015625 
L 38.1875 14.015625 
L 19.390625 64.015625 
L 19.390625 0 
L 9.8125 0 
z
" id="BitstreamVeraSans-Roman-4d"/>
       <path d="M 41.109375 46.296875 
Q 39.59375 47.171875 37.8125 47.578125 
Q 36.03125 48 33.890625 48 
Q 26.265625 48 22.1875 43.046875 
Q 18.109375 38.09375 18.109375 28.8125 
L 18.109375 0 
L 9.078125 0 
L 9.078125 54.6875 
L 18.109375 54.6875 
L 18.109375 46.1875 
Q 20.953125 51.171875 25.484375 53.578125 
Q 30.03125 56 36.53125 56 
Q 37.453125 56 38.578125 55.875 
Q 39.703125 55.765625 41.0625 55.515625 
z
" id="BitstreamVeraSans-Roman-72"/>
      </defs>
      <g style="fill:#555555;" transform="translate(159.985637019 261.9401875)scale(0.1 -0.1)">
       <use xlink:href="#BitstreamVeraSans-Roman-4d"/>
       <use x="86.279296875" xlink:href="#BitstreamVeraSans-Roman-61"/>
       <use x="147.55859375" xlink:href="#BitstreamVeraSans-Roman-72"/>
      </g>
     </g>
    </g>
    <g id="xtick_4">
     <g id="line2d_10">
      <path clip-path="url(#pf4b46b84e3)" d="M 249.9 246.34175 
L 249.9 23.14175 
" style="fill:none;stroke:#ffffff;stroke-linecap:square;stroke-width:0.5;"/>
     </g>
     <g id="line2d_11">
      <g>
       <use style="fill:#555555;stroke:#555555;stroke-width:0.5;" x="249.9" xlink:href="#m39f23ae670" y="246.34175"/>
      </g>
     </g>
     <g id="line2d_12">
      <g>
       <use style="fill:#555555;stroke:#555555;stroke-width:0.5;" x="249.9" xlink:href="#m22d1bd90e7" y="23.14175"/>
      </g>
     </g>
     <g id="text_4">
      <!-- Apr -->
      <defs>
       <path d="M 18.109375 8.203125 
L 18.109375 -20.796875 
L 9.078125 -20.796875 
L 9.078125 54.6875 
L 18.109375 54.6875 
L 18.109375 46.390625 
Q 20.953125 51.265625 25.265625 53.625 
Q 29.59375 56 35.59375 56 
Q 45.5625 56 51.78125 48.09375 
Q 58.015625 40.1875 58.015625 27.296875 
Q 58.015625 14.40625 51.78125 6.484375 
Q 45.5625 -1.421875 35.59375 -1.421875 
Q 29.59375 -1.421875 25.265625 0.953125 
Q 20.953125 3.328125 18.109375 8.203125 
M 48.6875 27.296875 
Q 48.6875 37.203125 44.609375 42.84375 
Q 40.53125 48.484375 33.40625 48.484375 
Q 26.265625 48.484375 22.1875 42.84375 
Q 18.109375 37.203125 18.109375 27.296875 
Q 18.109375 17.390625 22.1875 11.75 
Q 26.265625 6.109375 33.40625 6.109375 
Q 40.53125 6.109375 44.609375 11.75 
Q 48.6875 17.390625 48.6875 27.296875 
" id="BitstreamVeraSans-Roman-70"/>
       <path d="M 34.1875 63.1875 
L 20.796875 26.90625 
L 47.609375 26.90625 
z
M 28.609375 72.90625 
L 39.796875 72.90625 
L 67.578125 0 
L 57.328125 0 
L 50.6875 18.703125 
L 17.828125 18.703125 
L 11.1875 0 
L 0.78125 0 
z
" id="BitstreamVeraSans-Roman-41"/>
      </defs>
      <g style="fill:#555555;" transform="translate(241.25 261.9401875)scale(0.1 -0.1)">
       <use xlink:href="#BitstreamVeraSans-Roman-41"/>
       <use x="68.408203125" xlink:href="#BitstreamVeraSans-Roman-70"/>
       <use x="131.884765625" xlink:href="#BitstreamVeraSans-Roman-72"/>
      </g>
     </g>
    </g>
    <g id="xtick_5">
     <g id="line2d_13">
      <path clip-path="url(#pf4b46b84e3)" d="M 314.284615 246.34175 
L 314.284615 23.14175 
" style="fill:none;stroke:#ffffff;stroke-linecap:square;stroke-width:0.5;"/>
     </g>
     <g id="line2d_14">
      <g>
       <use style="fill:#555555;stroke:#555555;stroke-width:0.5;" x="314.284615385" xlink:href="#m39f23ae670" y="246.34175"/>
      </g>
     </g>
     <g id="line2d_15">
      <g>
       <use style="fill:#555555;stroke:#555555;stroke-width:0.5;" x="314.284615385" xlink:href="#m22d1bd90e7" y="23.14175"/>
      </g>
     </g>
     <g id="text_5">
      <!-- May -->
      <defs>
       <path d="M 32.171875 -5.078125 
Q 28.375 -14.84375 24.75 -17.8125 
Q 21.140625 -20.796875 15.09375 -20.796875 
L 7.90625 -20.796875 
L 7.90625 -13.28125 
L 13.1875 -13.28125 
Q 16.890625 -13.28125 18.9375 -11.515625 
Q 21 -9.765625 23.484375 -3.21875 
L 25.09375 0.875 
L 2.984375 54.6875 
L 12.5 54.6875 
L 29.59375 11.921875 
L 46.6875 54.6875 
L 56.203125 54.6875 
z
" id="BitstreamVeraSans-Roman-79"/>
      </defs>
      <g style="fill:#555555;" transform="translate(303.947115385 261.9401875)scale(0.1 -0.1)">
       <use xlink:href="#BitstreamVeraSans-Roman-4d"/>
       <use x="86.279296875" xlink:href="#BitstreamVeraSans-Roman-61"/>
       <use x="147.55859375" xlink:href="#BitstreamVeraSans-Roman-79"/>
      </g>
     </g>
    </g>
    <g id="xtick_6">
     <g id="line2d_16">
      <path clip-path="url(#pf4b46b84e3)" d="M 394.765385 246.34175 
L 394.765385 23.14175 
" style="fill:none;stroke:#ffffff;stroke-linecap:square;stroke-width:0.5;"/>
     </g>
     <g id="line2d_17">
      <g>
       <use style="fill:#555555;stroke:#555555;stroke-width:0.5;" x="394.765384615" xlink:href="#m39f23ae670" y="246.34175"/>
      </g>
     </g>
     <g id="line2d_18">
      <g>
       <use style="fill:#555555;stroke:#555555;stroke-width:0.5;" x="394.765384615" xlink:href="#m22d1bd90e7" y="23.14175"/>
      </g>
     </g>
     <g id="text_6">
      <!-- Jun -->
      <defs>
       <path d="M 8.5 21.578125 
L 8.5 54.6875 
L 17.484375 54.6875 
L 17.484375 21.921875 
Q 17.484375 14.15625 20.5 10.265625 
Q 23.53125 6.390625 29.59375 6.390625 
Q 36.859375 6.390625 41.078125 11.03125 
Q 45.3125 15.671875 45.3125 23.6875 
L 45.3125 54.6875 
L 54.296875 54.6875 
L 54.296875 0 
L 45.3125 0 
L 45.3125 8.40625 
Q 42.046875 3.421875 37.71875 1 
Q 33.40625 -1.421875 27.6875 -1.421875 
Q 18.265625 -1.421875 13.375 4.4375 
Q 8.5 10.296875 8.5 21.578125 
" id="BitstreamVeraSans-Roman-75"/>
      </defs>
      <g style="fill:#555555;" transform="translate(386.952884615 261.9401875)scale(0.1 -0.1)">
       <use xlink:href="#BitstreamVeraSans-Roman-4a"/>
       <use x="29.4921875" xlink:href="#BitstreamVeraSans-Roman-75"/>
       <use x="92.87109375" xlink:href="#BitstreamVeraSans-Roman-6e"/>
      </g>
     </g>
    </g>
    <g id="xtick_7">
     <g id="line2d_19">
      <path clip-path="url(#pf4b46b84e3)" d="M 459.15 246.34175 
L 459.15 23.14175 
" style="fill:none;stroke:#ffffff;stroke-linecap:square;stroke-width:0.5;"/>
     </g>
     <g id="line2d_20">
      <g>
       <use style="fill:#555555;stroke:#555555;stroke-width:0.5;" x="459.15" xlink:href="#m39f23ae670" y="246.34175"/>
      </g>
     </g>
     <g id="line2d_21">
      <g>
       <use style="fill:#555555;stroke:#555555;stroke-width:0.5;" x="459.15" xlink:href="#m22d1bd90e7" y="23.14175"/>
      </g>
     </g>
     <g id="text_7">
      <!-- Jul -->
      <defs>
       <path d="M 9.421875 75.984375 
L 18.40625 75.984375 
L 18.40625 0 
L 9.421875 0 
z
" id="BitstreamVeraSans-Roman-6c"/>
      </defs>
      <g style="fill:#555555;" transform="translate(453.1171875 261.9401875)scale(0.1 -0.1)">
       <use xlink:href="#BitstreamVeraSans-Roman-4a"/>
       <use x="29.4921875" xlink:href="#BitstreamVeraSans-Roman-75"/>
       <use x="92.87109375" xlink:href="#BitstreamVeraSans-Roman-6c"/>
      </g>
     </g>
    </g>
    <g id="xtick_8">
     <g id="line2d_22">
      <path clip-path="url(#pf4b46b84e3)" d="M 523.534615 246.34175 
L 523.534615 23.14175 
" style="fill:none;stroke:#ffffff;stroke-linecap:square;stroke-width:0.5;"/>
     </g>
     <g id="line2d_23">
      <g>
       <use style="fill:#555555;stroke:#555555;stroke-width:0.5;" x="523.534615385" xlink:href="#m39f23ae670" y="246.34175"/>
      </g>
     </g>
     <g id="line2d_24">
      <g>
       <use style="fill:#555555;stroke:#555555;stroke-width:0.5;" x="523.534615385" xlink:href="#m22d1bd90e7" y="23.14175"/>
      </g>
     </g>
     <g id="text_8">
      <!-- Aug -->
      <defs>
       <path d="M 45.40625 27.984375 
Q 45.40625 37.75 41.375 43.109375 
Q 37.359375 48.484375 30.078125 48.484375 
Q 22.859375 48.484375 18.828125 43.109375 
Q 14.796875 37.75 14.796875 27.984375 
Q 14.796875 18.265625 18.828125 12.890625 
Q 22.859375 7.515625 30.078125 7.515625 
Q 37.359375 7.515625 41.375 12.890625 
Q 45.40625 18.265625 45.40625 27.984375 
M 54.390625 6.78125 
Q 54.390625 -7.171875 48.1875 -13.984375 
Q 42 -20.796875 29.203125 -20.796875 
Q 24.46875 -20.796875 20.265625 -20.09375 
Q 16.0625 -19.390625 12.109375 -17.921875 
L 12.109375 -9.1875 
Q 16.0625 -11.328125 19.921875 -12.34375 
Q 23.78125 -13.375 27.78125 -13.375 
Q 36.625 -13.375 41.015625 -8.765625 
Q 45.40625 -4.15625 45.40625 5.171875 
L 45.40625 9.625 
Q 42.625 4.78125 38.28125 2.390625 
Q 33.9375 0 27.875 0 
Q 17.828125 0 11.671875 7.65625 
Q 5.515625 15.328125 5.515625 27.984375 
Q 5.515625 40.671875 11.671875 48.328125 
Q 17.828125 56 27.875 56 
Q 33.9375 56 38.28125 53.609375 
Q 42.625 51.21875 45.40625 46.390625 
L 45.40625 54.6875 
L 54.390625 54.6875 
z
" id="BitstreamVeraSans-Roman-67"/>
      </defs>
      <g style="fill:#555555;" transform="translate(513.771334135 261.9401875)scale(0.1 -0.1)">
       <use xlink:href="#BitstreamVeraSans-Roman-41"/>
       <use x="68.408203125" xlink:href="#BitstreamVeraSans-Roman-75"/>
       <use x="131.787109375" xlink:href="#BitstreamVeraSans-Roman-67"/>
      </g>
     </g>
    </g>
    <g id="xtick_9">
     <g id="line2d_25">
      <path clip-path="url(#pf4b46b84e3)" d="M 604.015385 246.34175 
L 604.015385 23.14175 
" style="fill:none;stroke:#ffffff;stroke-linecap:square;stroke-width:0.5;"/>
     </g>
     <g id="line2d_26">
      <g>
       <use style="fill:#555555;stroke:#555555;stroke-width:0.5;" x="604.015384615" xlink:href="#m39f23ae670" y="246.34175"/>
      </g>
     </g>
     <g id="line2d_27">
      <g>
       <use style="fill:#555555;stroke:#555555;stroke-width:0.5;" x="604.015384615" xlink:href="#m22d1bd90e7" y="23.14175"/>
      </g>
     </g>
     <g id="text_9">
      <!-- Sep -->
      <defs>
       <path d="M 53.515625 70.515625 
L 53.515625 60.890625 
Q 47.90625 63.578125 42.921875 64.890625 
Q 37.9375 66.21875 33.296875 66.21875 
Q 25.25 66.21875 20.875 63.09375 
Q 16.5 59.96875 16.5 54.203125 
Q 16.5 49.359375 19.40625 46.890625 
Q 22.3125 44.4375 30.421875 42.921875 
L 36.375 41.703125 
Q 47.40625 39.59375 52.65625 34.296875 
Q 57.90625 29 57.90625 20.125 
Q 57.90625 9.515625 50.796875 4.046875 
Q 43.703125 -1.421875 29.984375 -1.421875 
Q 24.8125 -1.421875 18.96875 -0.25 
Q 13.140625 0.921875 6.890625 3.21875 
L 6.890625 13.375 
Q 12.890625 10.015625 18.65625 8.296875 
Q 24.421875 6.59375 29.984375 6.59375 
Q 38.421875 6.59375 43.015625 9.90625 
Q 47.609375 13.234375 47.609375 19.390625 
Q 47.609375 24.75 44.3125 27.78125 
Q 41.015625 30.8125 33.5 32.328125 
L 27.484375 33.5 
Q 16.453125 35.6875 11.515625 40.375 
Q 6.59375 45.0625 6.59375 53.421875 
Q 6.59375 63.09375 13.40625 68.65625 
Q 20.21875 74.21875 32.171875 74.21875 
Q 37.3125 74.21875 42.625 73.28125 
Q 47.953125 72.359375 53.515625 70.515625 
" id="BitstreamVeraSans-Roman-53"/>
      </defs>
      <g style="fill:#555555;" transform="translate(594.590384615 261.9401875)scale(0.1 -0.1)">
       <use xlink:href="#BitstreamVeraSans-Roman-53"/>
       <use x="63.4765625" xlink:href="#BitstreamVeraSans-Roman-65"/>
       <use x="125.0" xlink:href="#BitstreamVeraSans-Roman-70"/>
      </g>
     </g>
    </g>
    <g id="xtick_10">
     <g id="line2d_28">
      <path clip-path="url(#pf4b46b84e3)" d="M 668.4 246.34175 
L 668.4 23.14175 
" style="fill:none;stroke:#ffffff;stroke-linecap:square;stroke-width:0.5;"/>
     </g>
     <g id="line2d_29">
      <g>
       <use style="fill:#555555;stroke:#555555;stroke-width:0.5;" x="668.4" xlink:href="#m39f23ae670" y="246.34175"/>
      </g>
     </g>
     <g id="line2d_30">
      <g>
       <use style="fill:#555555;stroke:#555555;stroke-width:0.5;" x="668.4" xlink:href="#m22d1bd90e7" y="23.14175"/>
      </g>
     </g>
     <g id="text_10">
      <!-- Oct -->
      <defs>
       <path d="M 18.3125 70.21875 
L 18.3125 54.6875 
L 36.8125 54.6875 
L 36.8125 47.703125 
L 18.3125 47.703125 
L 18.3125 18.015625 
Q 18.3125 11.328125 20.140625 9.421875 
Q 21.96875 7.515625 27.59375 7.515625 
L 36.8125 7.515625 
L 36.8125 0 
L 27.59375 0 
Q 17.1875 0 13.234375 3.875 
Q 9.28125 7.765625 9.28125 18.015625 
L 9.28125 47.703125 
L 2.6875 47.703125 
L 2.6875 54.6875 
L 9.28125 54.6875 
L 9.28125 70.21875 
z
" id="BitstreamVeraSans-Roman-74"/>
       <path d="M 48.78125 52.59375 
L 48.78125 44.1875 
Q 44.96875 46.296875 41.140625 47.34375 
Q 37.3125 48.390625 33.40625 48.390625 
Q 24.65625 48.390625 19.8125 42.84375 
Q 14.984375 37.3125 14.984375 27.296875 
Q 14.984375 17.28125 19.8125 11.734375 
Q 24.65625 6.203125 33.40625 6.203125 
Q 37.3125 6.203125 41.140625 7.25 
Q 44.96875 8.296875 48.78125 10.40625 
L 48.78125 2.09375 
Q 45.015625 0.34375 40.984375 -0.53125 
Q 36.96875 -1.421875 32.421875 -1.421875 
Q 20.0625 -1.421875 12.78125 6.34375 
Q 5.515625 14.109375 5.515625 27.296875 
Q 5.515625 40.671875 12.859375 48.328125 
Q 20.21875 56 33.015625 56 
Q 37.15625 56 41.109375 55.140625 
Q 45.0625 54.296875 48.78125 52.59375 
" id="BitstreamVeraSans-Roman-63"/>
       <path d="M 39.40625 66.21875 
Q 28.65625 66.21875 22.328125 58.203125 
Q 16.015625 50.203125 16.015625 36.375 
Q 16.015625 22.609375 22.328125 14.59375 
Q 28.65625 6.59375 39.40625 6.59375 
Q 50.140625 6.59375 56.421875 14.59375 
Q 62.703125 22.609375 62.703125 36.375 
Q 62.703125 50.203125 56.421875 58.203125 
Q 50.140625 66.21875 39.40625 66.21875 
M 39.40625 74.21875 
Q 54.734375 74.21875 63.90625 63.9375 
Q 73.09375 53.65625 73.09375 36.375 
Q 73.09375 19.140625 63.90625 8.859375 
Q 54.734375 -1.421875 39.40625 -1.421875 
Q 24.03125 -1.421875 14.8125 8.828125 
Q 5.609375 19.09375 5.609375 36.375 
Q 5.609375 53.65625 14.8125 63.9375 
Q 24.03125 74.21875 39.40625 74.21875 
" id="BitstreamVeraSans-Roman-4f"/>
      </defs>
      <g style="fill:#555555;" transform="translate(659.7546875 261.9401875)scale(0.1 -0.1)">
       <use xlink:href="#BitstreamVeraSans-Roman-4f"/>
       <use x="78.7109375" xlink:href="#BitstreamVeraSans-Roman-63"/>
       <use x="133.69140625" xlink:href="#BitstreamVeraSans-Roman-74"/>
      </g>
     </g>
    </g>
    <g id="xtick_11">
     <g id="line2d_31">
      <path clip-path="url(#pf4b46b84e3)" d="M 732.784615 246.34175 
L 732.784615 23.14175 
" style="fill:none;stroke:#ffffff;stroke-linecap:square;stroke-width:0.5;"/>
     </g>
     <g id="line2d_32">
      <g>
       <use style="fill:#555555;stroke:#555555;stroke-width:0.5;" x="732.784615385" xlink:href="#m39f23ae670" y="246.34175"/>
      </g>
     </g>
     <g id="line2d_33">
      <g>
       <use style="fill:#555555;stroke:#555555;stroke-width:0.5;" x="732.784615385" xlink:href="#m22d1bd90e7" y="23.14175"/>
      </g>
     </g>
     <g id="text_11">
      <!-- Nov -->
      <defs>
       <path d="M 30.609375 48.390625 
Q 23.390625 48.390625 19.1875 42.75 
Q 14.984375 37.109375 14.984375 27.296875 
Q 14.984375 17.484375 19.15625 11.84375 
Q 23.34375 6.203125 30.609375 6.203125 
Q 37.796875 6.203125 41.984375 11.859375 
Q 46.1875 17.53125 46.1875 27.296875 
Q 46.1875 37.015625 41.984375 42.703125 
Q 37.796875 48.390625 30.609375 48.390625 
M 30.609375 56 
Q 42.328125 56 49.015625 48.375 
Q 55.71875 40.765625 55.71875 27.296875 
Q 55.71875 13.875 49.015625 6.21875 
Q 42.328125 -1.421875 30.609375 -1.421875 
Q 18.84375 -1.421875 12.171875 6.21875 
Q 5.515625 13.875 5.515625 27.296875 
Q 5.515625 40.765625 12.171875 48.375 
Q 18.84375 56 30.609375 56 
" id="BitstreamVeraSans-Roman-6f"/>
       <path d="M 9.8125 72.90625 
L 23.09375 72.90625 
L 55.421875 11.921875 
L 55.421875 72.90625 
L 64.984375 72.90625 
L 64.984375 0 
L 51.703125 0 
L 19.390625 60.984375 
L 19.390625 0 
L 9.8125 0 
z
" id="BitstreamVeraSans-Roman-4e"/>
       <path d="M 2.984375 54.6875 
L 12.5 54.6875 
L 29.59375 8.796875 
L 46.6875 54.6875 
L 56.203125 54.6875 
L 35.6875 0 
L 23.484375 0 
z
" id="BitstreamVeraSans-Roman-76"/>
      </defs>
      <g style="fill:#555555;" transform="translate(723.025240385 261.9401875)scale(0.1 -0.1)">
       <use xlink:href="#BitstreamVeraSans-Roman-4e"/>
       <use x="74.8046875" xlink:href="#BitstreamVeraSans-Roman-6f"/>
       <use x="135.986328125" xlink:href="#BitstreamVeraSans-Roman-76"/>
      </g>
     </g>
    </g>
    <g id="xtick_12">
     <g id="line2d_34">
      <path clip-path="url(#pf4b46b84e3)" d="M 813.265385 246.34175 
L 813.265385 23.14175 
" style="fill:none;stroke:#ffffff;stroke-linecap:square;stroke-width:0.5;"/>
     </g>
     <g id="line2d_35">
      <g>
       <use style="fill:#555555;stroke:#555555;stroke-width:0.5;" x="813.265384615" xlink:href="#m39f23ae670" y="246.34175"/>
      </g>
     </g>
     <g id="line2d_36">
      <g>
       <use style="fill:#555555;stroke:#555555;stroke-width:0.5;" x="813.265384615" xlink:href="#m22d1bd90e7" y="23.14175"/>
      </g>
     </g>
     <g id="text_12">
      <!-- Dec -->
      <defs>
       <path d="M 19.671875 64.796875 
L 19.671875 8.109375 
L 31.59375 8.109375 
Q 46.6875 8.109375 53.6875 14.9375 
Q 60.6875 21.78125 60.6875 36.53125 
Q 60.6875 51.171875 53.6875 57.984375 
Q 46.6875 64.796875 31.59375 64.796875 
z
M 9.8125 72.90625 
L 30.078125 72.90625 
Q 51.265625 72.90625 61.171875 64.09375 
Q 71.09375 55.28125 71.09375 36.53125 
Q 71.09375 17.671875 61.125 8.828125 
Q 51.171875 0 30.078125 0 
L 9.8125 0 
z
" id="BitstreamVeraSans-Roman-44"/>
      </defs>
      <g style="fill:#555555;" transform="translate(803.589603365 261.9401875)scale(0.1 -0.1)">
       <use xlink:href="#BitstreamVeraSans-Roman-44"/>
       <use x="77.001953125" xlink:href="#BitstreamVeraSans-Roman-65"/>
       <use x="138.525390625" xlink:href="#BitstreamVeraSans-Roman-63"/>
      </g>
     </g>
    </g>
    <g id="xtick_13">
     <g id="line2d_37">
      <path clip-path="url(#pf4b46b84e3)" d="M 877.65 246.34175 
L 877.65 23.14175 
" style="fill:none;stroke:#ffffff;stroke-linecap:square;stroke-width:0.5;"/>
     </g>
     <g id="line2d_38">
      <g>
       <use style="fill:#555555;stroke:#555555;stroke-width:0.5;" x="877.65" xlink:href="#m39f23ae670" y="246.34175"/>
      </g>
     </g>
     <g id="line2d_39">
      <g>
       <use style="fill:#555555;stroke:#555555;stroke-width:0.5;" x="877.65" xlink:href="#m22d1bd90e7" y="23.14175"/>
      </g>
     </g>
    </g>
    <g id="xtick_14">
     <g id="line2d_40">
      <defs>
       <path d="M 0 0 
L 0 2 
" id="m763f5fa04c" style="stroke:#555555;stroke-width:0.5;"/>
      </defs>
      <g>
       <use style="fill:#555555;stroke:#555555;stroke-width:0.5;" x="56.7461538462" xlink:href="#m763f5fa04c" y="246.34175"/>
      </g>
     </g>
     <g id="line2d_41">
      <defs>
       <path d="M 0 0 
L 0 -2 
" id="mbb52367d97" style="stroke:#555555;stroke-width:0.5;"/>
      </defs>
      <g>
       <use style="fill:#555555;stroke:#555555;stroke-width:0.5;" x="56.7461538462" xlink:href="#mbb52367d97" y="23.14175"/>
      </g>
     </g>
    </g>
    <g id="xtick_15">
     <g id="line2d_42">
      <g>
       <use style="fill:#555555;stroke:#555555;stroke-width:0.5;" x="72.8423076923" xlink:href="#m763f5fa04c" y="246.34175"/>
      </g>
     </g>
     <g id="line2d_43">
      <g>
       <use style="fill:#555555;stroke:#555555;stroke-width:0.5;" x="72.8423076923" xlink:href="#mbb52367d97" y="23.14175"/>
      </g>
     </g>
    </g>
    <g id="xtick_16">
     <g id="line2d_44">
      <g>
       <use style="fill:#555555;stroke:#555555;stroke-width:0.5;" x="88.9384615385" xlink:href="#m763f5fa04c" y="246.34175"/>
      </g>
     </g>
     <g id="line2d_45">
      <g>
       <use style="fill:#555555;stroke:#555555;stroke-width:0.5;" x="88.9384615385" xlink:href="#mbb52367d97" y="23.14175"/>
      </g>
     </g>
    </g>
    <g id="xtick_17">
     <g id="line2d_46">
      <g>
       <use style="fill:#555555;stroke:#555555;stroke-width:0.5;" x="121.130769231" xlink:href="#m763f5fa04c" y="246.34175"/>
      </g>
     </g>
     <g id="line2d_47">
      <g>
       <use style="fill:#555555;stroke:#555555;stroke-width:0.5;" x="121.130769231" xlink:href="#mbb52367d97" y="23.14175"/>
      </g>
     </g>
    </g>
    <g id="xtick_18">
     <g id="line2d_48">
      <g>
       <use style="fill:#555555;stroke:#555555;stroke-width:0.5;" x="137.226923077" xlink:href="#m763f5fa04c" y="246.34175"/>
      </g>
     </g>
     <g id="line2d_49">
      <g>
       <use style="fill:#555555;stroke:#555555;stroke-width:0.5;" x="137.226923077" xlink:href="#mbb52367d97" y="23.14175"/>
      </g>
     </g>
    </g>
    <g id="xtick_19">
     <g id="line2d_50">
      <g>
       <use style="fill:#555555;stroke:#555555;stroke-width:0.5;" x="153.323076923" xlink:href="#m763f5fa04c" y="246.34175"/>
      </g>
     </g>
     <g id="line2d_51">
      <g>
       <use style="fill:#555555;stroke:#555555;stroke-width:0.5;" x="153.323076923" xlink:href="#mbb52367d97" y="23.14175"/>
      </g>
     </g>
    </g>
    <g id="xtick_20">
     <g id="line2d_52">
      <g>
       <use style="fill:#555555;stroke:#555555;stroke-width:0.5;" x="185.515384615" xlink:href="#m763f5fa04c" y="246.34175"/>
      </g>
     </g>
     <g id="line2d_53">
      <g>
       <use style="fill:#555555;stroke:#555555;stroke-width:0.5;" x="185.515384615" xlink:href="#mbb52367d97" y="23.14175"/>
      </g>
     </g>
    </g>
    <g id="xtick_21">
     <g id="line2d_54">
      <g>
       <use style="fill:#555555;stroke:#555555;stroke-width:0.5;" x="201.611538462" xlink:href="#m763f5fa04c" y="246.34175"/>
      </g>
     </g>
     <g id="line2d_55">
      <g>
       <use style="fill:#555555;stroke:#555555;stroke-width:0.5;" x="201.611538462" xlink:href="#mbb52367d97" y="23.14175"/>
      </g>
     </g>
    </g>
    <g id="xtick_22">
     <g id="line2d_56">
      <g>
       <use style="fill:#555555;stroke:#555555;stroke-width:0.5;" x="217.707692308" xlink:href="#m763f5fa04c" y="246.34175"/>
      </g>
     </g>
     <g id="line2d_57">
      <g>
       <use style="fill:#555555;stroke:#555555;stroke-width:0.5;" x="217.707692308" xlink:href="#mbb52367d97" y="23.14175"/>
      </g>
     </g>
    </g>
    <g id="xtick_23">
     <g id="line2d_58">
      <g>
       <use style="fill:#555555;stroke:#555555;stroke-width:0.5;" x="233.803846154" xlink:href="#m763f5fa04c" y="246.34175"/>
      </g>
     </g>
     <g id="line2d_59">
      <g>
       <use style="fill:#555555;stroke:#555555;stroke-width:0.5;" x="233.803846154" xlink:href="#mbb52367d97" y="23.14175"/>
      </g>
     </g>
    </g>
    <g id="xtick_24">
     <g id="line2d_60">
      <g>
       <use style="fill:#555555;stroke:#555555;stroke-width:0.5;" x="265.996153846" xlink:href="#m763f5fa04c" y="246.34175"/>
      </g>
     </g>
     <g id="line2d_61">
      <g>
       <use style="fill:#555555;stroke:#555555;stroke-width:0.5;" x="265.996153846" xlink:href="#mbb52367d97" y="23.14175"/>
      </g>
     </g>
    </g>
    <g id="xtick_25">
     <g id="line2d_62">
      <g>
       <use style="fill:#555555;stroke:#555555;stroke-width:0.5;" x="282.092307692" xlink:href="#m763f5fa04c" y="246.34175"/>
      </g>
     </g>
     <g id="line2d_63">
      <g>
       <use style="fill:#555555;stroke:#555555;stroke-width:0.5;" x="282.092307692" xlink:href="#mbb52367d97" y="23.14175"/>
      </g>
     </g>
    </g>
    <g id="xtick_26">
     <g id="line2d_64">
      <g>
       <use style="fill:#555555;stroke:#555555;stroke-width:0.5;" x="298.188461538" xlink:href="#m763f5fa04c" y="246.34175"/>
      </g>
     </g>
     <g id="line2d_65">
      <g>
       <use style="fill:#555555;stroke:#555555;stroke-width:0.5;" x="298.188461538" xlink:href="#mbb52367d97" y="23.14175"/>
      </g>
     </g>
    </g>
    <g id="xtick_27">
     <g id="line2d_66">
      <g>
       <use style="fill:#555555;stroke:#555555;stroke-width:0.5;" x="330.380769231" xlink:href="#m763f5fa04c" y="246.34175"/>
      </g>
     </g>
     <g id="line2d_67">
      <g>
       <use style="fill:#555555;stroke:#555555;stroke-width:0.5;" x="330.380769231" xlink:href="#mbb52367d97" y="23.14175"/>
      </g>
     </g>
    </g>
    <g id="xtick_28">
     <g id="line2d_68">
      <g>
       <use style="fill:#555555;stroke:#555555;stroke-width:0.5;" x="346.476923077" xlink:href="#m763f5fa04c" y="246.34175"/>
      </g>
     </g>
     <g id="line2d_69">
      <g>
       <use style="fill:#555555;stroke:#555555;stroke-width:0.5;" x="346.476923077" xlink:href="#mbb52367d97" y="23.14175"/>
      </g>
     </g>
    </g>
    <g id="xtick_29">
     <g id="line2d_70">
      <g>
       <use style="fill:#555555;stroke:#555555;stroke-width:0.5;" x="362.573076923" xlink:href="#m763f5fa04c" y="246.34175"/>
      </g>
     </g>
     <g id="line2d_71">
      <g>
       <use style="fill:#555555;stroke:#555555;stroke-width:0.5;" x="362.573076923" xlink:href="#mbb52367d97" y="23.14175"/>
      </g>
     </g>
    </g>
    <g id="xtick_30">
     <g id="line2d_72">
      <g>
       <use style="fill:#555555;stroke:#555555;stroke-width:0.5;" x="378.669230769" xlink:href="#m763f5fa04c" y="246.34175"/>
      </g>
     </g>
     <g id="line2d_73">
      <g>
       <use style="fill:#555555;stroke:#555555;stroke-width:0.5;" x="378.669230769" xlink:href="#mbb52367d97" y="23.14175"/>
      </g>
     </g>
    </g>
    <g id="xtick_31">
     <g id="line2d_74">
      <g>
       <use style="fill:#555555;stroke:#555555;stroke-width:0.5;" x="410.861538462" xlink:href="#m763f5fa04c" y="246.34175"/>
      </g>
     </g>
     <g id="line2d_75">
      <g>
       <use style="fill:#555555;stroke:#555555;stroke-width:0.5;" x="410.861538462" xlink:href="#mbb52367d97" y="23.14175"/>
      </g>
     </g>
    </g>
    <g id="xtick_32">
     <g id="line2d_76">
      <g>
       <use style="fill:#555555;stroke:#555555;stroke-width:0.5;" x="426.957692308" xlink:href="#m763f5fa04c" y="246.34175"/>
      </g>
     </g>
     <g id="line2d_77">
      <g>
       <use style="fill:#555555;stroke:#555555;stroke-width:0.5;" x="426.957692308" xlink:href="#mbb52367d97" y="23.14175"/>
      </g>
     </g>
    </g>
    <g id="xtick_33">
     <g id="line2d_78">
      <g>
       <use style="fill:#555555;stroke:#555555;stroke-width:0.5;" x="443.053846154" xlink:href="#m763f5fa04c" y="246.34175"/>
      </g>
     </g>
     <g id="line2d_79">
      <g>
       <use style="fill:#555555;stroke:#555555;stroke-width:0.5;" x="443.053846154" xlink:href="#mbb52367d97" y="23.14175"/>
      </g>
     </g>
    </g>
    <g id="xtick_34">
     <g id="line2d_80">
      <g>
       <use style="fill:#555555;stroke:#555555;stroke-width:0.5;" x="475.246153846" xlink:href="#m763f5fa04c" y="246.34175"/>
      </g>
     </g>
     <g id="line2d_81">
      <g>
       <use style="fill:#555555;stroke:#555555;stroke-width:0.5;" x="475.246153846" xlink:href="#mbb52367d97" y="23.14175"/>
      </g>
     </g>
    </g>
    <g id="xtick_35">
     <g id="line2d_82">
      <g>
       <use style="fill:#555555;stroke:#555555;stroke-width:0.5;" x="491.342307692" xlink:href="#m763f5fa04c" y="246.34175"/>
      </g>
     </g>
     <g id="line2d_83">
      <g>
       <use style="fill:#555555;stroke:#555555;stroke-width:0.5;" x="491.342307692" xlink:href="#mbb52367d97" y="23.14175"/>
      </g>
     </g>
    </g>
    <g id="xtick_36">
     <g id="line2d_84">
      <g>
       <use style="fill:#555555;stroke:#555555;stroke-width:0.5;" x="507.438461538" xlink:href="#m763f5fa04c" y="246.34175"/>
      </g>
     </g>
     <g id="line2d_85">
      <g>
       <use style="fill:#555555;stroke:#555555;stroke-width:0.5;" x="507.438461538" xlink:href="#mbb52367d97" y="23.14175"/>
      </g>
     </g>
    </g>
    <g id="xtick_37">
     <g id="line2d_86">
      <g>
       <use style="fill:#555555;stroke:#555555;stroke-width:0.5;" x="539.630769231" xlink:href="#m763f5fa04c" y="246.34175"/>
      </g>
     </g>
     <g id="line2d_87">
      <g>
       <use style="fill:#555555;stroke:#555555;stroke-width:0.5;" x="539.630769231" xlink:href="#mbb52367d97" y="23.14175"/>
      </g>
     </g>
    </g>
    <g id="xtick_38">
     <g id="line2d_88">
      <g>
       <use style="fill:#555555;stroke:#555555;stroke-width:0.5;" x="555.726923077" xlink:href="#m763f5fa04c" y="246.34175"/>
      </g>
     </g>
     <g id="line2d_89">
      <g>
       <use style="fill:#555555;stroke:#555555;stroke-width:0.5;" x="555.726923077" xlink:href="#mbb52367d97" y="23.14175"/>
      </g>
     </g>
    </g>
    <g id="xtick_39">
     <g id="line2d_90">
      <g>
       <use style="fill:#555555;stroke:#555555;stroke-width:0.5;" x="571.823076923" xlink:href="#m763f5fa04c" y="246.34175"/>
      </g>
     </g>
     <g id="line2d_91">
      <g>
       <use style="fill:#555555;stroke:#555555;stroke-width:0.5;" x="571.823076923" xlink:href="#mbb52367d97" y="23.14175"/>
      </g>
     </g>
    </g>
    <g id="xtick_40">
     <g id="line2d_92">
      <g>
       <use style="fill:#555555;stroke:#555555;stroke-width:0.5;" x="587.919230769" xlink:href="#m763f5fa04c" y="246.34175"/>
      </g>
     </g>
     <g id="line2d_93">
      <g>
       <use style="fill:#555555;stroke:#555555;stroke-width:0.5;" x="587.919230769" xlink:href="#mbb52367d97" y="23.14175"/>
      </g>
     </g>
    </g>
    <g id="xtick_41">
     <g id="line2d_94">
      <g>
       <use style="fill:#555555;stroke:#555555;stroke-width:0.5;" x="620.111538462" xlink:href="#m763f5fa04c" y="246.34175"/>
      </g>
     </g>
     <g id="line2d_95">
      <g>
       <use style="fill:#555555;stroke:#555555;stroke-width:0.5;" x="620.111538462" xlink:href="#mbb52367d97" y="23.14175"/>
      </g>
     </g>
    </g>
    <g id="xtick_42">
     <g id="line2d_96">
      <g>
       <use style="fill:#555555;stroke:#555555;stroke-width:0.5;" x="636.207692308" xlink:href="#m763f5fa04c" y="246.34175"/>
      </g>
     </g>
     <g id="line2d_97">
      <g>
       <use style="fill:#555555;stroke:#555555;stroke-width:0.5;" x="636.207692308" xlink:href="#mbb52367d97" y="23.14175"/>
      </g>
     </g>
    </g>
    <g id="xtick_43">
     <g id="line2d_98">
      <g>
       <use style="fill:#555555;stroke:#555555;stroke-width:0.5;" x="652.303846154" xlink:href="#m763f5fa04c" y="246.34175"/>
      </g>
     </g>
     <g id="line2d_99">
      <g>
       <use style="fill:#555555;stroke:#555555;stroke-width:0.5;" x="652.303846154" xlink:href="#mbb52367d97" y="23.14175"/>
      </g>
     </g>
    </g>
    <g id="xtick_44">
     <g id="line2d_100">
      <g>
       <use style="fill:#555555;stroke:#555555;stroke-width:0.5;" x="684.496153846" xlink:href="#m763f5fa04c" y="246.34175"/>
      </g>
     </g>
     <g id="line2d_101">
      <g>
       <use style="fill:#555555;stroke:#555555;stroke-width:0.5;" x="684.496153846" xlink:href="#mbb52367d97" y="23.14175"/>
      </g>
     </g>
    </g>
    <g id="xtick_45">
     <g id="line2d_102">
      <g>
       <use style="fill:#555555;stroke:#555555;stroke-width:0.5;" x="700.592307692" xlink:href="#m763f5fa04c" y="246.34175"/>
      </g>
     </g>
     <g id="line2d_103">
      <g>
       <use style="fill:#555555;stroke:#555555;stroke-width:0.5;" x="700.592307692" xlink:href="#mbb52367d97" y="23.14175"/>
      </g>
     </g>
    </g>
    <g id="xtick_46">
     <g id="line2d_104">
      <g>
       <use style="fill:#555555;stroke:#555555;stroke-width:0.5;" x="716.688461538" xlink:href="#m763f5fa04c" y="246.34175"/>
      </g>
     </g>
     <g id="line2d_105">
      <g>
       <use style="fill:#555555;stroke:#555555;stroke-width:0.5;" x="716.688461538" xlink:href="#mbb52367d97" y="23.14175"/>
      </g>
     </g>
    </g>
    <g id="xtick_47">
     <g id="line2d_106">
      <g>
       <use style="fill:#555555;stroke:#555555;stroke-width:0.5;" x="748.880769231" xlink:href="#m763f5fa04c" y="246.34175"/>
      </g>
     </g>
     <g id="line2d_107">
      <g>
       <use style="fill:#555555;stroke:#555555;stroke-width:0.5;" x="748.880769231" xlink:href="#mbb52367d97" y="23.14175"/>
      </g>
     </g>
    </g>
    <g id="xtick_48">
     <g id="line2d_108">
      <g>
       <use style="fill:#555555;stroke:#555555;stroke-width:0.5;" x="764.976923077" xlink:href="#m763f5fa04c" y="246.34175"/>
      </g>
     </g>
     <g id="line2d_109">
      <g>
       <use style="fill:#555555;stroke:#555555;stroke-width:0.5;" x="764.976923077" xlink:href="#mbb52367d97" y="23.14175"/>
      </g>
     </g>
    </g>
    <g id="xtick_49">
     <g id="line2d_110">
      <g>
       <use style="fill:#555555;stroke:#555555;stroke-width:0.5;" x="781.073076923" xlink:href="#m763f5fa04c" y="246.34175"/>
      </g>
     </g>
     <g id="line2d_111">
      <g>
       <use style="fill:#555555;stroke:#555555;stroke-width:0.5;" x="781.073076923" xlink:href="#mbb52367d97" y="23.14175"/>
      </g>
     </g>
    </g>
    <g id="xtick_50">
     <g id="line2d_112">
      <g>
       <use style="fill:#555555;stroke:#555555;stroke-width:0.5;" x="797.169230769" xlink:href="#m763f5fa04c" y="246.34175"/>
      </g>
     </g>
     <g id="line2d_113">
      <g>
       <use style="fill:#555555;stroke:#555555;stroke-width:0.5;" x="797.169230769" xlink:href="#mbb52367d97" y="23.14175"/>
      </g>
     </g>
    </g>
    <g id="xtick_51">
     <g id="line2d_114">
      <g>
       <use style="fill:#555555;stroke:#555555;stroke-width:0.5;" x="829.361538462" xlink:href="#m763f5fa04c" y="246.34175"/>
      </g>
     </g>
     <g id="line2d_115">
      <g>
       <use style="fill:#555555;stroke:#555555;stroke-width:0.5;" x="829.361538462" xlink:href="#mbb52367d97" y="23.14175"/>
      </g>
     </g>
    </g>
    <g id="xtick_52">
     <g id="line2d_116">
      <g>
       <use style="fill:#555555;stroke:#555555;stroke-width:0.5;" x="845.457692308" xlink:href="#m763f5fa04c" y="246.34175"/>
      </g>
     </g>
     <g id="line2d_117">
      <g>
       <use style="fill:#555555;stroke:#555555;stroke-width:0.5;" x="845.457692308" xlink:href="#mbb52367d97" y="23.14175"/>
      </g>
     </g>
    </g>
    <g id="xtick_53">
     <g id="line2d_118">
      <g>
       <use style="fill:#555555;stroke:#555555;stroke-width:0.5;" x="861.553846154" xlink:href="#m763f5fa04c" y="246.34175"/>
      </g>
     </g>
     <g id="line2d_119">
      <g>
       <use style="fill:#555555;stroke:#555555;stroke-width:0.5;" x="861.553846154" xlink:href="#mbb52367d97" y="23.14175"/>
      </g>
     </g>
    </g>
    <g id="text_13">
     <!--  -->
     <g style="fill:#555555;" transform="translate(459.15 278.138)scale(0.12 -0.12)"/>
     <!--               Red: New York City Police Department -->
     <defs>
      <path d="M 64.40625 67.28125 
L 64.40625 56.890625 
Q 59.421875 61.53125 53.78125 63.8125 
Q 48.140625 66.109375 41.796875 66.109375 
Q 29.296875 66.109375 22.65625 58.46875 
Q 16.015625 50.828125 16.015625 36.375 
Q 16.015625 21.96875 22.65625 14.328125 
Q 29.296875 6.6875 41.796875 6.6875 
Q 48.140625 6.6875 53.78125 8.984375 
Q 59.421875 11.28125 64.40625 15.921875 
L 64.40625 5.609375 
Q 59.234375 2.09375 53.4375 0.328125 
Q 47.65625 -1.421875 41.21875 -1.421875 
Q 24.65625 -1.421875 15.125 8.703125 
Q 5.609375 18.84375 5.609375 36.375 
Q 5.609375 53.953125 15.125 64.078125 
Q 24.65625 74.21875 41.21875 74.21875 
Q 47.75 74.21875 53.53125 72.484375 
Q 59.328125 70.75 64.40625 67.28125 
" id="BitstreamVeraSans-Roman-43"/>
      <path d="M 11.71875 12.40625 
L 22.015625 12.40625 
L 22.015625 0 
L 11.71875 0 
z
M 11.71875 51.703125 
L 22.015625 51.703125 
L 22.015625 39.3125 
L 11.71875 39.3125 
z
" id="BitstreamVeraSans-Roman-3a"/>
      <path d="M 44.390625 34.1875 
Q 47.5625 33.109375 50.5625 29.59375 
Q 53.5625 26.078125 56.59375 19.921875 
L 66.609375 0 
L 56 0 
L 46.6875 18.703125 
Q 43.0625 26.03125 39.671875 28.421875 
Q 36.28125 30.8125 30.421875 30.8125 
L 19.671875 30.8125 
L 19.671875 0 
L 9.8125 0 
L 9.8125 72.90625 
L 32.078125 72.90625 
Q 44.578125 72.90625 50.734375 67.671875 
Q 56.890625 62.453125 56.890625 51.90625 
Q 56.890625 45.015625 53.6875 40.46875 
Q 50.484375 35.9375 44.390625 34.1875 
M 19.671875 64.796875 
L 19.671875 38.921875 
L 32.078125 38.921875 
Q 39.203125 38.921875 42.84375 42.21875 
Q 46.484375 45.515625 46.484375 51.90625 
Q 46.484375 58.296875 42.84375 61.546875 
Q 39.203125 64.796875 32.078125 64.796875 
z
" id="BitstreamVeraSans-Roman-52"/>
      <path id="BitstreamVeraSans-Roman-20"/>
      <path d="M 19.671875 64.796875 
L 19.671875 37.40625 
L 32.078125 37.40625 
Q 38.96875 37.40625 42.71875 40.96875 
Q 46.484375 44.53125 46.484375 51.125 
Q 46.484375 57.671875 42.71875 61.234375 
Q 38.96875 64.796875 32.078125 64.796875 
z
M 9.8125 72.90625 
L 32.078125 72.90625 
Q 44.34375 72.90625 50.609375 67.359375 
Q 56.890625 61.8125 56.890625 51.125 
Q 56.890625 40.328125 50.609375 34.8125 
Q 44.34375 29.296875 32.078125 29.296875 
L 19.671875 29.296875 
L 19.671875 0 
L 9.8125 0 
z
" id="BitstreamVeraSans-Roman-50"/>
      <path d="M 4.203125 54.6875 
L 13.1875 54.6875 
L 24.421875 12.015625 
L 35.59375 54.6875 
L 46.1875 54.6875 
L 57.421875 12.015625 
L 68.609375 54.6875 
L 77.59375 54.6875 
L 63.28125 0 
L 52.6875 0 
L 40.921875 44.828125 
L 29.109375 0 
L 18.5 0 
z
" id="BitstreamVeraSans-Roman-77"/>
      <path d="M -0.203125 72.90625 
L 10.40625 72.90625 
L 30.609375 42.921875 
L 50.6875 72.90625 
L 61.28125 72.90625 
L 35.5 34.71875 
L 35.5 0 
L 25.59375 0 
L 25.59375 34.71875 
z
" id="BitstreamVeraSans-Roman-59"/>
      <path d="M 45.40625 46.390625 
L 45.40625 75.984375 
L 54.390625 75.984375 
L 54.390625 0 
L 45.40625 0 
L 45.40625 8.203125 
Q 42.578125 3.328125 38.25 0.953125 
Q 33.9375 -1.421875 27.875 -1.421875 
Q 17.96875 -1.421875 11.734375 6.484375 
Q 5.515625 14.40625 5.515625 27.296875 
Q 5.515625 40.1875 11.734375 48.09375 
Q 17.96875 56 27.875 56 
Q 33.9375 56 38.25 53.625 
Q 42.578125 51.265625 45.40625 46.390625 
M 14.796875 27.296875 
Q 14.796875 17.390625 18.875 11.75 
Q 22.953125 6.109375 30.078125 6.109375 
Q 37.203125 6.109375 41.296875 11.75 
Q 45.40625 17.390625 45.40625 27.296875 
Q 45.40625 37.203125 41.296875 42.84375 
Q 37.203125 48.484375 30.078125 48.484375 
Q 22.953125 48.484375 18.875 42.84375 
Q 14.796875 37.203125 14.796875 27.296875 
" id="BitstreamVeraSans-Roman-64"/>
      <path d="M 9.421875 54.6875 
L 18.40625 54.6875 
L 18.40625 0 
L 9.421875 0 
z
M 9.421875 75.984375 
L 18.40625 75.984375 
L 18.40625 64.59375 
L 9.421875 64.59375 
z
" id="BitstreamVeraSans-Roman-69"/>
      <path d="M 52 44.1875 
Q 55.375 50.25 60.0625 53.125 
Q 64.75 56 71.09375 56 
Q 79.640625 56 84.28125 50.015625 
Q 88.921875 44.046875 88.921875 33.015625 
L 88.921875 0 
L 79.890625 0 
L 79.890625 32.71875 
Q 79.890625 40.578125 77.09375 44.375 
Q 74.3125 48.1875 68.609375 48.1875 
Q 61.625 48.1875 57.5625 43.546875 
Q 53.515625 38.921875 53.515625 30.90625 
L 53.515625 0 
L 44.484375 0 
L 44.484375 32.71875 
Q 44.484375 40.625 41.703125 44.40625 
Q 38.921875 48.1875 33.109375 48.1875 
Q 26.21875 48.1875 22.15625 43.53125 
Q 18.109375 38.875 18.109375 30.90625 
L 18.109375 0 
L 9.078125 0 
L 9.078125 54.6875 
L 18.109375 54.6875 
L 18.109375 46.1875 
Q 21.1875 51.21875 25.484375 53.609375 
Q 29.78125 56 35.6875 56 
Q 41.65625 56 45.828125 52.96875 
Q 50 49.953125 52 44.1875 
" id="BitstreamVeraSans-Roman-6d"/>
      <path d="M 9.078125 75.984375 
L 18.109375 75.984375 
L 18.109375 31.109375 
L 44.921875 54.6875 
L 56.390625 54.6875 
L 27.390625 29.109375 
L 57.625 0 
L 45.90625 0 
L 18.109375 26.703125 
L 18.109375 0 
L 9.078125 0 
z
" id="BitstreamVeraSans-Roman-6b"/>
     </defs>
     <g style="fill:#555555;" transform="translate(317.20125 291.575375)scale(0.12 -0.12)">
      <use xlink:href="#BitstreamVeraSans-Roman-20"/>
      <use x="31.787109375" xlink:href="#BitstreamVeraSans-Roman-20"/>
      <use x="63.57421875" xlink:href="#BitstreamVeraSans-Roman-20"/>
      <use x="95.361328125" xlink:href="#BitstreamVeraSans-Roman-20"/>
      <use x="127.1484375" xlink:href="#BitstreamVeraSans-Roman-20"/>
      <use x="158.935546875" xlink:href="#BitstreamVeraSans-Roman-20"/>
      <use x="190.72265625" xlink:href="#BitstreamVeraSans-Roman-20"/>
      <use x="222.509765625" xlink:href="#BitstreamVeraSans-Roman-20"/>
      <use x="254.296875" xlink:href="#BitstreamVeraSans-Roman-20"/>
      <use x="286.083984375" xlink:href="#BitstreamVeraSans-Roman-20"/>
      <use x="317.87109375" xlink:href="#BitstreamVeraSans-Roman-20"/>
      <use x="349.658203125" xlink:href="#BitstreamVeraSans-Roman-20"/>
      <use x="381.4453125" xlink:href="#BitstreamVeraSans-Roman-20"/>
      <use x="413.232421875" xlink:href="#BitstreamVeraSans-Roman-20"/>
      <use x="445.01953125" xlink:href="#BitstreamVeraSans-Roman-52"/>
      <use x="514.439453125" xlink:href="#BitstreamVeraSans-Roman-65"/>
      <use x="575.962890625" xlink:href="#BitstreamVeraSans-Roman-64"/>
      <use x="639.439453125" xlink:href="#BitstreamVeraSans-Roman-3a"/>
      <use x="673.130859375" xlink:href="#BitstreamVeraSans-Roman-20"/>
      <use x="704.91796875" xlink:href="#BitstreamVeraSans-Roman-4e"/>
      <use x="779.72265625" xlink:href="#BitstreamVeraSans-Roman-65"/>
      <use x="841.24609375" xlink:href="#BitstreamVeraSans-Roman-77"/>
      <use x="923.033203125" xlink:href="#BitstreamVeraSans-Roman-20"/>
      <use x="954.8203125" xlink:href="#BitstreamVeraSans-Roman-59"/>
      <use x="1015.701171875" xlink:href="#BitstreamVeraSans-Roman-6f"/>
      <use x="1076.8828125" xlink:href="#BitstreamVeraSans-Roman-72"/>
      <use x="1117.99609375" xlink:href="#BitstreamVeraSans-Roman-6b"/>
      <use x="1175.90625" xlink:href="#BitstreamVeraSans-Roman-20"/>
      <use x="1207.693359375" xlink:href="#BitstreamVeraSans-Roman-43"/>
      <use x="1277.517578125" xlink:href="#BitstreamVeraSans-Roman-69"/>
      <use x="1305.30078125" xlink:href="#BitstreamVeraSans-Roman-74"/>
      <use x="1344.509765625" xlink:href="#BitstreamVeraSans-Roman-79"/>
      <use x="1403.689453125" xlink:href="#BitstreamVeraSans-Roman-20"/>
      <use x="1435.4765625" xlink:href="#BitstreamVeraSans-Roman-50"/>
      <use x="1495.732421875" xlink:href="#BitstreamVeraSans-Roman-6f"/>
      <use x="1556.9140625" xlink:href="#BitstreamVeraSans-Roman-6c"/>
      <use x="1584.697265625" xlink:href="#BitstreamVeraSans-Roman-69"/>
      <use x="1612.48046875" xlink:href="#BitstreamVeraSans-Roman-63"/>
      <use x="1667.4609375" xlink:href="#BitstreamVeraSans-Roman-65"/>
      <use x="1728.984375" xlink:href="#BitstreamVeraSans-Roman-20"/>
      <use x="1760.771484375" xlink:href="#BitstreamVeraSans-Roman-44"/>
      <use x="1837.7734375" xlink:href="#BitstreamVeraSans-Roman-65"/>
      <use x="1899.296875" xlink:href="#BitstreamVeraSans-Roman-70"/>
      <use x="1962.7734375" xlink:href="#BitstreamVeraSans-Roman-61"/>
      <use x="2024.052734375" xlink:href="#BitstreamVeraSans-Roman-72"/>
      <use x="2065.166015625" xlink:href="#BitstreamVeraSans-Roman-74"/>
      <use x="2104.375" xlink:href="#BitstreamVeraSans-Roman-6d"/>
      <use x="2201.787109375" xlink:href="#BitstreamVeraSans-Roman-65"/>
      <use x="2263.310546875" xlink:href="#BitstreamVeraSans-Roman-6e"/>
      <use x="2326.689453125" xlink:href="#BitstreamVeraSans-Roman-74"/>
     </g>
     <!--               Blue: Department of Housing Preservation and Development -->
     <defs>
      <path d="M 37.109375 75.984375 
L 37.109375 68.5 
L 28.515625 68.5 
Q 23.6875 68.5 21.796875 66.546875 
Q 19.921875 64.59375 19.921875 59.515625 
L 19.921875 54.6875 
L 34.71875 54.6875 
L 34.71875 47.703125 
L 19.921875 47.703125 
L 19.921875 0 
L 10.890625 0 
L 10.890625 47.703125 
L 2.296875 47.703125 
L 2.296875 54.6875 
L 10.890625 54.6875 
L 10.890625 58.5 
Q 10.890625 67.625 15.140625 71.796875 
Q 19.390625 75.984375 28.609375 75.984375 
z
" id="BitstreamVeraSans-Roman-66"/>
      <path d="M 9.8125 72.90625 
L 19.671875 72.90625 
L 19.671875 43.015625 
L 55.515625 43.015625 
L 55.515625 72.90625 
L 65.375 72.90625 
L 65.375 0 
L 55.515625 0 
L 55.515625 34.71875 
L 19.671875 34.71875 
L 19.671875 0 
L 9.8125 0 
z
" id="BitstreamVeraSans-Roman-48"/>
      <path d="M 44.28125 53.078125 
L 44.28125 44.578125 
Q 40.484375 46.53125 36.375 47.5 
Q 32.28125 48.484375 27.875 48.484375 
Q 21.1875 48.484375 17.84375 46.4375 
Q 14.5 44.390625 14.5 40.28125 
Q 14.5 37.15625 16.890625 35.375 
Q 19.28125 33.59375 26.515625 31.984375 
L 29.59375 31.296875 
Q 39.15625 29.25 43.1875 25.515625 
Q 47.21875 21.78125 47.21875 15.09375 
Q 47.21875 7.46875 41.1875 3.015625 
Q 35.15625 -1.421875 24.609375 -1.421875 
Q 20.21875 -1.421875 15.453125 -0.5625 
Q 10.6875 0.296875 5.421875 2 
L 5.421875 11.28125 
Q 10.40625 8.6875 15.234375 7.390625 
Q 20.0625 6.109375 24.8125 6.109375 
Q 31.15625 6.109375 34.5625 8.28125 
Q 37.984375 10.453125 37.984375 14.40625 
Q 37.984375 18.0625 35.515625 20.015625 
Q 33.0625 21.96875 24.703125 23.78125 
L 21.578125 24.515625 
Q 13.234375 26.265625 9.515625 29.90625 
Q 5.8125 33.546875 5.8125 39.890625 
Q 5.8125 47.609375 11.28125 51.796875 
Q 16.75 56 26.8125 56 
Q 31.78125 56 36.171875 55.265625 
Q 40.578125 54.546875 44.28125 53.078125 
" id="BitstreamVeraSans-Roman-73"/>
      <path d="M 19.671875 34.8125 
L 19.671875 8.109375 
L 35.5 8.109375 
Q 43.453125 8.109375 47.28125 11.40625 
Q 51.125 14.703125 51.125 21.484375 
Q 51.125 28.328125 47.28125 31.5625 
Q 43.453125 34.8125 35.5 34.8125 
z
M 19.671875 64.796875 
L 19.671875 42.828125 
L 34.28125 42.828125 
Q 41.5 42.828125 45.03125 45.53125 
Q 48.578125 48.25 48.578125 53.8125 
Q 48.578125 59.328125 45.03125 62.0625 
Q 41.5 64.796875 34.28125 64.796875 
z
M 9.8125 72.90625 
L 35.015625 72.90625 
Q 46.296875 72.90625 52.390625 68.21875 
Q 58.5 63.53125 58.5 54.890625 
Q 58.5 48.1875 55.375 44.234375 
Q 52.25 40.28125 46.1875 39.3125 
Q 53.46875 37.75 57.5 32.78125 
Q 61.53125 27.828125 61.53125 20.40625 
Q 61.53125 10.640625 54.890625 5.3125 
Q 48.25 0 35.984375 0 
L 9.8125 0 
z
" id="BitstreamVeraSans-Roman-42"/>
     </defs>
     <g style="fill:#555555;" transform="translate(249.7725 305.01275)scale(0.12 -0.12)">
      <use xlink:href="#BitstreamVeraSans-Roman-20"/>
      <use x="31.787109375" xlink:href="#BitstreamVeraSans-Roman-20"/>
      <use x="63.57421875" xlink:href="#BitstreamVeraSans-Roman-20"/>
      <use x="95.361328125" xlink:href="#BitstreamVeraSans-Roman-20"/>
      <use x="127.1484375" xlink:href="#BitstreamVeraSans-Roman-20"/>
      <use x="158.935546875" xlink:href="#BitstreamVeraSans-Roman-20"/>
      <use x="190.72265625" xlink:href="#BitstreamVeraSans-Roman-20"/>
      <use x="222.509765625" xlink:href="#BitstreamVeraSans-Roman-20"/>
      <use x="254.296875" xlink:href="#BitstreamVeraSans-Roman-20"/>
      <use x="286.083984375" xlink:href="#BitstreamVeraSans-Roman-20"/>
      <use x="317.87109375" xlink:href="#BitstreamVeraSans-Roman-20"/>
      <use x="349.658203125" xlink:href="#BitstreamVeraSans-Roman-20"/>
      <use x="381.4453125" xlink:href="#BitstreamVeraSans-Roman-20"/>
      <use x="413.232421875" xlink:href="#BitstreamVeraSans-Roman-20"/>
      <use x="445.01953125" xlink:href="#BitstreamVeraSans-Roman-42"/>
      <use x="513.623046875" xlink:href="#BitstreamVeraSans-Roman-6c"/>
      <use x="541.40625" xlink:href="#BitstreamVeraSans-Roman-75"/>
      <use x="604.78515625" xlink:href="#BitstreamVeraSans-Roman-65"/>
      <use x="666.30859375" xlink:href="#BitstreamVeraSans-Roman-3a"/>
      <use x="700.0" xlink:href="#BitstreamVeraSans-Roman-20"/>
      <use x="731.787109375" xlink:href="#BitstreamVeraSans-Roman-44"/>
      <use x="808.7890625" xlink:href="#BitstreamVeraSans-Roman-65"/>
      <use x="870.3125" xlink:href="#BitstreamVeraSans-Roman-70"/>
      <use x="933.7890625" xlink:href="#BitstreamVeraSans-Roman-61"/>
      <use x="995.068359375" xlink:href="#BitstreamVeraSans-Roman-72"/>
      <use x="1036.181640625" xlink:href="#BitstreamVeraSans-Roman-74"/>
      <use x="1075.390625" xlink:href="#BitstreamVeraSans-Roman-6d"/>
      <use x="1172.802734375" xlink:href="#BitstreamVeraSans-Roman-65"/>
      <use x="1234.326171875" xlink:href="#BitstreamVeraSans-Roman-6e"/>
      <use x="1297.705078125" xlink:href="#BitstreamVeraSans-Roman-74"/>
      <use x="1336.9140625" xlink:href="#BitstreamVeraSans-Roman-20"/>
      <use x="1368.701171875" xlink:href="#BitstreamVeraSans-Roman-6f"/>
      <use x="1429.8828125" xlink:href="#BitstreamVeraSans-Roman-66"/>
      <use x="1465.087890625" xlink:href="#BitstreamVeraSans-Roman-20"/>
      <use x="1496.875" xlink:href="#BitstreamVeraSans-Roman-48"/>
      <use x="1572.0703125" xlink:href="#BitstreamVeraSans-Roman-6f"/>
      <use x="1633.251953125" xlink:href="#BitstreamVeraSans-Roman-75"/>
      <use x="1696.630859375" xlink:href="#BitstreamVeraSans-Roman-73"/>
      <use x="1748.73046875" xlink:href="#BitstreamVeraSans-Roman-69"/>
      <use x="1776.513671875" xlink:href="#BitstreamVeraSans-Roman-6e"/>
      <use x="1839.892578125" xlink:href="#BitstreamVeraSans-Roman-67"/>
      <use x="1903.369140625" xlink:href="#BitstreamVeraSans-Roman-20"/>
      <use x="1935.15625" xlink:href="#BitstreamVeraSans-Roman-50"/>
      <use x="1995.443359375" xlink:href="#BitstreamVeraSans-Roman-72"/>
      <use x="2036.525390625" xlink:href="#BitstreamVeraSans-Roman-65"/>
      <use x="2098.048828125" xlink:href="#BitstreamVeraSans-Roman-73"/>
      <use x="2150.1484375" xlink:href="#BitstreamVeraSans-Roman-65"/>
      <use x="2211.671875" xlink:href="#BitstreamVeraSans-Roman-72"/>
      <use x="2252.78515625" xlink:href="#BitstreamVeraSans-Roman-76"/>
      <use x="2311.96484375" xlink:href="#BitstreamVeraSans-Roman-61"/>
      <use x="2373.244140625" xlink:href="#BitstreamVeraSans-Roman-74"/>
      <use x="2412.453125" xlink:href="#BitstreamVeraSans-Roman-69"/>
      <use x="2440.236328125" xlink:href="#BitstreamVeraSans-Roman-6f"/>
      <use x="2501.41796875" xlink:href="#BitstreamVeraSans-Roman-6e"/>
      <use x="2564.796875" xlink:href="#BitstreamVeraSans-Roman-20"/>
      <use x="2596.583984375" xlink:href="#BitstreamVeraSans-Roman-61"/>
      <use x="2657.86328125" xlink:href="#BitstreamVeraSans-Roman-6e"/>
      <use x="2721.2421875" xlink:href="#BitstreamVeraSans-Roman-64"/>
      <use x="2784.71875" xlink:href="#BitstreamVeraSans-Roman-20"/>
      <use x="2816.505859375" xlink:href="#BitstreamVeraSans-Roman-44"/>
      <use x="2893.5078125" xlink:href="#BitstreamVeraSans-Roman-65"/>
      <use x="2955.03125" xlink:href="#BitstreamVeraSans-Roman-76"/>
      <use x="3014.2109375" xlink:href="#BitstreamVeraSans-Roman-65"/>
      <use x="3075.734375" xlink:href="#BitstreamVeraSans-Roman-6c"/>
      <use x="3103.517578125" xlink:href="#BitstreamVeraSans-Roman-6f"/>
      <use x="3164.69921875" xlink:href="#BitstreamVeraSans-Roman-70"/>
      <use x="3228.17578125" xlink:href="#BitstreamVeraSans-Roman-6d"/>
      <use x="3325.587890625" xlink:href="#BitstreamVeraSans-Roman-65"/>
      <use x="3387.111328125" xlink:href="#BitstreamVeraSans-Roman-6e"/>
      <use x="3450.490234375" xlink:href="#BitstreamVeraSans-Roman-74"/>
     </g>
     <!--               Purple: Department of Transportation -->
     <defs>
      <path d="M -0.296875 72.90625 
L 61.375 72.90625 
L 61.375 64.59375 
L 35.5 64.59375 
L 35.5 0 
L 25.59375 0 
L 25.59375 64.59375 
L -0.296875 64.59375 
z
" id="BitstreamVeraSans-Roman-54"/>
     </defs>
     <g style="fill:#555555;" transform="translate(319.3753125 318.450125)scale(0.12 -0.12)">
      <use xlink:href="#BitstreamVeraSans-Roman-20"/>
      <use x="31.787109375" xlink:href="#BitstreamVeraSans-Roman-20"/>
      <use x="63.57421875" xlink:href="#BitstreamVeraSans-Roman-20"/>
      <use x="95.361328125" xlink:href="#BitstreamVeraSans-Roman-20"/>
      <use x="127.1484375" xlink:href="#BitstreamVeraSans-Roman-20"/>
      <use x="158.935546875" xlink:href="#BitstreamVeraSans-Roman-20"/>
      <use x="190.72265625" xlink:href="#BitstreamVeraSans-Roman-20"/>
      <use x="222.509765625" xlink:href="#BitstreamVeraSans-Roman-20"/>
      <use x="254.296875" xlink:href="#BitstreamVeraSans-Roman-20"/>
      <use x="286.083984375" xlink:href="#BitstreamVeraSans-Roman-20"/>
      <use x="317.87109375" xlink:href="#BitstreamVeraSans-Roman-20"/>
      <use x="349.658203125" xlink:href="#BitstreamVeraSans-Roman-20"/>
      <use x="381.4453125" xlink:href="#BitstreamVeraSans-Roman-20"/>
      <use x="413.232421875" xlink:href="#BitstreamVeraSans-Roman-20"/>
      <use x="445.01953125" xlink:href="#BitstreamVeraSans-Roman-50"/>
      <use x="505.306640625" xlink:href="#BitstreamVeraSans-Roman-75"/>
      <use x="568.685546875" xlink:href="#BitstreamVeraSans-Roman-72"/>
      <use x="609.798828125" xlink:href="#BitstreamVeraSans-Roman-70"/>
      <use x="673.275390625" xlink:href="#BitstreamVeraSans-Roman-6c"/>
      <use x="701.05859375" xlink:href="#BitstreamVeraSans-Roman-65"/>
      <use x="762.58203125" xlink:href="#BitstreamVeraSans-Roman-3a"/>
      <use x="796.2734375" xlink:href="#BitstreamVeraSans-Roman-20"/>
      <use x="828.060546875" xlink:href="#BitstreamVeraSans-Roman-44"/>
      <use x="905.0625" xlink:href="#BitstreamVeraSans-Roman-65"/>
      <use x="966.5859375" xlink:href="#BitstreamVeraSans-Roman-70"/>
      <use x="1030.0625" xlink:href="#BitstreamVeraSans-Roman-61"/>
      <use x="1091.341796875" xlink:href="#BitstreamVeraSans-Roman-72"/>
      <use x="1132.455078125" xlink:href="#BitstreamVeraSans-Roman-74"/>
      <use x="1171.6640625" xlink:href="#BitstreamVeraSans-Roman-6d"/>
      <use x="1269.076171875" xlink:href="#BitstreamVeraSans-Roman-65"/>
      <use x="1330.599609375" xlink:href="#BitstreamVeraSans-Roman-6e"/>
      <use x="1393.978515625" xlink:href="#BitstreamVeraSans-Roman-74"/>
      <use x="1433.1875" xlink:href="#BitstreamVeraSans-Roman-20"/>
      <use x="1464.974609375" xlink:href="#BitstreamVeraSans-Roman-6f"/>
      <use x="1526.15625" xlink:href="#BitstreamVeraSans-Roman-66"/>
      <use x="1561.361328125" xlink:href="#BitstreamVeraSans-Roman-20"/>
      <use x="1593.1484375" xlink:href="#BitstreamVeraSans-Roman-54"/>
      <use x="1654.013671875" xlink:href="#BitstreamVeraSans-Roman-72"/>
      <use x="1695.126953125" xlink:href="#BitstreamVeraSans-Roman-61"/>
      <use x="1756.40625" xlink:href="#BitstreamVeraSans-Roman-6e"/>
      <use x="1819.78515625" xlink:href="#BitstreamVeraSans-Roman-73"/>
      <use x="1871.884765625" xlink:href="#BitstreamVeraSans-Roman-70"/>
      <use x="1935.361328125" xlink:href="#BitstreamVeraSans-Roman-6f"/>
      <use x="1996.54296875" xlink:href="#BitstreamVeraSans-Roman-72"/>
      <use x="2037.65625" xlink:href="#BitstreamVeraSans-Roman-74"/>
      <use x="2076.865234375" xlink:href="#BitstreamVeraSans-Roman-61"/>
      <use x="2138.14453125" xlink:href="#BitstreamVeraSans-Roman-74"/>
      <use x="2177.353515625" xlink:href="#BitstreamVeraSans-Roman-69"/>
      <use x="2205.13671875" xlink:href="#BitstreamVeraSans-Roman-6f"/>
      <use x="2266.318359375" xlink:href="#BitstreamVeraSans-Roman-6e"/>
     </g>
     <!--               Grey: Department of Health and Mental Hygiene -->
     <defs>
      <path d="M 59.515625 10.40625 
L 59.515625 29.984375 
L 43.40625 29.984375 
L 43.40625 38.09375 
L 69.28125 38.09375 
L 69.28125 6.78125 
Q 63.578125 2.734375 56.6875 0.65625 
Q 49.8125 -1.421875 42 -1.421875 
Q 24.90625 -1.421875 15.25 8.5625 
Q 5.609375 18.5625 5.609375 36.375 
Q 5.609375 54.25 15.25 64.234375 
Q 24.90625 74.21875 42 74.21875 
Q 49.125 74.21875 55.546875 72.453125 
Q 61.96875 70.703125 67.390625 67.28125 
L 67.390625 56.78125 
Q 61.921875 61.421875 55.765625 63.765625 
Q 49.609375 66.109375 42.828125 66.109375 
Q 29.4375 66.109375 22.71875 58.640625 
Q 16.015625 51.171875 16.015625 36.375 
Q 16.015625 21.625 22.71875 14.15625 
Q 29.4375 6.6875 42.828125 6.6875 
Q 48.046875 6.6875 52.140625 7.59375 
Q 56.25 8.5 59.515625 10.40625 
" id="BitstreamVeraSans-Roman-47"/>
      <path d="M 54.890625 33.015625 
L 54.890625 0 
L 45.90625 0 
L 45.90625 32.71875 
Q 45.90625 40.484375 42.875 44.328125 
Q 39.84375 48.1875 33.796875 48.1875 
Q 26.515625 48.1875 22.3125 43.546875 
Q 18.109375 38.921875 18.109375 30.90625 
L 18.109375 0 
L 9.078125 0 
L 9.078125 75.984375 
L 18.109375 75.984375 
L 18.109375 46.1875 
Q 21.34375 51.125 25.703125 53.5625 
Q 30.078125 56 35.796875 56 
Q 45.21875 56 50.046875 50.171875 
Q 54.890625 44.34375 54.890625 33.015625 
" id="BitstreamVeraSans-Roman-68"/>
     </defs>
     <g style="fill:#555555;" transform="translate(286.46625 331.8875)scale(0.12 -0.12)">
      <use xlink:href="#BitstreamVeraSans-Roman-20"/>
      <use x="31.787109375" xlink:href="#BitstreamVeraSans-Roman-20"/>
      <use x="63.57421875" xlink:href="#BitstreamVeraSans-Roman-20"/>
      <use x="95.361328125" xlink:href="#BitstreamVeraSans-Roman-20"/>
      <use x="127.1484375" xlink:href="#BitstreamVeraSans-Roman-20"/>
      <use x="158.935546875" xlink:href="#BitstreamVeraSans-Roman-20"/>
      <use x="190.72265625" xlink:href="#BitstreamVeraSans-Roman-20"/>
      <use x="222.509765625" xlink:href="#BitstreamVeraSans-Roman-20"/>
      <use x="254.296875" xlink:href="#BitstreamVeraSans-Roman-20"/>
      <use x="286.083984375" xlink:href="#BitstreamVeraSans-Roman-20"/>
      <use x="317.87109375" xlink:href="#BitstreamVeraSans-Roman-20"/>
      <use x="349.658203125" xlink:href="#BitstreamVeraSans-Roman-20"/>
      <use x="381.4453125" xlink:href="#BitstreamVeraSans-Roman-20"/>
      <use x="413.232421875" xlink:href="#BitstreamVeraSans-Roman-20"/>
      <use x="445.01953125" xlink:href="#BitstreamVeraSans-Roman-47"/>
      <use x="522.509765625" xlink:href="#BitstreamVeraSans-Roman-72"/>
      <use x="563.591796875" xlink:href="#BitstreamVeraSans-Roman-65"/>
      <use x="625.115234375" xlink:href="#BitstreamVeraSans-Roman-79"/>
      <use x="684.185546875" xlink:href="#BitstreamVeraSans-Roman-3a"/>
      <use x="717.876953125" xlink:href="#BitstreamVeraSans-Roman-20"/>
      <use x="749.6640625" xlink:href="#BitstreamVeraSans-Roman-44"/>
      <use x="826.666015625" xlink:href="#BitstreamVeraSans-Roman-65"/>
      <use x="888.189453125" xlink:href="#BitstreamVeraSans-Roman-70"/>
      <use x="951.666015625" xlink:href="#BitstreamVeraSans-Roman-61"/>
      <use x="1012.9453125" xlink:href="#BitstreamVeraSans-Roman-72"/>
      <use x="1054.05859375" xlink:href="#BitstreamVeraSans-Roman-74"/>
      <use x="1093.267578125" xlink:href="#BitstreamVeraSans-Roman-6d"/>
      <use x="1190.6796875" xlink:href="#BitstreamVeraSans-Roman-65"/>
      <use x="1252.203125" xlink:href="#BitstreamVeraSans-Roman-6e"/>
      <use x="1315.58203125" xlink:href="#BitstreamVeraSans-Roman-74"/>
      <use x="1354.791015625" xlink:href="#BitstreamVeraSans-Roman-20"/>
      <use x="1386.578125" xlink:href="#BitstreamVeraSans-Roman-6f"/>
      <use x="1447.759765625" xlink:href="#BitstreamVeraSans-Roman-66"/>
      <use x="1482.96484375" xlink:href="#BitstreamVeraSans-Roman-20"/>
      <use x="1514.751953125" xlink:href="#BitstreamVeraSans-Roman-48"/>
      <use x="1589.947265625" xlink:href="#BitstreamVeraSans-Roman-65"/>
      <use x="1651.470703125" xlink:href="#BitstreamVeraSans-Roman-61"/>
      <use x="1712.75" xlink:href="#BitstreamVeraSans-Roman-6c"/>
      <use x="1740.533203125" xlink:href="#BitstreamVeraSans-Roman-74"/>
      <use x="1779.7421875" xlink:href="#BitstreamVeraSans-Roman-68"/>
      <use x="1843.12109375" xlink:href="#BitstreamVeraSans-Roman-20"/>
      <use x="1874.908203125" xlink:href="#BitstreamVeraSans-Roman-61"/>
      <use x="1936.1875" xlink:href="#BitstreamVeraSans-Roman-6e"/>
      <use x="1999.56640625" xlink:href="#BitstreamVeraSans-Roman-64"/>
      <use x="2063.04296875" xlink:href="#BitstreamVeraSans-Roman-20"/>
      <use x="2094.830078125" xlink:href="#BitstreamVeraSans-Roman-4d"/>
      <use x="2181.109375" xlink:href="#BitstreamVeraSans-Roman-65"/>
      <use x="2242.6328125" xlink:href="#BitstreamVeraSans-Roman-6e"/>
      <use x="2306.01171875" xlink:href="#BitstreamVeraSans-Roman-74"/>
      <use x="2345.220703125" xlink:href="#BitstreamVeraSans-Roman-61"/>
      <use x="2406.5" xlink:href="#BitstreamVeraSans-Roman-6c"/>
      <use x="2434.283203125" xlink:href="#BitstreamVeraSans-Roman-20"/>
      <use x="2466.0703125" xlink:href="#BitstreamVeraSans-Roman-48"/>
      <use x="2541.265625" xlink:href="#BitstreamVeraSans-Roman-79"/>
      <use x="2600.4453125" xlink:href="#BitstreamVeraSans-Roman-67"/>
      <use x="2663.921875" xlink:href="#BitstreamVeraSans-Roman-69"/>
      <use x="2691.705078125" xlink:href="#BitstreamVeraSans-Roman-65"/>
      <use x="2753.228515625" xlink:href="#BitstreamVeraSans-Roman-6e"/>
      <use x="2816.607421875" xlink:href="#BitstreamVeraSans-Roman-65"/>
     </g>
     <!--               Green: Department of Parks and Recreation -->
     <g style="fill:#555555;" transform="translate(300.37875 345.324875)scale(0.12 -0.12)">
      <use xlink:href="#BitstreamVeraSans-Roman-20"/>
      <use x="31.787109375" xlink:href="#BitstreamVeraSans-Roman-20"/>
      <use x="63.57421875" xlink:href="#BitstreamVeraSans-Roman-20"/>
      <use x="95.361328125" xlink:href="#BitstreamVeraSans-Roman-20"/>
      <use x="127.1484375" xlink:href="#BitstreamVeraSans-Roman-20"/>
      <use x="158.935546875" xlink:href="#BitstreamVeraSans-Roman-20"/>
      <use x="190.72265625" xlink:href="#BitstreamVeraSans-Roman-20"/>
      <use x="222.509765625" xlink:href="#BitstreamVeraSans-Roman-20"/>
      <use x="254.296875" xlink:href="#BitstreamVeraSans-Roman-20"/>
      <use x="286.083984375" xlink:href="#BitstreamVeraSans-Roman-20"/>
      <use x="317.87109375" xlink:href="#BitstreamVeraSans-Roman-20"/>
      <use x="349.658203125" xlink:href="#BitstreamVeraSans-Roman-20"/>
      <use x="381.4453125" xlink:href="#BitstreamVeraSans-Roman-20"/>
      <use x="413.232421875" xlink:href="#BitstreamVeraSans-Roman-20"/>
      <use x="445.01953125" xlink:href="#BitstreamVeraSans-Roman-47"/>
      <use x="522.509765625" xlink:href="#BitstreamVeraSans-Roman-72"/>
      <use x="563.591796875" xlink:href="#BitstreamVeraSans-Roman-65"/>
      <use x="625.115234375" xlink:href="#BitstreamVeraSans-Roman-65"/>
      <use x="686.638671875" xlink:href="#BitstreamVeraSans-Roman-6e"/>
      <use x="750.017578125" xlink:href="#BitstreamVeraSans-Roman-3a"/>
      <use x="783.708984375" xlink:href="#BitstreamVeraSans-Roman-20"/>
      <use x="815.49609375" xlink:href="#BitstreamVeraSans-Roman-44"/>
      <use x="892.498046875" xlink:href="#BitstreamVeraSans-Roman-65"/>
      <use x="954.021484375" xlink:href="#BitstreamVeraSans-Roman-70"/>
      <use x="1017.498046875" xlink:href="#BitstreamVeraSans-Roman-61"/>
      <use x="1078.77734375" xlink:href="#BitstreamVeraSans-Roman-72"/>
      <use x="1119.890625" xlink:href="#BitstreamVeraSans-Roman-74"/>
      <use x="1159.099609375" xlink:href="#BitstreamVeraSans-Roman-6d"/>
      <use x="1256.51171875" xlink:href="#BitstreamVeraSans-Roman-65"/>
      <use x="1318.03515625" xlink:href="#BitstreamVeraSans-Roman-6e"/>
      <use x="1381.4140625" xlink:href="#BitstreamVeraSans-Roman-74"/>
      <use x="1420.623046875" xlink:href="#BitstreamVeraSans-Roman-20"/>
      <use x="1452.41015625" xlink:href="#BitstreamVeraSans-Roman-6f"/>
      <use x="1513.591796875" xlink:href="#BitstreamVeraSans-Roman-66"/>
      <use x="1548.796875" xlink:href="#BitstreamVeraSans-Roman-20"/>
      <use x="1580.583984375" xlink:href="#BitstreamVeraSans-Roman-50"/>
      <use x="1640.82421875" xlink:href="#BitstreamVeraSans-Roman-61"/>
      <use x="1702.103515625" xlink:href="#BitstreamVeraSans-Roman-72"/>
      <use x="1743.216796875" xlink:href="#BitstreamVeraSans-Roman-6b"/>
      <use x="1801.126953125" xlink:href="#BitstreamVeraSans-Roman-73"/>
      <use x="1853.2265625" xlink:href="#BitstreamVeraSans-Roman-20"/>
      <use x="1885.013671875" xlink:href="#BitstreamVeraSans-Roman-61"/>
      <use x="1946.29296875" xlink:href="#BitstreamVeraSans-Roman-6e"/>
      <use x="2009.671875" xlink:href="#BitstreamVeraSans-Roman-64"/>
      <use x="2073.1484375" xlink:href="#BitstreamVeraSans-Roman-20"/>
      <use x="2104.935546875" xlink:href="#BitstreamVeraSans-Roman-52"/>
      <use x="2174.35546875" xlink:href="#BitstreamVeraSans-Roman-65"/>
      <use x="2235.87890625" xlink:href="#BitstreamVeraSans-Roman-63"/>
      <use x="2290.859375" xlink:href="#BitstreamVeraSans-Roman-72"/>
      <use x="2331.94140625" xlink:href="#BitstreamVeraSans-Roman-65"/>
      <use x="2393.46484375" xlink:href="#BitstreamVeraSans-Roman-61"/>
      <use x="2454.744140625" xlink:href="#BitstreamVeraSans-Roman-74"/>
      <use x="2493.953125" xlink:href="#BitstreamVeraSans-Roman-69"/>
      <use x="2521.736328125" xlink:href="#BitstreamVeraSans-Roman-6f"/>
      <use x="2582.91796875" xlink:href="#BitstreamVeraSans-Roman-6e"/>
     </g>
    </g>
   </g>
   <g id="matplotlib.axis_2">
    <g id="ytick_1">
     <g id="line2d_120">
      <path clip-path="url(#pf4b46b84e3)" d="M 40.65 246.34175 
L 877.65 246.34175 
" style="fill:none;stroke:#ffffff;stroke-linecap:square;stroke-width:0.5;"/>
     </g>
     <g id="line2d_121">
      <defs>
       <path d="M 0 0 
L -4 0 
" id="m46347789a4" style="stroke:#555555;stroke-width:0.5;"/>
      </defs>
      <g>
       <use style="fill:#555555;stroke:#555555;stroke-width:0.5;" x="40.65" xlink:href="#m46347789a4" y="246.34175"/>
      </g>
     </g>
     <g id="line2d_122">
      <defs>
       <path d="M 0 0 
L 4 0 
" id="m059fe58d97" style="stroke:#555555;stroke-width:0.5;"/>
      </defs>
      <g>
       <use style="fill:#555555;stroke:#555555;stroke-width:0.5;" x="877.65" xlink:href="#m059fe58d97" y="246.34175"/>
      </g>
     </g>
     <g id="text_14">
      <!-- 0 -->
      <defs>
       <path d="M 31.78125 66.40625 
Q 24.171875 66.40625 20.328125 58.90625 
Q 16.5 51.421875 16.5 36.375 
Q 16.5 21.390625 20.328125 13.890625 
Q 24.171875 6.390625 31.78125 6.390625 
Q 39.453125 6.390625 43.28125 13.890625 
Q 47.125 21.390625 47.125 36.375 
Q 47.125 51.421875 43.28125 58.90625 
Q 39.453125 66.40625 31.78125 66.40625 
M 31.78125 74.21875 
Q 44.046875 74.21875 50.515625 64.515625 
Q 56.984375 54.828125 56.984375 36.375 
Q 56.984375 17.96875 50.515625 8.265625 
Q 44.046875 -1.421875 31.78125 -1.421875 
Q 19.53125 -1.421875 13.0625 8.265625 
Q 6.59375 17.96875 6.59375 36.375 
Q 6.59375 54.828125 13.0625 64.515625 
Q 19.53125 74.21875 31.78125 74.21875 
" id="BitstreamVeraSans-Roman-30"/>
      </defs>
      <g style="fill:#555555;" transform="translate(26.2875 249.101125)scale(0.1 -0.1)">
       <use xlink:href="#BitstreamVeraSans-Roman-30"/>
      </g>
     </g>
    </g>
    <g id="ytick_2">
     <g id="line2d_123">
      <path clip-path="url(#pf4b46b84e3)" d="M 40.65 201.70175 
L 877.65 201.70175 
" style="fill:none;stroke:#ffffff;stroke-linecap:square;stroke-width:0.5;"/>
     </g>
     <g id="line2d_124">
      <g>
       <use style="fill:#555555;stroke:#555555;stroke-width:0.5;" x="40.65" xlink:href="#m46347789a4" y="201.70175"/>
      </g>
     </g>
     <g id="line2d_125">
      <g>
       <use style="fill:#555555;stroke:#555555;stroke-width:0.5;" x="877.65" xlink:href="#m059fe58d97" y="201.70175"/>
      </g>
     </g>
     <g id="text_15">
      <!-- 1000 -->
      <defs>
       <path d="M 12.40625 8.296875 
L 28.515625 8.296875 
L 28.515625 63.921875 
L 10.984375 60.40625 
L 10.984375 69.390625 
L 28.421875 72.90625 
L 38.28125 72.90625 
L 38.28125 8.296875 
L 54.390625 8.296875 
L 54.390625 0 
L 12.40625 0 
z
" id="BitstreamVeraSans-Roman-31"/>
      </defs>
      <g style="fill:#555555;" transform="translate(7.2 204.461125)scale(0.1 -0.1)">
       <use xlink:href="#BitstreamVeraSans-Roman-31"/>
       <use x="63.623046875" xlink:href="#BitstreamVeraSans-Roman-30"/>
       <use x="127.24609375" xlink:href="#BitstreamVeraSans-Roman-30"/>
       <use x="190.869140625" xlink:href="#BitstreamVeraSans-Roman-30"/>
      </g>
     </g>
    </g>
    <g id="ytick_3">
     <g id="line2d_126">
      <path clip-path="url(#pf4b46b84e3)" d="M 40.65 157.06175 
L 877.65 157.06175 
" style="fill:none;stroke:#ffffff;stroke-linecap:square;stroke-width:0.5;"/>
     </g>
     <g id="line2d_127">
      <g>
       <use style="fill:#555555;stroke:#555555;stroke-width:0.5;" x="40.65" xlink:href="#m46347789a4" y="157.06175"/>
      </g>
     </g>
     <g id="line2d_128">
      <g>
       <use style="fill:#555555;stroke:#555555;stroke-width:0.5;" x="877.65" xlink:href="#m059fe58d97" y="157.06175"/>
      </g>
     </g>
     <g id="text_16">
      <!-- 2000 -->
      <defs>
       <path d="M 19.1875 8.296875 
L 53.609375 8.296875 
L 53.609375 0 
L 7.328125 0 
L 7.328125 8.296875 
Q 12.9375 14.109375 22.625 23.890625 
Q 32.328125 33.6875 34.8125 36.53125 
Q 39.546875 41.84375 41.421875 45.53125 
Q 43.3125 49.21875 43.3125 52.78125 
Q 43.3125 58.59375 39.234375 62.25 
Q 35.15625 65.921875 28.609375 65.921875 
Q 23.96875 65.921875 18.8125 64.3125 
Q 13.671875 62.703125 7.8125 59.421875 
L 7.8125 69.390625 
Q 13.765625 71.78125 18.9375 73 
Q 24.125 74.21875 28.421875 74.21875 
Q 39.75 74.21875 46.484375 68.546875 
Q 53.21875 62.890625 53.21875 53.421875 
Q 53.21875 48.921875 51.53125 44.890625 
Q 49.859375 40.875 45.40625 35.40625 
Q 44.1875 33.984375 37.640625 27.21875 
Q 31.109375 20.453125 19.1875 8.296875 
" id="BitstreamVeraSans-Roman-32"/>
      </defs>
      <g style="fill:#555555;" transform="translate(7.2 159.821125)scale(0.1 -0.1)">
       <use xlink:href="#BitstreamVeraSans-Roman-32"/>
       <use x="63.623046875" xlink:href="#BitstreamVeraSans-Roman-30"/>
       <use x="127.24609375" xlink:href="#BitstreamVeraSans-Roman-30"/>
       <use x="190.869140625" xlink:href="#BitstreamVeraSans-Roman-30"/>
      </g>
     </g>
    </g>
    <g id="ytick_4">
     <g id="line2d_129">
      <path clip-path="url(#pf4b46b84e3)" d="M 40.65 112.42175 
L 877.65 112.42175 
" style="fill:none;stroke:#ffffff;stroke-linecap:square;stroke-width:0.5;"/>
     </g>
     <g id="line2d_130">
      <g>
       <use style="fill:#555555;stroke:#555555;stroke-width:0.5;" x="40.65" xlink:href="#m46347789a4" y="112.42175"/>
      </g>
     </g>
     <g id="line2d_131">
      <g>
       <use style="fill:#555555;stroke:#555555;stroke-width:0.5;" x="877.65" xlink:href="#m059fe58d97" y="112.42175"/>
      </g>
     </g>
     <g id="text_17">
      <!-- 3000 -->
      <defs>
       <path d="M 40.578125 39.3125 
Q 47.65625 37.796875 51.625 33 
Q 55.609375 28.21875 55.609375 21.1875 
Q 55.609375 10.40625 48.1875 4.484375 
Q 40.765625 -1.421875 27.09375 -1.421875 
Q 22.515625 -1.421875 17.65625 -0.515625 
Q 12.796875 0.390625 7.625 2.203125 
L 7.625 11.71875 
Q 11.71875 9.328125 16.59375 8.109375 
Q 21.484375 6.890625 26.8125 6.890625 
Q 36.078125 6.890625 40.9375 10.546875 
Q 45.796875 14.203125 45.796875 21.1875 
Q 45.796875 27.640625 41.28125 31.265625 
Q 36.765625 34.90625 28.71875 34.90625 
L 20.21875 34.90625 
L 20.21875 43.015625 
L 29.109375 43.015625 
Q 36.375 43.015625 40.234375 45.921875 
Q 44.09375 48.828125 44.09375 54.296875 
Q 44.09375 59.90625 40.109375 62.90625 
Q 36.140625 65.921875 28.71875 65.921875 
Q 24.65625 65.921875 20.015625 65.03125 
Q 15.375 64.15625 9.8125 62.3125 
L 9.8125 71.09375 
Q 15.4375 72.65625 20.34375 73.4375 
Q 25.25 74.21875 29.59375 74.21875 
Q 40.828125 74.21875 47.359375 69.109375 
Q 53.90625 64.015625 53.90625 55.328125 
Q 53.90625 49.265625 50.4375 45.09375 
Q 46.96875 40.921875 40.578125 39.3125 
" id="BitstreamVeraSans-Roman-33"/>
      </defs>
      <g style="fill:#555555;" transform="translate(7.2 115.181125)scale(0.1 -0.1)">
       <use xlink:href="#BitstreamVeraSans-Roman-33"/>
       <use x="63.623046875" xlink:href="#BitstreamVeraSans-Roman-30"/>
       <use x="127.24609375" xlink:href="#BitstreamVeraSans-Roman-30"/>
       <use x="190.869140625" xlink:href="#BitstreamVeraSans-Roman-30"/>
      </g>
     </g>
    </g>
    <g id="ytick_5">
     <g id="line2d_132">
      <path clip-path="url(#pf4b46b84e3)" d="M 40.65 67.78175 
L 877.65 67.78175 
" style="fill:none;stroke:#ffffff;stroke-linecap:square;stroke-width:0.5;"/>
     </g>
     <g id="line2d_133">
      <g>
       <use style="fill:#555555;stroke:#555555;stroke-width:0.5;" x="40.65" xlink:href="#m46347789a4" y="67.78175"/>
      </g>
     </g>
     <g id="line2d_134">
      <g>
       <use style="fill:#555555;stroke:#555555;stroke-width:0.5;" x="877.65" xlink:href="#m059fe58d97" y="67.78175"/>
      </g>
     </g>
     <g id="text_18">
      <!-- 4000 -->
      <defs>
       <path d="M 37.796875 64.3125 
L 12.890625 25.390625 
L 37.796875 25.390625 
z
M 35.203125 72.90625 
L 47.609375 72.90625 
L 47.609375 25.390625 
L 58.015625 25.390625 
L 58.015625 17.1875 
L 47.609375 17.1875 
L 47.609375 0 
L 37.796875 0 
L 37.796875 17.1875 
L 4.890625 17.1875 
L 4.890625 26.703125 
z
" id="BitstreamVeraSans-Roman-34"/>
      </defs>
      <g style="fill:#555555;" transform="translate(7.2 70.541125)scale(0.1 -0.1)">
       <use xlink:href="#BitstreamVeraSans-Roman-34"/>
       <use x="63.623046875" xlink:href="#BitstreamVeraSans-Roman-30"/>
       <use x="127.24609375" xlink:href="#BitstreamVeraSans-Roman-30"/>
       <use x="190.869140625" xlink:href="#BitstreamVeraSans-Roman-30"/>
      </g>
     </g>
    </g>
    <g id="ytick_6">
     <g id="line2d_135">
      <path clip-path="url(#pf4b46b84e3)" d="M 40.65 23.14175 
L 877.65 23.14175 
" style="fill:none;stroke:#ffffff;stroke-linecap:square;stroke-width:0.5;"/>
     </g>
     <g id="line2d_136">
      <g>
       <use style="fill:#555555;stroke:#555555;stroke-width:0.5;" x="40.65" xlink:href="#m46347789a4" y="23.14175"/>
      </g>
     </g>
     <g id="line2d_137">
      <g>
       <use style="fill:#555555;stroke:#555555;stroke-width:0.5;" x="877.65" xlink:href="#m059fe58d97" y="23.14175"/>
      </g>
     </g>
     <g id="text_19">
      <!-- 5000 -->
      <defs>
       <path d="M 10.796875 72.90625 
L 49.515625 72.90625 
L 49.515625 64.59375 
L 19.828125 64.59375 
L 19.828125 46.734375 
Q 21.96875 47.46875 24.109375 47.828125 
Q 26.265625 48.1875 28.421875 48.1875 
Q 40.625 48.1875 47.75 41.5 
Q 54.890625 34.8125 54.890625 23.390625 
Q 54.890625 11.625 47.5625 5.09375 
Q 40.234375 -1.421875 26.90625 -1.421875 
Q 22.3125 -1.421875 17.546875 -0.640625 
Q 12.796875 0.140625 7.71875 1.703125 
L 7.71875 11.625 
Q 12.109375 9.234375 16.796875 8.0625 
Q 21.484375 6.890625 26.703125 6.890625 
Q 35.15625 6.890625 40.078125 11.328125 
Q 45.015625 15.765625 45.015625 23.390625 
Q 45.015625 31 40.078125 35.4375 
Q 35.15625 39.890625 26.703125 39.890625 
Q 22.75 39.890625 18.8125 39.015625 
Q 14.890625 38.140625 10.796875 36.28125 
z
" id="BitstreamVeraSans-Roman-35"/>
      </defs>
      <g style="fill:#555555;" transform="translate(7.2 25.901125)scale(0.1 -0.1)">
       <use xlink:href="#BitstreamVeraSans-Roman-35"/>
       <use x="63.623046875" xlink:href="#BitstreamVeraSans-Roman-30"/>
       <use x="127.24609375" xlink:href="#BitstreamVeraSans-Roman-30"/>
       <use x="190.869140625" xlink:href="#BitstreamVeraSans-Roman-30"/>
      </g>
     </g>
    </g>
   </g>
   <g id="line2d_138">
    <path clip-path="url(#pf4b46b84e3)" d="M 40.65 226.65551 
L 56.746154 217.14719 
L 72.842308 217.63823 
L 88.938462 217.50431 
L 105.034615 213.26351 
L 121.130769 199.55903 
L 137.226923 207.46031 
L 153.323077 205.49615 
L 169.419231 209.64767 
L 185.515385 188.13119 
L 201.611538 175.00703 
L 217.707692 179.29247 
L 233.803846 180.22991 
L 249.9 172.59647 
L 265.996154 182.50655 
L 282.092308 159.20447 
L 298.188462 152.95487 
L 314.284615 104.56511 
L 330.380769 47.47055 
L 346.476923 61.39823 
L 362.573077 68.71919 
L 378.669231 82.60223 
L 394.765385 125.50127 
L 410.861538 199.15727 
L 426.957692 215.31695 
L 443.053846 215.85263 
L 459.15 207.01391 
L 475.246154 161.48111 
L 491.342308 139.78607 
L 507.438462 152.55311 
L 523.534615 167.46287 
L 539.630769 161.65967 
L 555.726923 161.30255 
L 571.823077 186.88127 
L 587.919231 220.49519 
L 604.015385 189.78287 
L 620.111538 200.94287 
L 636.207692 162.95423 
L 652.303846 153.89231 
L 668.4 155.00831 
L 684.496154 196.30031 
L 700.592308 219.37919 
L 716.688462 171.25727 
L 732.784615 155.72255 
L 748.880769 183.44399 
L 764.976923 99.07439 
L 781.073077 245.98463 
L 797.169231 191.16671 
L 813.265385 209.37983 
L 829.361538 246.07391 
L 845.457692 246.11855 
L 861.553846 242.59199 
L 877.65 232.32479 
" style="fill:none;stroke:#e24a33;stroke-linecap:square;stroke-width:3.0;"/>
   </g>
   <g id="line2d_139">
    <path clip-path="url(#pf4b46b84e3)" d="M 72.842308 246.16319 
L 88.938462 246.20783 
L 105.034615 246.29711 
L 121.130769 245.98463 
L 137.226923 246.25247 
L 153.323077 246.29711 
L 169.419231 246.29711 
L 185.515385 246.02927 
L 201.611538 246.20783 
L 217.707692 246.29711 
L 233.803846 246.29711 
L 249.9 246.29711 
L 265.996154 246.34175 
L 282.092308 246.34175 
L 298.188462 238.88687 
L 314.284615 101.57423 
L 330.380769 30.15023 
L 346.476923 106.30607 
L 362.573077 148.75871 
L 378.669231 157.73135 
L 394.765385 149.16047 
L 410.861538 227.41439 
L 426.957692 246.16319 
L 443.053846 246.16319 
L 459.15 246.25247 
L 475.246154 246.20783 
L 491.342308 246.02927 
L 507.438462 245.76143 
L 523.534615 245.89535 
L 539.630769 245.53823 
L 555.726923 245.18111 
L 571.823077 233.57471 
L 587.919231 227.19119 
L 604.015385 242.41343 
L 620.111538 241.69919 
L 636.207692 237.10127 
L 652.303846 213.12959 
L 668.4 185.76527 
L 684.496154 186.03311 
L 700.592308 103.62767 
L 716.688462 91.39631 
L 732.784615 112.73423 
L 748.880769 204.82655 
L 764.976923 113.49311 
L 781.073077 201.03215 
L 797.169231 216.65615 
L 813.265385 242.90447 
L 829.361538 239.51183 
L 845.457692 229.95887 
L 861.553846 223.70927 
L 877.65 239.02079 
" style="fill:none;stroke:#add8e6;stroke-linecap:square;stroke-width:2.0;"/>
   </g>
   <g id="line2d_140">
    <path clip-path="url(#pf4b46b84e3)" d="M 40.65 243.03839 
L 56.746154 236.25311 
L 72.842308 236.78879 
L 88.938462 236.02991 
L 105.034615 237.01199 
L 121.130769 230.40527 
L 137.226923 233.61935 
L 153.323077 234.51215 
L 169.419231 230.67311 
L 185.515385 220.53983 
L 201.611538 204.02303 
L 217.707692 208.08527 
L 233.803846 210.80831 
L 249.9 215.09375 
L 265.996154 221.61119 
L 282.092308 217.77215 
L 298.188462 207.68351 
L 314.284615 199.78223 
L 330.380769 196.34495 
L 346.476923 195.49679 
L 362.573077 198.21983 
L 378.669231 205.31759 
L 394.765385 210.09407 
L 410.861538 228.97679 
L 426.957692 234.46751 
L 443.053846 237.19055 
L 459.15 238.30655 
L 475.246154 225.71807 
L 491.342308 224.24495 
L 507.438462 225.53951 
L 523.534615 227.81615 
L 539.630769 229.15535 
L 555.726923 229.64639 
L 571.823077 233.48543 
L 587.919231 239.06543 
L 604.015385 239.37791 
L 620.111538 236.25311 
L 636.207692 231.47663 
L 652.303846 233.84255 
L 668.4 231.03023 
L 684.496154 236.61023 
L 700.592308 237.45839 
L 716.688462 230.18207 
L 732.784615 221.61119 
L 748.880769 237.41375 
L 764.976923 220.00415 
L 781.073077 245.49359 
L 797.169231 240.22607 
L 813.265385 240.80639 
L 829.361538 245.22575 
L 845.457692 245.40431 
L 861.553846 240.98495 
L 877.65 244.06511 
" style="fill:none;stroke:#800080;stroke-linecap:square;stroke-width:2.0;"/>
   </g>
   <g id="line2d_141">
    <path clip-path="url(#pf4b46b84e3)" d="M 40.65 244.46687 
L 56.746154 239.11007 
L 72.842308 241.65455 
L 88.938462 242.63663 
L 105.034615 241.96703 
L 121.130769 240.13679 
L 137.226923 239.69039 
L 153.323077 238.26191 
L 169.419231 240.53855 
L 185.515385 239.95823 
L 201.611538 238.44047 
L 217.707692 238.93151 
L 233.803846 237.10127 
L 249.9 237.41375 
L 265.996154 238.08335 
L 282.092308 236.52095 
L 298.188462 237.01199 
L 314.284615 229.82495 
L 330.380769 221.87903 
L 346.476923 226.25375 
L 362.573077 228.08399 
L 378.669231 229.95887 
L 394.765385 232.59263 
L 410.861538 240.49391 
L 426.957692 243.52943 
L 443.053846 242.54735 
L 459.15 241.96703 
L 475.246154 237.86015 
L 491.342308 239.24399 
L 507.438462 241.02959 
L 523.534615 240.31535 
L 539.630769 240.31535 
L 555.726923 240.85103 
L 571.823077 241.52063 
L 587.919231 242.63663 
L 604.015385 243.88655 
L 620.111538 242.68127 
L 636.207692 241.96703 
L 652.303846 242.05631 
L 668.4 240.27071 
L 684.496154 243.35087 
L 700.592308 242.99375 
L 716.688462 238.17263 
L 732.784615 236.69951 
L 748.880769 240.35999 
L 764.976923 235.76207 
L 781.073077 245.35967 
L 797.169231 241.69919 
L 813.265385 243.93119 
L 829.361538 245.27039 
L 845.457692 244.28831 
L 861.553846 244.19903 
L 877.65 243.57407 
" style="fill:none;stroke:#808080;stroke-linecap:square;stroke-width:2.0;"/>
   </g>
   <g id="line2d_142">
    <path clip-path="url(#pf4b46b84e3)" d="M 40.65 243.57407 
L 56.746154 243.17231 
L 72.842308 244.15439 
L 88.938462 242.63663 
L 105.034615 242.90447 
L 121.130769 241.52063 
L 137.226923 244.15439 
L 153.323077 243.79727 
L 169.419231 243.79727 
L 185.515385 242.63663 
L 201.611538 238.12799 
L 217.707692 235.58351 
L 233.803846 237.99407 
L 249.9 236.83343 
L 265.996154 237.32447 
L 282.092308 230.89631 
L 298.188462 220.80767 
L 314.284615 219.15599 
L 330.380769 212.45999 
L 346.476923 204.73727 
L 362.573077 204.02303 
L 378.669231 204.46943 
L 394.765385 219.42383 
L 410.861538 232.59263 
L 426.957692 239.42255 
L 443.053846 237.77087 
L 459.15 236.25311 
L 475.246154 226.78943 
L 491.342308 224.51279 
L 507.438462 225.85199 
L 523.534615 225.04847 
L 539.630769 227.59295 
L 555.726923 225.58415 
L 571.823077 234.60143 
L 587.919231 239.86895 
L 604.015385 238.26191 
L 620.111538 236.87807 
L 636.207692 230.00351 
L 652.303846 232.23551 
L 668.4 216.38831 
L 684.496154 235.53887 
L 700.592308 241.47599 
L 716.688462 235.27103 
L 732.784615 223.35215 
L 748.880769 239.69039 
L 764.976923 225.89663 
L 781.073077 245.58287 
L 797.169231 243.93119 
L 813.265385 242.85983 
L 829.361538 245.98463 
L 845.457692 245.80607 
L 861.553846 245.53823 
L 877.65 246.02927 
" style="fill:none;stroke:#008000;stroke-linecap:square;stroke-width:2.0;"/>
   </g>
   <g id="patch_3">
    <path d="M 40.65 23.14175 
L 877.65 23.14175 
" style="fill:none;stroke:#ffffff;stroke-linecap:square;stroke-linejoin:miter;"/>
   </g>
   <g id="patch_4">
    <path d="M 877.65 246.34175 
L 877.65 23.14175 
" style="fill:none;stroke:#ffffff;stroke-linecap:square;stroke-linejoin:miter;"/>
   </g>
   <g id="patch_5">
    <path d="M 40.65 246.34175 
L 877.65 246.34175 
" style="fill:none;stroke:#ffffff;stroke-linecap:square;stroke-linejoin:miter;"/>
   </g>
   <g id="patch_6">
    <path d="M 40.65 246.34175 
L 40.65 23.14175 
" style="fill:none;stroke:#ffffff;stroke-linecap:square;stroke-linejoin:miter;"/>
   </g>
   <g id="text_20">
    <!-- When the Angencies Filed the Reports 2015 -->
    <defs>
     <path d="M 3.328125 72.90625 
L 13.28125 72.90625 
L 28.609375 11.28125 
L 43.890625 72.90625 
L 54.984375 72.90625 
L 70.3125 11.28125 
L 85.59375 72.90625 
L 95.609375 72.90625 
L 77.296875 0 
L 64.890625 0 
L 49.515625 63.28125 
L 33.984375 0 
L 21.578125 0 
z
" id="BitstreamVeraSans-Roman-57"/>
    </defs>
    <g transform="translate(300.523875 18.14175)scale(0.144 -0.144)">
     <use xlink:href="#BitstreamVeraSans-Roman-57"/>
     <use x="98.876953125" xlink:href="#BitstreamVeraSans-Roman-68"/>
     <use x="162.255859375" xlink:href="#BitstreamVeraSans-Roman-65"/>
     <use x="223.779296875" xlink:href="#BitstreamVeraSans-Roman-6e"/>
     <use x="287.158203125" xlink:href="#BitstreamVeraSans-Roman-20"/>
     <use x="318.9453125" xlink:href="#BitstreamVeraSans-Roman-74"/>
     <use x="358.154296875" xlink:href="#BitstreamVeraSans-Roman-68"/>
     <use x="421.533203125" xlink:href="#BitstreamVeraSans-Roman-65"/>
     <use x="483.056640625" xlink:href="#BitstreamVeraSans-Roman-20"/>
     <use x="514.84375" xlink:href="#BitstreamVeraSans-Roman-41"/>
     <use x="583.251953125" xlink:href="#BitstreamVeraSans-Roman-6e"/>
     <use x="646.630859375" xlink:href="#BitstreamVeraSans-Roman-67"/>
     <use x="710.107421875" xlink:href="#BitstreamVeraSans-Roman-65"/>
     <use x="771.630859375" xlink:href="#BitstreamVeraSans-Roman-6e"/>
     <use x="835.009765625" xlink:href="#BitstreamVeraSans-Roman-63"/>
     <use x="889.990234375" xlink:href="#BitstreamVeraSans-Roman-69"/>
     <use x="917.7734375" xlink:href="#BitstreamVeraSans-Roman-65"/>
     <use x="979.296875" xlink:href="#BitstreamVeraSans-Roman-73"/>
     <use x="1031.396484375" xlink:href="#BitstreamVeraSans-Roman-20"/>
     <use x="1063.18359375" xlink:href="#BitstreamVeraSans-Roman-46"/>
     <use x="1120.59375" xlink:href="#BitstreamVeraSans-Roman-69"/>
     <use x="1148.376953125" xlink:href="#BitstreamVeraSans-Roman-6c"/>
     <use x="1176.16015625" xlink:href="#BitstreamVeraSans-Roman-65"/>
     <use x="1237.68359375" xlink:href="#BitstreamVeraSans-Roman-64"/>
     <use x="1301.16015625" xlink:href="#BitstreamVeraSans-Roman-20"/>
     <use x="1332.947265625" xlink:href="#BitstreamVeraSans-Roman-74"/>
     <use x="1372.15625" xlink:href="#BitstreamVeraSans-Roman-68"/>
     <use x="1435.53515625" xlink:href="#BitstreamVeraSans-Roman-65"/>
     <use x="1497.05859375" xlink:href="#BitstreamVeraSans-Roman-20"/>
     <use x="1528.845703125" xlink:href="#BitstreamVeraSans-Roman-52"/>
     <use x="1598.265625" xlink:href="#BitstreamVeraSans-Roman-65"/>
     <use x="1659.7890625" xlink:href="#BitstreamVeraSans-Roman-70"/>
     <use x="1723.265625" xlink:href="#BitstreamVeraSans-Roman-6f"/>
     <use x="1784.447265625" xlink:href="#BitstreamVeraSans-Roman-72"/>
     <use x="1825.560546875" xlink:href="#BitstreamVeraSans-Roman-74"/>
     <use x="1864.76953125" xlink:href="#BitstreamVeraSans-Roman-73"/>
     <use x="1916.869140625" xlink:href="#BitstreamVeraSans-Roman-20"/>
     <use x="1948.65625" xlink:href="#BitstreamVeraSans-Roman-32"/>
     <use x="2012.279296875" xlink:href="#BitstreamVeraSans-Roman-30"/>
     <use x="2075.90234375" xlink:href="#BitstreamVeraSans-Roman-31"/>
     <use x="2139.525390625" xlink:href="#BitstreamVeraSans-Roman-35"/>
    </g>
   </g>
  </g>
 </g>
 <defs>
  <clipPath id="pf4b46b84e3">
   <rect height="223.2" width="837.0" x="40.65" y="23.14175"/>
  </clipPath>
 </defs>
</svg>
